<?xml version="1.0" encoding="UTF-8" standalone="no"?>
<!DOCTYPE svg PUBLIC "-//W3C//DTD SVG 1.1//EN"
 "http://www.w3.org/Graphics/SVG/1.1/DTD/svg11.dtd">
<!-- Generated by graphviz version 2.43.0 (0)
 -->
<!-- Title: g Pages: 1 -->
<svg width="1652pt" height="1172pt"
 viewBox="0.00 0.00 1651.62 1172.21" xmlns="http://www.w3.org/2000/svg" xmlns:xlink="http://www.w3.org/1999/xlink">
<g id="graph0" class="graph" transform="scale(1 1) rotate(0) translate(4 1168.21)">
<title>g</title>
<polygon fill="white" stroke="transparent" points="-4,4 -4,-1168.21 1647.62,-1168.21 1647.62,4 -4,4"/>
<!-- _Exit -->
<g id="node1" class="node">
<title>_Exit</title>
<ellipse fill="lightgrey" stroke="black" cx="472" cy="-661.75" rx="91.31" ry="18"/>
<text text-anchor="middle" x="472" y="-658.95" font-family="Monospace" font-size="11.00">_Exit(int exit_code)</text>
</g>
<!-- END -->
<g id="node28" class="node">
<title>END</title>
<ellipse fill="none" stroke="black" cx="1012" cy="-26.25" rx="22.46" ry="22.46"/>
<ellipse fill="none" stroke="black" cx="1012" cy="-26.25" rx="26.5" ry="26.5"/>
<text text-anchor="middle" x="1012" y="-23.45" font-family="Monospace" font-size="11.00">END</text>
</g>
<!-- _Exit&#45;&gt;END -->
<g id="edge6" class="edge">
<title>_Exit&#45;&gt;END</title>
<path fill="none" stroke="black" d="M501.99,-644.72C523.61,-630.75 549,-608.28 549,-579.75 549,-579.75 549,-579.75 549,-110.5 549,-67.23 866.35,-38.54 975.58,-29.95"/>
<polygon fill="black" stroke="black" points="976.08,-33.42 985.78,-29.16 975.54,-26.45 976.08,-33.42"/>
</g>
<!-- atexit_func -->
<g id="node2" class="node">
<title>atexit_func</title>
<ellipse fill="none" stroke="black" cx="352" cy="-480.13" rx="83.38" ry="22.76"/>
<text text-anchor="middle" x="352" y="-483.33" font-family="Monospace" font-size="11.00">User&#45;specified</text>
<text text-anchor="middle" x="352" y="-471.33" font-family="Monospace" font-size="11.00">exit handler(s)</text>
</g>
<!-- atexit_func&#45;&gt;atexit_func -->
<g id="edge14" class="edge">
<title>atexit_func&#45;&gt;atexit_func</title>
<path fill="none" stroke="black" d="M430.26,-488.21C443.93,-487.13 453.44,-484.44 453.44,-480.13 453.44,-476.99 448.42,-474.71 440.43,-473.29"/>
<polygon fill="black" stroke="black" points="440.61,-469.78 430.26,-472.04 439.76,-476.73 440.61,-469.78"/>
<text text-anchor="middle" x="487.44" y="-483.33" font-family="Monospace" font-size="11.00">in reverse</text>
<text text-anchor="middle" x="487.44" y="-471.33" font-family="Monospace" font-size="11.00">order</text>
</g>
<!-- terminate -->
<g id="node5" class="node">
<title>terminate</title>
<ellipse fill="lightgrey" stroke="black" cx="853" cy="-367.5" rx="75.33" ry="18"/>
<text text-anchor="middle" x="853" y="-364.7" font-family="Monospace" font-size="11.00">std::terminate()</text>
</g>
<!-- atexit_func&#45;&gt;terminate -->
<g id="edge15" class="edge">
<title>atexit_func&#45;&gt;terminate</title>
<path fill="none" stroke="black" d="M397.21,-461.04C443.2,-443.43 516.92,-417.36 583,-403.5 663.85,-386.55 686.28,-397.61 768,-385.5 774.8,-384.49 781.88,-383.3 788.93,-382.03"/>
<polygon fill="black" stroke="black" points="790,-385.39 799.18,-380.11 788.71,-378.51 790,-385.39"/>
<text text-anchor="middle" x="630.5" y="-418.7" font-family="Monospace" font-size="11.00">if func throws</text>
</g>
<!-- atexit_func&#45;&gt;END -->
<g id="edge16" class="edge">
<title>atexit_func&#45;&gt;END</title>
<path fill="none" stroke="darkorange" stroke-width="2" d="M371.97,-458.14C389.76,-437.17 413,-403.15 413,-368.5 413,-368.5 413,-368.5 413,-110.5 413,-53.44 844.94,-33.26 975.23,-28.47"/>
<polygon fill="darkorange" stroke="darkorange" stroke-width="2" points="975.62,-31.95 985.49,-28.1 975.37,-24.96 975.62,-31.95"/>
<text text-anchor="middle" x="443.5" y="-238.7" font-family="Monospace" font-size="11.00">otherwise</text>
</g>
<!-- atexit -->
<g id="node3" class="node">
<title>atexit</title>
<ellipse fill="pink" stroke="black" cx="361" cy="-578.75" rx="62.58" ry="18"/>
<text text-anchor="middle" x="361" y="-575.95" font-family="Monospace" font-size="11.00">std::atexit()</text>
</g>
<!-- atexit&#45;&gt;atexit_func -->
<g id="edge13" class="edge">
<title>atexit&#45;&gt;atexit_func</title>
<path fill="none" stroke="pink" d="M359.39,-560.48C358.17,-547.42 356.47,-529.12 355,-513.39"/>
<polygon fill="pink" stroke="pink" points="358.45,-512.63 354.04,-503 351.48,-513.28 358.45,-512.63"/>
<text text-anchor="middle" x="386.5" y="-523.95" font-family="Monospace" font-size="11.00" fill="hotpink">registers</text>
</g>
<!-- set_terminate -->
<g id="node4" class="node">
<title>set_terminate</title>
<ellipse fill="pink" stroke="black" cx="668" cy="-367.5" rx="91.31" ry="18"/>
<text text-anchor="middle" x="668" y="-364.7" font-family="Monospace" font-size="11.00">std::set_terminate()</text>
</g>
<!-- terminate_handler -->
<g id="node6" class="node">
<title>terminate_handler</title>
<ellipse fill="none" stroke="black" cx="855" cy="-283.5" rx="87.39" ry="18"/>
<text text-anchor="middle" x="855" y="-280.7" font-family="Monospace" font-size="11.00">terminate_handler()</text>
</g>
<!-- set_terminate&#45;&gt;terminate_handler -->
<g id="edge28" class="edge">
<title>set_terminate&#45;&gt;terminate_handler</title>
<path fill="none" stroke="pink" d="M703.61,-350.88C733.9,-337.6 777.54,-318.46 810.19,-304.15"/>
<polygon fill="pink" stroke="pink" points="811.77,-307.28 819.52,-300.06 808.96,-300.87 811.77,-307.28"/>
<text text-anchor="middle" x="786" y="-322.7" font-family="Monospace" font-size="11.00" fill="hotpink">sets</text>
</g>
<!-- terminate&#45;&gt;terminate_handler -->
<g id="edge25" class="edge">
<title>terminate&#45;&gt;terminate_handler</title>
<path fill="none" stroke="black" d="M853.42,-349.11C853.69,-338.27 854.03,-324.1 854.33,-311.79"/>
<polygon fill="black" stroke="black" points="857.84,-311.67 854.58,-301.58 850.84,-311.49 857.84,-311.67"/>
</g>
<!-- user_terminate_handler -->
<g id="node8" class="node">
<title>user_terminate_handler</title>
<path fill="none" stroke="black" d="M911.5,-129.5C911.5,-129.5 804.5,-129.5 804.5,-129.5 798.5,-129.5 792.5,-123.5 792.5,-117.5 792.5,-117.5 792.5,-105.5 792.5,-105.5 792.5,-99.5 798.5,-93.5 804.5,-93.5 804.5,-93.5 911.5,-93.5 911.5,-93.5 917.5,-93.5 923.5,-99.5 923.5,-105.5 923.5,-105.5 923.5,-117.5 923.5,-117.5 923.5,-123.5 917.5,-129.5 911.5,-129.5"/>
<text text-anchor="middle" x="858" y="-114.7" font-family="Monospace" font-size="11.00">User&#45;Specified</text>
<text text-anchor="middle" x="858" y="-102.7" font-family="Monospace" font-size="11.00">Terminate Handler</text>
</g>
<!-- terminate_handler&#45;&gt;user_terminate_handler -->
<g id="edge27" class="edge">
<title>terminate_handler&#45;&gt;user_terminate_handler</title>
<path fill="none" stroke="black" stroke-dasharray="1,5" d="M855.3,-265.26C855.83,-235.66 856.9,-174.93 857.52,-139.61"/>
<polygon fill="black" stroke="black" points="861.02,-139.59 857.7,-129.53 854.02,-139.46 861.02,-139.59"/>
<text text-anchor="middle" x="913.5" y="-196.7" font-family="Monospace" font-size="11.00">if user&#45;specified</text>
</g>
<!-- abort -->
<g id="node21" class="node">
<title>abort</title>
<ellipse fill="lightgrey" stroke="black" cx="1109" cy="-199.5" rx="58.86" ry="18"/>
<text text-anchor="middle" x="1109" y="-196.7" font-family="Monospace" font-size="11.00">std::abort()</text>
</g>
<!-- terminate_handler&#45;&gt;abort -->
<g id="edge26" class="edge">
<title>terminate_handler&#45;&gt;abort</title>
<path fill="none" stroke="black" d="M899.83,-268.03C944.9,-253.48 1014.17,-231.11 1060.51,-216.15"/>
<polygon fill="black" stroke="black" points="1061.59,-219.48 1070.03,-213.08 1059.44,-212.82 1061.59,-219.48"/>
</g>
<!-- terminateCause -->
<g id="node7" class="node">
<title>terminateCause</title>
<path fill="none" stroke="black" d="M851.5,-1027.23C851.5,-1027.23 696.5,-1027.23 696.5,-1027.23 690.5,-1027.23 684.5,-1021.23 684.5,-1015.23 684.5,-1015.23 684.5,-872.23 684.5,-872.23 684.5,-866.23 690.5,-860.23 696.5,-860.23 696.5,-860.23 851.5,-860.23 851.5,-860.23 857.5,-860.23 863.5,-866.23 863.5,-872.23 863.5,-872.23 863.5,-1015.23 863.5,-1015.23 863.5,-1021.23 857.5,-1027.23 851.5,-1027.23"/>
<text text-anchor="middle" x="774" y="-1014.43" font-family="Monospace" font-size="11.00">An exception is thrown</text>
<text text-anchor="middle" x="774" y="-1002.43" font-family="Monospace" font-size="11.00">and not caught;</text>
<text text-anchor="middle" x="774" y="-977.43" font-family="Monospace" font-size="11.00">A noexcept specification</text>
<text text-anchor="middle" x="774" y="-965.43" font-family="Monospace" font-size="11.00">is violated;</text>
<text text-anchor="middle" x="774" y="-940.43" font-family="Monospace" font-size="11.00">Uncaught exception</text>
<text text-anchor="middle" x="774" y="-928.43" font-family="Monospace" font-size="11.00">during the execution</text>
<text text-anchor="middle" x="774" y="-916.43" font-family="Monospace" font-size="11.00">of a parallel</text>
<text text-anchor="middle" x="774" y="-904.43" font-family="Monospace" font-size="11.00">algorithm element</text>
<text text-anchor="middle" x="774" y="-892.43" font-family="Monospace" font-size="11.00">access [C++17];</text>
<text text-anchor="middle" x="774" y="-867.43" font-family="Monospace" font-size="11.00">...</text>
</g>
<!-- terminateCause&#45;&gt;terminate -->
<g id="edge29" class="edge">
<title>terminateCause&#45;&gt;terminate</title>
<path fill="none" stroke="black" d="M798.56,-859.81C807.29,-823.5 815,-780.17 815,-740.38 815,-740.38 815,-740.38 815,-479.13 815,-448.88 827.87,-416.37 838.62,-394.48"/>
<polygon fill="black" stroke="black" points="841.78,-396 843.21,-385.5 835.55,-392.81 841.78,-396"/>
</g>
<!-- user_terminate_handler&#45;&gt;END -->
<g id="edge30" class="edge">
<title>user_terminate_handler&#45;&gt;END</title>
<path fill="none" stroke="black" stroke-dasharray="5,2" d="M889.54,-93.45C915.98,-79.15 953.58,-58.83 980.13,-44.48"/>
<polygon fill="black" stroke="black" points="981.88,-47.51 989.02,-39.67 978.56,-41.35 981.88,-47.51"/>
</g>
<!-- mainReturn -->
<g id="node9" class="node">
<title>mainReturn</title>
<path fill="none" stroke="black" d="M144.5,-972.23C144.5,-972.23 23.5,-972.23 23.5,-972.23 17.5,-972.23 11.5,-966.23 11.5,-960.23 11.5,-960.23 11.5,-927.23 11.5,-927.23 11.5,-921.23 17.5,-915.23 23.5,-915.23 23.5,-915.23 144.5,-915.23 144.5,-915.23 150.5,-915.23 156.5,-921.23 156.5,-927.23 156.5,-927.23 156.5,-960.23 156.5,-960.23 156.5,-966.23 150.5,-972.23 144.5,-972.23"/>
<text text-anchor="middle" x="84" y="-959.43" font-family="Monospace" font-size="11.00">return from main();</text>
<text text-anchor="middle" x="84" y="-934.43" font-family="Monospace" font-size="11.00">the return value</text>
<text text-anchor="middle" x="84" y="-922.43" font-family="Monospace" font-size="11.00">is the exit_code</text>
</g>
<!-- destroyLocal -->
<g id="node11" class="node">
<title>destroyLocal</title>
<polygon fill="none" stroke="black" points="158,-757.38 0,-757.38 0,-721.38 158,-721.38 158,-757.38"/>
<text text-anchor="middle" x="79" y="-742.58" font-family="Monospace" font-size="11.00">Destroy local objects</text>
<text text-anchor="middle" x="79" y="-730.58" font-family="Monospace" font-size="11.00">and unwind stack.</text>
</g>
<!-- mainReturn&#45;&gt;destroyLocal -->
<g id="edge8" class="edge">
<title>mainReturn&#45;&gt;destroyLocal</title>
<path fill="none" stroke="darkorange" stroke-width="2" d="M83.32,-915.02C82.36,-876.31 80.63,-806.45 79.68,-767.86"/>
<polygon fill="darkorange" stroke="darkorange" stroke-width="2" points="83.17,-767.31 79.42,-757.4 76.17,-767.49 83.17,-767.31"/>
</g>
<!-- Cleanup -->
<g id="node10" class="node">
<title>Cleanup</title>
<polygon fill="none" stroke="black" points="280,-606.75 74,-606.75 74,-550.75 280,-550.75 280,-606.75"/>
<text text-anchor="middle" x="177" y="-593.95" font-family="Monospace" font-size="11.00">Normal Program Termination:</text>
<text text-anchor="middle" x="177" y="-581.95" font-family="Monospace" font-size="11.00">destroys all static objects;</text>
<text text-anchor="middle" x="177" y="-569.95" font-family="Monospace" font-size="11.00"> flushes all buffers;</text>
<text text-anchor="middle" x="177" y="-557.95" font-family="Monospace" font-size="11.00"> closes all I/O channels</text>
</g>
<!-- Cleanup&#45;&gt;atexit_func -->
<g id="edge12" class="edge">
<title>Cleanup&#45;&gt;atexit_func</title>
<path fill="none" stroke="darkorange" stroke-width="2" d="M226.21,-550.58C251.78,-536.46 282.79,-519.34 307.62,-505.63"/>
<polygon fill="darkorange" stroke="darkorange" stroke-width="2" points="309.4,-508.65 316.46,-500.75 306.02,-502.52 309.4,-508.65"/>
</g>
<!-- exit -->
<g id="node12" class="node">
<title>exit</title>
<ellipse fill="lightgrey" stroke="black" cx="177" cy="-661.75" rx="107.78" ry="18"/>
<text text-anchor="middle" x="177" y="-658.95" font-family="Monospace" font-size="11.00">std::exit(int exit_code)</text>
</g>
<!-- destroyLocal&#45;&gt;exit -->
<g id="edge9" class="edge">
<title>destroyLocal&#45;&gt;exit</title>
<path fill="none" stroke="darkorange" stroke-width="2" d="M101.24,-721.22C114.74,-710.8 132.15,-697.36 146.88,-686"/>
<polygon fill="darkorange" stroke="darkorange" stroke-width="2" points="149.41,-688.47 155.19,-679.59 145.13,-682.93 149.41,-688.47"/>
</g>
<!-- exit&#45;&gt;Cleanup -->
<g id="edge11" class="edge">
<title>exit&#45;&gt;Cleanup</title>
<path fill="none" stroke="darkorange" stroke-width="2" d="M177,-643.58C177,-635.82 177,-626.32 177,-617.05"/>
<polygon fill="darkorange" stroke="darkorange" stroke-width="2" points="180.5,-616.79 177,-606.79 173.5,-616.79 180.5,-616.79"/>
</g>
<!-- quick_exit -->
<g id="node13" class="node">
<title>quick_exit</title>
<ellipse fill="lightgrey" stroke="black" cx="588" cy="-943.73" rx="78.55" ry="18"/>
<text text-anchor="middle" x="588" y="-940.93" font-family="Monospace" font-size="11.00">std::quick_exit()</text>
</g>
<!-- at_quick_exit_func -->
<g id="node14" class="node">
<title>at_quick_exit_func</title>
<ellipse fill="none" stroke="black" cx="582" cy="-739.38" rx="111.95" ry="22.76"/>
<text text-anchor="middle" x="582" y="-742.58" font-family="Monospace" font-size="11.00">User&#45;specified</text>
<text text-anchor="middle" x="582" y="-730.58" font-family="Monospace" font-size="11.00">quick_exit handler(s)</text>
</g>
<!-- quick_exit&#45;&gt;at_quick_exit_func -->
<g id="edge19" class="edge">
<title>quick_exit&#45;&gt;at_quick_exit_func</title>
<path fill="none" stroke="black" d="M587.49,-925.48C586.48,-891.49 584.22,-815.4 582.94,-772.1"/>
<polygon fill="black" stroke="black" points="586.44,-772 582.64,-762.11 579.44,-772.2 586.44,-772"/>
</g>
<!-- at_quick_exit_func&#45;&gt;_Exit -->
<g id="edge22" class="edge">
<title>at_quick_exit_func&#45;&gt;_Exit</title>
<path fill="none" stroke="black" d="M551.65,-717.52C536.98,-707.43 519.36,-695.31 504.42,-685.04"/>
<polygon fill="black" stroke="black" points="506.2,-682.02 495.98,-679.24 502.24,-687.79 506.2,-682.02"/>
</g>
<!-- at_quick_exit_func&#45;&gt;terminate -->
<g id="edge21" class="edge">
<title>at_quick_exit_func&#45;&gt;terminate</title>
<path fill="none" stroke="black" d="M642.79,-720.28C668.23,-708.61 692,-690.33 692,-662.75 692,-662.75 692,-662.75 692,-479.13 692,-428.63 746.47,-399.44 792.05,-383.87"/>
<polygon fill="black" stroke="black" points="793.19,-387.18 801.62,-380.75 791.02,-380.52 793.19,-387.18"/>
<text text-anchor="middle" x="739.5" y="-575.95" font-family="Monospace" font-size="11.00">if func throws</text>
</g>
<!-- at_quick_exit_func&#45;&gt;at_quick_exit_func -->
<g id="edge20" class="edge">
<title>at_quick_exit_func&#45;&gt;at_quick_exit_func</title>
<path fill="none" stroke="black" d="M689.37,-745.91C702.85,-744.76 711.72,-742.58 711.72,-739.38 711.72,-737.08 707.14,-735.31 699.55,-734.06"/>
<polygon fill="black" stroke="black" points="699.71,-730.56 689.37,-732.85 698.88,-737.51 699.71,-730.56"/>
<text text-anchor="middle" x="745.72" y="-742.58" font-family="Monospace" font-size="11.00">in reverse</text>
<text text-anchor="middle" x="745.72" y="-730.58" font-family="Monospace" font-size="11.00">order</text>
</g>
<!-- at_quick_exit -->
<g id="node15" class="node">
<title>at_quick_exit</title>
<ellipse fill="pink" stroke="black" cx="400" cy="-943.73" rx="91.31" ry="18"/>
<text text-anchor="middle" x="400" y="-940.93" font-family="Monospace" font-size="11.00">std::at_quick_exit()</text>
</g>
<!-- at_quick_exit&#45;&gt;at_quick_exit_func -->
<g id="edge18" class="edge">
<title>at_quick_exit&#45;&gt;at_quick_exit_func</title>
<path fill="none" stroke="pink" d="M411.81,-925.67C439.09,-886.39 505.09,-792.01 518,-780.01 523.26,-775.12 529.22,-770.5 535.33,-766.26"/>
<polygon fill="pink" stroke="pink" points="537.29,-769.16 543.7,-760.72 533.43,-763.32 537.29,-769.16"/>
<text text-anchor="middle" x="548.5" y="-808.32" font-family="Monospace" font-size="11.00" fill="hotpink">registers</text>
</g>
<!-- unexpected -->
<g id="node16" class="node">
<title>unexpected</title>
<ellipse fill="#f5f5f5" stroke="gray" cx="1077" cy="-739.38" rx="97.66" ry="22.76"/>
<text text-anchor="middle" x="1077" y="-742.58" font-family="Monospace" font-size="11.00" fill="#424242">std::unexpected()</text>
<text text-anchor="middle" x="1077" y="-730.58" font-family="Monospace" font-size="11.00" fill="#424242">[REMOVED IN C++17]</text>
</g>
<!-- unexpected_handler -->
<g id="node17" class="node">
<title>unexpected_handler</title>
<ellipse fill="none" stroke="gray" cx="1018" cy="-480.13" rx="130.63" ry="22.76"/>
<text text-anchor="middle" x="1018" y="-483.33" font-family="Monospace" font-size="11.00" fill="#424242">std::unexpected_handler()</text>
<text text-anchor="middle" x="1018" y="-471.33" font-family="Monospace" font-size="11.00" fill="#424242">[REMOVED IN C++17&#39;]</text>
</g>
<!-- unexpected&#45;&gt;unexpected_handler -->
<g id="edge36" class="edge">
<title>unexpected&#45;&gt;unexpected_handler</title>
<path fill="none" stroke="#c2c2c2" d="M1089.76,-716.89C1109.46,-680.68 1142.21,-606.06 1114,-550.75 1104.68,-532.48 1088.07,-517.88 1071.26,-506.87"/>
<polygon fill="#c2c2c2" stroke="#c2c2c2" points="1072.84,-503.73 1062.49,-501.44 1069.15,-509.68 1072.84,-503.73"/>
</g>
<!-- unexpected_handler&#45;&gt;terminate -->
<g id="edge37" class="edge">
<title>unexpected_handler&#45;&gt;terminate</title>
<path fill="none" stroke="#c2c2c2" d="M929.66,-463.42C914.26,-457.75 899.26,-450.02 887,-439.5 879.76,-433.29 870.3,-412.74 863.2,-395.33"/>
<polygon fill="#c2c2c2" stroke="#c2c2c2" points="866.28,-393.58 859.33,-385.58 859.77,-396.17 866.28,-393.58"/>
<text text-anchor="middle" x="948" y="-430.7" font-family="Monospace" font-size="11.00" fill="#424242">default or if</text>
<text text-anchor="middle" x="948" y="-418.7" font-family="Monospace" font-size="11.00" fill="#424242">unexpected_handler</text>
<text text-anchor="middle" x="948" y="-406.7" font-family="Monospace" font-size="11.00" fill="#424242">throws</text>
</g>
<!-- user_unexpected_handler -->
<g id="node19" class="node">
<title>user_unexpected_handler</title>
<path fill="none" stroke="gray" d="M1069,-133.5C1069,-133.5 955,-133.5 955,-133.5 949,-133.5 943,-127.5 943,-121.5 943,-121.5 943,-101.5 943,-101.5 943,-95.5 949,-89.5 955,-89.5 955,-89.5 1069,-89.5 1069,-89.5 1075,-89.5 1081,-95.5 1081,-101.5 1081,-101.5 1081,-121.5 1081,-121.5 1081,-127.5 1075,-133.5 1069,-133.5"/>
<text text-anchor="middle" x="1012" y="-120.7" font-family="Monospace" font-size="11.00" fill="#424242">User&#45;specified</text>
<text text-anchor="middle" x="1012" y="-108.7" font-family="Monospace" font-size="11.00" fill="#424242">Unexpected Handler</text>
<text text-anchor="middle" x="1012" y="-96.7" font-family="Monospace" font-size="11.00" fill="#424242">[REMOVED IN C++17]</text>
</g>
<!-- unexpected_handler&#45;&gt;user_unexpected_handler -->
<g id="edge38" class="edge">
<title>unexpected_handler&#45;&gt;user_unexpected_handler</title>
<path fill="none" stroke="#c2c2c2" stroke-dasharray="1,5" d="M1017.64,-457.29C1016.63,-395.12 1013.71,-216.96 1012.52,-144.12"/>
<polygon fill="#c2c2c2" stroke="#c2c2c2" points="1016.01,-143.7 1012.35,-133.76 1009.01,-143.82 1016.01,-143.7"/>
</g>
<!-- unexpectedCause -->
<g id="node18" class="node">
<title>unexpectedCause</title>
<path fill="none" stroke="gray" d="M1163.5,-965.73C1163.5,-965.73 1002.5,-965.73 1002.5,-965.73 996.5,-965.73 990.5,-959.73 990.5,-953.73 990.5,-953.73 990.5,-933.73 990.5,-933.73 990.5,-927.73 996.5,-921.73 1002.5,-921.73 1002.5,-921.73 1163.5,-921.73 1163.5,-921.73 1169.5,-921.73 1175.5,-927.73 1175.5,-933.73 1175.5,-933.73 1175.5,-953.73 1175.5,-953.73 1175.5,-959.73 1169.5,-965.73 1163.5,-965.73"/>
<text text-anchor="middle" x="1083" y="-952.93" font-family="Monospace" font-size="11.00" fill="#424242">A dynamic exception</text>
<text text-anchor="middle" x="1083" y="-940.93" font-family="Monospace" font-size="11.00" fill="#424242">specification is violated</text>
<text text-anchor="middle" x="1083" y="-928.93" font-family="Monospace" font-size="11.00" fill="#424242">[REMOVED IN C++17]</text>
</g>
<!-- unexpectedCause&#45;&gt;unexpected -->
<g id="edge35" class="edge">
<title>unexpectedCause&#45;&gt;unexpected</title>
<path fill="none" stroke="#c2c2c2" d="M1082.37,-921.46C1081.31,-885.9 1079.19,-814.17 1077.95,-772.45"/>
<polygon fill="#c2c2c2" stroke="#c2c2c2" points="1081.44,-772.18 1077.65,-762.29 1074.45,-772.38 1081.44,-772.18"/>
</g>
<!-- user_unexpected_handler&#45;&gt;END -->
<g id="edge40" class="edge">
<title>user_unexpected_handler&#45;&gt;END</title>
<path fill="none" stroke="#c2c2c2" stroke-dasharray="5,2" d="M1012,-89.49C1012,-81.37 1012,-71.85 1012,-62.74"/>
<polygon fill="#c2c2c2" stroke="#c2c2c2" points="1015.5,-62.71 1012,-52.71 1008.5,-62.71 1015.5,-62.71"/>
</g>
<!-- set_unexpected -->
<g id="node20" class="node">
<title>set_unexpected</title>
<ellipse fill="lightpink" stroke="gray" cx="993" cy="-578.75" rx="111.95" ry="22.76"/>
<text text-anchor="middle" x="993" y="-581.95" font-family="Monospace" font-size="11.00" fill="#424242">std::set_unexpected()</text>
<text text-anchor="middle" x="993" y="-569.95" font-family="Monospace" font-size="11.00" fill="#424242">[REMOVED IN C++17]</text>
</g>
<!-- set_unexpected&#45;&gt;unexpected_handler -->
<g id="edge39" class="edge">
<title>set_unexpected&#45;&gt;unexpected_handler</title>
<path fill="none" stroke="pink" d="M998.67,-555.83C1001.97,-543.1 1006.17,-526.85 1009.81,-512.76"/>
<polygon fill="pink" stroke="pink" points="1013.23,-513.52 1012.35,-502.97 1006.46,-511.77 1013.23,-513.52"/>
<text text-anchor="middle" x="1021" y="-523.95" font-family="Monospace" font-size="11.00" fill="hotpink">sets</text>
</g>
<!-- user_signal_handler -->
<g id="node24" class="node">
<title>user_signal_handler</title>
<path fill="none" stroke="black" d="M1281.5,-133.5C1281.5,-133.5 1194.5,-133.5 1194.5,-133.5 1188.5,-133.5 1182.5,-127.5 1182.5,-121.5 1182.5,-121.5 1182.5,-101.5 1182.5,-101.5 1182.5,-95.5 1188.5,-89.5 1194.5,-89.5 1194.5,-89.5 1281.5,-89.5 1281.5,-89.5 1287.5,-89.5 1293.5,-95.5 1293.5,-101.5 1293.5,-101.5 1293.5,-121.5 1293.5,-121.5 1293.5,-127.5 1287.5,-133.5 1281.5,-133.5"/>
<text text-anchor="middle" x="1238" y="-120.7" font-family="Monospace" font-size="11.00">User&#45;specified</text>
<text text-anchor="middle" x="1238" y="-108.7" font-family="Monospace" font-size="11.00">signal handler</text>
<text text-anchor="middle" x="1238" y="-96.7" font-family="Monospace" font-size="11.00">for SIGABRT</text>
</g>
<!-- abort&#45;&gt;user_signal_handler -->
<g id="edge44" class="edge">
<title>abort&#45;&gt;user_signal_handler</title>
<path fill="none" stroke="black" stroke-dasharray="1,5" d="M1116.97,-181.38C1122.3,-171.52 1130.15,-159.52 1140,-151.5 1149.75,-143.56 1161.32,-137.08 1173.03,-131.84"/>
<polygon fill="black" stroke="black" points="1174.55,-135 1182.42,-127.9 1171.84,-128.54 1174.55,-135"/>
<text text-anchor="middle" x="1197.5" y="-154.7" font-family="Monospace" font-size="11.00">if user&#45;specified</text>
</g>
<!-- abort&#45;&gt;END -->
<g id="edge32" class="edge">
<title>abort&#45;&gt;END</title>
<path fill="none" stroke="black" d="M1109.64,-181.35C1109.72,-158.74 1107.14,-118.42 1090,-89.5 1078.97,-70.89 1060.14,-55.62 1043.75,-44.86"/>
<polygon fill="black" stroke="black" points="1045.29,-41.7 1034.95,-39.36 1041.57,-47.63 1045.29,-41.7"/>
</g>
<!-- raise -->
<g id="node22" class="node">
<title>raise</title>
<ellipse fill="lightgrey" stroke="black" cx="1273" cy="-199.5" rx="87.39" ry="18"/>
<text text-anchor="middle" x="1273" y="-196.7" font-family="Monospace" font-size="11.00">std::raise(SIGABRT)</text>
</g>
<!-- raise&#45;&gt;user_signal_handler -->
<g id="edge42" class="edge">
<title>raise&#45;&gt;user_signal_handler</title>
<path fill="none" stroke="black" d="M1268.77,-181.24C1266.33,-172.22 1262.97,-161.1 1259,-151.5 1257.81,-148.61 1256.46,-145.65 1255.04,-142.72"/>
<polygon fill="black" stroke="black" points="1258.03,-140.88 1250.36,-133.57 1251.8,-144.07 1258.03,-140.88"/>
</g>
<!-- signal -->
<g id="node23" class="node">
<title>signal</title>
<ellipse fill="pink" stroke="black" cx="1470" cy="-199.5" rx="91.31" ry="18"/>
<text text-anchor="middle" x="1470" y="-196.7" font-family="Monospace" font-size="11.00">std::signal(SIGABRT)</text>
</g>
<!-- signal&#45;&gt;user_signal_handler -->
<g id="edge43" class="edge">
<title>signal&#45;&gt;user_signal_handler</title>
<path fill="none" stroke="pink" d="M1429.06,-183.32C1394.25,-170.42 1343.65,-151.66 1303.27,-136.69"/>
<polygon fill="pink" stroke="pink" points="1304.36,-133.36 1293.76,-133.17 1301.92,-139.93 1304.36,-133.36"/>
<text text-anchor="middle" x="1388" y="-154.7" font-family="Monospace" font-size="11.00" fill="hotpink">sets</text>
</g>
<!-- user_signal_handler&#45;&gt;END -->
<g id="edge45" class="edge">
<title>user_signal_handler&#45;&gt;END</title>
<path fill="none" stroke="black" stroke-dasharray="5,2" d="M1182.42,-90.03C1139.78,-74.32 1082.26,-53.13 1046.16,-39.83"/>
<polygon fill="black" stroke="black" points="1047.17,-36.47 1036.57,-36.3 1044.75,-43.04 1047.17,-36.47"/>
</g>
<!-- _exit -->
<g id="node25" class="node">
<title>_exit</title>
<ellipse fill="#f0f0f0" stroke="gray" cx="375" cy="-811.12" rx="92.76" ry="31.23"/>
<text text-anchor="middle" x="375" y="-820.32" font-family="Monospace" font-size="11.00" fill="#707070">_exit(int status)</text>
<text text-anchor="middle" x="375" y="-808.32" font-family="Monospace" font-size="11.00" fill="#707070">[POSIX&#45;specific,</text>
<text text-anchor="middle" x="375" y="-796.32" font-family="Monospace" font-size="11.00" fill="#707070">same as _Exit()]</text>
</g>
<!-- _exit&#45;&gt;_Exit -->
<g id="edge5" class="edge">
<title>_exit&#45;&gt;_Exit</title>
<path fill="none" stroke="gray" d="M375.07,-779.75C376.43,-760.33 380.77,-735.39 393,-716.75 401.82,-703.31 415.27,-692.31 428.58,-683.83"/>
<polygon fill="gray" stroke="gray" points="430.49,-686.77 437.26,-678.62 426.88,-680.77 430.49,-686.77"/>
<text text-anchor="middle" x="427" y="-736.58" font-family="Monospace" font-size="11.00" fill="#707070">is same as</text>
</g>
<!-- __fastfail -->
<g id="node26" class="node">
<title>__fastfail</title>
<ellipse fill="#f0f0f0" stroke="gray" cx="1522" cy="-739.38" rx="121.74" ry="22.76"/>
<text text-anchor="middle" x="1522" y="-742.58" font-family="Monospace" font-size="11.00" fill="#707070">__fastfail(FAST_FAIL_*)</text>
<text text-anchor="middle" x="1522" y="-730.58" font-family="Monospace" font-size="11.00" fill="#707070">[Microsoft&#45;specific]</text>
</g>
<!-- __fastfail&#45;&gt;END -->
<g id="edge4" class="edge">
<title>__fastfail&#45;&gt;END</title>
<path fill="none" stroke="gray" d="M1555.5,-717.41C1572.25,-704.11 1589,-685.21 1589,-662.75 1589,-662.75 1589,-662.75 1589,-110.5 1589,-55.67 1175.62,-34.02 1048.65,-28.66"/>
<polygon fill="gray" stroke="gray" points="1048.43,-25.15 1038.29,-28.23 1048.14,-32.14 1048.43,-25.15"/>
</g>
<!-- PROGRAM -->
<g id="node27" class="node">
<title>PROGRAM</title>
<ellipse fill="none" stroke="black" cx="862" cy="-1125.72" rx="38.47" ry="38.47"/>
<text text-anchor="middle" x="862" y="-1122.92" font-family="Monospace" font-size="11.00">PROGRAM</text>
</g>
<!-- PROGRAM&#45;&gt;_Exit -->
<g id="edge2" class="edge">
<title>PROGRAM&#45;&gt;_Exit</title>
<path fill="none" stroke="black" d="M823.19,-1123.48C715,-1119.58 411.9,-1105.63 320,-1069.23 291.4,-1057.91 280.53,-1053.78 265,-1027.23 237.12,-979.55 210.02,-827.04 239,-780.01 273.91,-723.36 345.5,-693.12 400.16,-677.62"/>
<polygon fill="black" stroke="black" points="401.09,-681 409.81,-674.99 399.25,-674.25 401.09,-681"/>
<text text-anchor="middle" x="256" y="-808.32" font-family="Monospace" font-size="11.00">calls</text>
</g>
<!-- PROGRAM&#45;&gt;terminate -->
<g id="edge24" class="edge">
<title>PROGRAM&#45;&gt;terminate</title>
<path fill="none" stroke="black" d="M867.22,-1087.31C869.49,-1069.2 871.88,-1047.13 873,-1027.23 886.77,-782.41 863.47,-485.84 855.51,-395.74"/>
<polygon fill="black" stroke="black" points="858.98,-395.21 854.6,-385.56 852.01,-395.83 858.98,-395.21"/>
<text text-anchor="middle" x="890" y="-658.95" font-family="Monospace" font-size="11.00">calls</text>
</g>
<!-- PROGRAM&#45;&gt;terminateCause -->
<g id="edge23" class="edge">
<title>PROGRAM&#45;&gt;terminateCause</title>
<path fill="none" stroke="black" d="M845.45,-1090.87C837.84,-1075.31 828.41,-1056.02 818.92,-1036.61"/>
<polygon fill="black" stroke="black" points="821.95,-1034.85 814.42,-1027.4 815.67,-1037.92 821.95,-1034.85"/>
</g>
<!-- PROGRAM&#45;&gt;mainReturn -->
<g id="edge7" class="edge">
<title>PROGRAM&#45;&gt;mainReturn</title>
<path fill="none" stroke="darkorange" stroke-width="2" d="M823.26,-1123.51C686.09,-1118.98 228.71,-1101.55 172,-1069.23 137.66,-1049.67 113.43,-1010.56 99.21,-981.37"/>
<polygon fill="darkorange" stroke="darkorange" stroke-width="2" points="102.36,-979.85 94.95,-972.28 96.03,-982.82 102.36,-979.85"/>
</g>
<!-- PROGRAM&#45;&gt;exit -->
<g id="edge10" class="edge">
<title>PROGRAM&#45;&gt;exit</title>
<path fill="none" stroke="black" d="M823.15,-1124.01C708.6,-1121.44 373.99,-1110.51 274,-1069.23 174.42,-1028.13 202.35,-949.13 189,-842.23 182.31,-788.69 179.19,-725.65 177.86,-690.34"/>
<polygon fill="black" stroke="black" points="181.34,-689.76 177.49,-679.89 174.35,-690.01 181.34,-689.76"/>
<text text-anchor="middle" x="206" y="-808.32" font-family="Monospace" font-size="11.00">calls</text>
</g>
<!-- PROGRAM&#45;&gt;quick_exit -->
<g id="edge17" class="edge">
<title>PROGRAM&#45;&gt;quick_exit</title>
<path fill="none" stroke="black" d="M826.79,-1109.73C788.13,-1092.51 725.03,-1062.09 676,-1027.23 651.87,-1010.08 627.56,-986.72 610.62,-969.23"/>
<polygon fill="black" stroke="black" points="612.82,-966.47 603.39,-961.66 607.76,-971.31 612.82,-966.47"/>
<text text-anchor="middle" x="756" y="-1054.43" font-family="Monospace" font-size="11.00">calls</text>
</g>
<!-- PROGRAM&#45;&gt;unexpected -->
<g id="edge34" class="edge">
<title>PROGRAM&#45;&gt;unexpected</title>
<path fill="none" stroke="#c2c2c2" d="M888.09,-1097.08C894.82,-1088.67 901.45,-1079.05 906,-1069.23 945.87,-983.29 901.73,-942.91 948,-860.23 969.54,-821.75 1007.77,-788.58 1037.03,-766.95"/>
<polygon fill="#c2c2c2" stroke="#c2c2c2" points="1039.36,-769.59 1045.41,-760.89 1035.26,-763.92 1039.36,-769.59"/>
<text text-anchor="middle" x="965" y="-940.93" font-family="Monospace" font-size="11.00" fill="#424242">calls</text>
</g>
<!-- PROGRAM&#45;&gt;unexpectedCause -->
<g id="edge33" class="edge">
<title>PROGRAM&#45;&gt;unexpectedCause</title>
<path fill="none" stroke="#c2c2c2" d="M895.58,-1106.26C912.99,-1096.14 934.26,-1082.9 952,-1069.23 990.69,-1039.44 1030.76,-999.86 1056.22,-973.4"/>
<polygon fill="#c2c2c2" stroke="#c2c2c2" points="1058.94,-975.62 1063.32,-965.97 1053.88,-970.78 1058.94,-975.62"/>
</g>
<!-- PROGRAM&#45;&gt;abort -->
<g id="edge31" class="edge">
<title>PROGRAM&#45;&gt;abort</title>
<path fill="none" stroke="black" d="M900.54,-1124.91C968.49,-1123.03 1109.54,-1108.84 1185,-1027.23 1210.48,-999.68 1203,-982.26 1203,-944.73 1203,-944.73 1203,-944.73 1203,-282.5 1203,-253.47 1177.23,-232.36 1152.68,-218.83"/>
<polygon fill="black" stroke="black" points="1154.22,-215.69 1143.74,-214.19 1151,-221.91 1154.22,-215.69"/>
<text text-anchor="middle" x="1220" y="-575.95" font-family="Monospace" font-size="11.00">calls</text>
</g>
<!-- PROGRAM&#45;&gt;raise -->
<g id="edge41" class="edge">
<title>PROGRAM&#45;&gt;raise</title>
<path fill="none" stroke="black" d="M900.67,-1125.19C1002.98,-1124.23 1273,-1106.37 1273,-944.73 1273,-944.73 1273,-944.73 1273,-282.5 1273,-264.34 1273,-243.92 1273,-228"/>
<polygon fill="black" stroke="black" points="1276.5,-227.78 1273,-217.78 1269.5,-227.78 1276.5,-227.78"/>
<text text-anchor="middle" x="1290" y="-575.95" font-family="Monospace" font-size="11.00">calls</text>
</g>
<!-- PROGRAM&#45;&gt;_exit -->
<g id="edge3" class="edge">
<title>PROGRAM&#45;&gt;_exit</title>
<path fill="none" stroke="gray" d="M823.48,-1124.18C707.84,-1121.66 367.5,-1107.46 300,-1027.23 252.21,-970.44 264.4,-925.36 300,-860.23 303.52,-853.79 308.31,-848.09 313.78,-843.07"/>
<polygon fill="gray" stroke="gray" points="316.1,-845.69 321.6,-836.64 311.66,-840.28 316.1,-845.69"/>
<text text-anchor="middle" x="426.5" y="-1060.43" font-family="Monospace" font-size="11.00" fill="#707070">calls</text>
<text text-anchor="middle" x="426.5" y="-1048.43" font-family="Monospace" font-size="11.00" fill="#707070">[POSIX&#45;specific]</text>
</g>
<!-- PROGRAM&#45;&gt;__fastfail -->
<g id="edge1" class="edge">
<title>PROGRAM&#45;&gt;__fastfail</title>
<path fill="none" stroke="gray" d="M900.44,-1123.58C992.37,-1120.23 1222.14,-1108.12 1287,-1069.23 1406.36,-997.68 1481.82,-839.63 1509.76,-772.04"/>
<polygon fill="gray" stroke="gray" points="1513.17,-772.96 1513.69,-762.37 1506.69,-770.32 1513.17,-772.96"/>
<text text-anchor="middle" x="1535" y="-946.93" font-family="Monospace" font-size="11.00" fill="#707070">calls</text>
<text text-anchor="middle" x="1535" y="-934.93" font-family="Monospace" font-size="11.00" fill="#707070">[Microsoft&#45;specific]</text>
</g>
</g>
</svg>
