<?xml version="1.0" encoding="UTF-8" standalone="no"?>
<!DOCTYPE svg PUBLIC "-//W3C//DTD SVG 1.1//EN"
 "http://www.w3.org/Graphics/SVG/1.1/DTD/svg11.dtd">
<!-- Generated by graphviz version 2.28.0 (20110507.0327)
 -->
<!-- Title: g Pages: 1 -->
<svg width="1536pt" height="1114pt"
 viewBox="0.00 0.00 1536.00 1114.00" xmlns="http://www.w3.org/2000/svg" xmlns:xlink="http://www.w3.org/1999/xlink">
<g id="graph1" class="graph" transform="scale(1 1) rotate(0) translate(4 1110)">
<title>g</title>
<polygon fill="white" stroke="white" points="-4,5 -4,-1110 1533,-1110 1533,5 -4,5"/>
<!-- exit -->
<g id="node1" class="node"><title>exit</title>
<ellipse fill="lightgrey" stroke="black" cx="392" cy="-704" rx="107.459" ry="18"/>
<text text-anchor="middle" x="392" y="-701.2" font-family="Monospace" font-size="11.00">std::exit(int exit_code)</text>
</g>
<!-- Cleanup -->
<g id="node2" class="node"><title>Cleanup</title>
<polygon fill="none" stroke="black" points="516,-604 310,-604 310,-548 516,-548 516,-604"/>
<text text-anchor="middle" x="413" y="-591.2" font-family="Monospace" font-size="11.00">Normal Program Termination:</text>
<text text-anchor="middle" x="413" y="-579.2" font-family="Monospace" font-size="11.00">destroys all static objects;</text>
<text text-anchor="middle" x="413" y="-567.2" font-family="Monospace" font-size="11.00"> flushes all buffers;</text>
<text text-anchor="middle" x="413" y="-555.2" font-family="Monospace" font-size="11.00"> closes all I/O channels</text>
</g>
<!-- exit&#45;&gt;Cleanup -->
<g id="edge22" class="edge"><title>exit&#45;&gt;Cleanup</title>
<path fill="none" stroke="darkorange" stroke-width="2" d="M394.876,-685.744C397.929,-667.427 402.848,-637.915 406.791,-614.254"/>
<polygon fill="darkorange" stroke="darkorange" points="410.277,-614.629 408.468,-604.19 403.372,-613.478 410.277,-614.629"/>
</g>
<!-- atexit_func -->
<g id="node3" class="node"><title>atexit_func</title>
<ellipse fill="none" stroke="black" cx="444" cy="-458" rx="82.477" ry="18"/>
<text text-anchor="middle" x="444" y="-455.2" font-family="Monospace" font-size="11.00">std::atexit() func</text>
</g>
<!-- Cleanup&#45;&gt;atexit_func -->
<g id="edge24" class="edge"><title>Cleanup&#45;&gt;atexit_func</title>
<path fill="none" stroke="darkorange" stroke-width="2" d="M420.268,-547.803C425.228,-529.244 431.772,-504.757 436.732,-486.197"/>
<polygon fill="darkorange" stroke="darkorange" points="440.174,-486.873 439.374,-476.309 433.411,-485.066 440.174,-486.873"/>
</g>
<!-- atexit_func&#45;&gt;atexit_func -->
<g id="edge28" class="edge"><title>atexit_func&#45;&gt;atexit_func</title>
<path fill="none" stroke="black" d="M512.706,-468.021C530.547,-467.405 544,-464.064 544,-458 544,-453.167 535.457,-450.065 522.958,-448.692"/>
<polygon fill="black" stroke="black" points="522.924,-445.181 512.706,-447.979 522.439,-452.164 522.924,-445.181"/>
<text text-anchor="middle" x="574.5" y="-455.2" font-family="Monospace" font-size="11.00">next func</text>
</g>
<!-- terminate -->
<g id="node5" class="node"><title>terminate</title>
<ellipse fill="lightgrey" stroke="black" cx="900" cy="-350" rx="75.251" ry="18"/>
<text text-anchor="middle" x="900" y="-347.2" font-family="Monospace" font-size="11.00">std::terminate()</text>
</g>
<!-- atexit_func&#45;&gt;terminate -->
<g id="edge30" class="edge"><title>atexit_func&#45;&gt;terminate</title>
<path fill="none" stroke="black" d="M465.771,-440.614C489.363,-423.806 528.777,-398.418 567,-386 590.48,-378.372 729.439,-365.455 820.273,-357.628"/>
<polygon fill="black" stroke="black" points="820.613,-361.112 830.277,-356.77 820.015,-354.137 820.613,-361.112"/>
<text text-anchor="middle" x="614.5" y="-401.2" font-family="Monospace" font-size="11.00">if func throws</text>
</g>
<!-- END -->
<g id="node26" class="node"><title>END</title>
<ellipse fill="none" stroke="black" cx="1023" cy="-26" rx="22.3563" ry="22.463"/>
<ellipse fill="none" stroke="black" cx="1023" cy="-26" rx="26.3754" ry="26.5014"/>
<text text-anchor="middle" x="1023" y="-23.2" font-family="Monospace" font-size="11.00">END</text>
</g>
<!-- atexit_func&#45;&gt;END -->
<g id="edge32" class="edge"><title>atexit_func&#45;&gt;END</title>
<path fill="none" stroke="darkorange" stroke-width="2" d="M445.839,-439.765C447.913,-418.809 451,-382.353 451,-351 451,-351 451,-351 451,-107 451,-52.6815 860.8,-33.0013 986.671,-28.2376"/>
<polygon fill="darkorange" stroke="darkorange" points="987.072,-31.7253 996.936,-27.8586 986.814,-24.73 987.072,-31.7253"/>
<text text-anchor="middle" x="481.5" y="-231.2" font-family="Monospace" font-size="11.00">otherwise</text>
</g>
<!-- atexit -->
<g id="node4" class="node"><title>atexit</title>
<ellipse fill="none" stroke="black" cx="199" cy="-876" rx="62.3086" ry="18"/>
<text text-anchor="middle" x="199" y="-873.2" font-family="Monospace" font-size="11.00">std::atexit()</text>
</g>
<!-- atexit&#45;&gt;atexit_func -->
<g id="edge26" class="edge"><title>atexit&#45;&gt;atexit_func</title>
<path fill="none" stroke="black" d="M199,-857.705C199,-835.038 199,-794.042 199,-759 199,-759 199,-759 199,-575 199,-503.343 285.67,-475.89 355.912,-465.407"/>
<polygon fill="black" stroke="black" points="356.723,-468.828 366.144,-463.98 355.756,-461.895 356.723,-468.828"/>
<text text-anchor="middle" x="213" y="-701.2" font-family="Monospace" font-size="11.00">sets</text>
</g>
<!-- terminate_handler -->
<g id="node11" class="node"><title>terminate_handler</title>
<ellipse fill="none" stroke="black" cx="1018" cy="-276" rx="87.2912" ry="18"/>
<text text-anchor="middle" x="1018" y="-273.2" font-family="Monospace" font-size="11.00">terminate_handler()</text>
</g>
<!-- terminate&#45;&gt;terminate_handler -->
<g id="edge48" class="edge"><title>terminate&#45;&gt;terminate_handler</title>
<path fill="none" stroke="black" d="M926.188,-333.021C942.876,-322.838 964.699,-309.522 982.882,-298.428"/>
<polygon fill="black" stroke="black" points="984.764,-301.38 991.477,-293.183 981.118,-295.404 984.764,-301.38"/>
</g>
<!-- abort -->
<g id="node6" class="node"><title>abort</title>
<ellipse fill="lightgrey" stroke="black" cx="1121" cy="-192" rx="58.3973" ry="18"/>
<text text-anchor="middle" x="1121" y="-189.2" font-family="Monospace" font-size="11.00">std::abort()</text>
</g>
<!-- user_signal_handler -->
<g id="node23" class="node"><title>user_signal_handler</title>
<polyline fill="none" stroke="black" points="1318,-126 1150,-126 "/>
<path fill="none" stroke="black" d="M1150,-126C1144,-126 1138,-120 1138,-114"/>
<polyline fill="none" stroke="black" points="1138,-114 1138,-102 "/>
<path fill="none" stroke="black" d="M1138,-102C1138,-96 1144,-90 1150,-90"/>
<polyline fill="none" stroke="black" points="1150,-90 1318,-90 "/>
<path fill="none" stroke="black" d="M1318,-90C1324,-90 1330,-96 1330,-102"/>
<polyline fill="none" stroke="black" points="1330,-102 1330,-114 "/>
<path fill="none" stroke="black" d="M1330,-114C1330,-120 1324,-126 1318,-126"/>
<text text-anchor="middle" x="1234" y="-105.2" font-family="Monospace" font-size="11.00">User ABRT signal handler()</text>
</g>
<!-- abort&#45;&gt;user_signal_handler -->
<g id="edge78" class="edge"><title>abort&#45;&gt;user_signal_handler</title>
<path fill="none" stroke="black" d="M1136.37,-174.19C1145.58,-164.67 1157.83,-152.92 1170,-144 1176.11,-139.522 1182.86,-135.226 1189.61,-131.271"/>
<polygon fill="black" stroke="black" points="1191.78,-134.067 1198.77,-126.105 1188.34,-127.971 1191.78,-134.067"/>
<text text-anchor="middle" x="1190.5" y="-147.2" font-family="Monospace" font-size="11.00">if set</text>
</g>
<!-- abort&#45;&gt;END -->
<g id="edge34" class="edge"><title>abort&#45;&gt;END</title>
<path fill="none" stroke="black" d="M1105.55,-174.528C1094.23,-161.901 1078.98,-143.693 1068,-126 1055.14,-105.277 1043.8,-80.2605 1035.72,-60.5599"/>
<polygon fill="black" stroke="black" points="1038.89,-59.0522 1031.92,-51.0762 1032.39,-61.6603 1038.89,-59.0522"/>
<text text-anchor="middle" x="1098.5" y="-105.2" font-family="Monospace" font-size="11.00">otherwise</text>
</g>
<!-- quick_exit -->
<g id="node7" class="node"><title>quick_exit</title>
<ellipse fill="lightgrey" stroke="black" cx="1296" cy="-946" rx="78.1646" ry="18"/>
<text text-anchor="middle" x="1296" y="-943.2" font-family="Monospace" font-size="11.00">std::quick_exit()</text>
</g>
<!-- at_quick_exit_func -->
<g id="node8" class="node"><title>at_quick_exit_func</title>
<ellipse fill="none" stroke="black" cx="1161" cy="-817" rx="111.372" ry="18"/>
<text text-anchor="middle" x="1161" y="-814.2" font-family="Monospace" font-size="11.00">std::at_quick_exit() func</text>
</g>
<!-- quick_exit&#45;&gt;at_quick_exit_func -->
<g id="edge38" class="edge"><title>quick_exit&#45;&gt;at_quick_exit_func</title>
<path fill="none" stroke="black" d="M1278.35,-928.397C1254.93,-906.367 1213.43,-867.321 1186.58,-842.06"/>
<polygon fill="black" stroke="black" points="1188.77,-839.315 1179.08,-835.012 1183.97,-844.414 1188.77,-839.315"/>
</g>
<!-- at_quick_exit_func&#45;&gt;terminate -->
<g id="edge42" class="edge"><title>at_quick_exit_func&#45;&gt;terminate</title>
<path fill="none" stroke="black" d="M1157.29,-798.698C1146.26,-751.342 1109.12,-618.453 1027,-548 1007.16,-530.977 988.99,-548.969 971,-530 925.452,-481.972 965.14,-443.864 933,-386 930.947,-382.304 928.416,-378.701 925.675,-375.299"/>
<polygon fill="black" stroke="black" points="928.272,-372.952 919.028,-367.776 923.026,-377.587 928.272,-372.952"/>
<text text-anchor="middle" x="1122.5" y="-573.2" font-family="Monospace" font-size="11.00">if func throws</text>
</g>
<!-- at_quick_exit_func&#45;&gt;at_quick_exit_func -->
<g id="edge40" class="edge"><title>at_quick_exit_func&#45;&gt;at_quick_exit_func</title>
<path fill="none" stroke="black" d="M1250.23,-827.745C1272.95,-827.039 1290,-823.457 1290,-817 1290,-811.552 1277.86,-808.151 1260.42,-806.797"/>
<polygon fill="black" stroke="black" points="1260.4,-803.291 1250.23,-806.255 1260.03,-810.281 1260.4,-803.291"/>
<text text-anchor="middle" x="1320.5" y="-814.2" font-family="Monospace" font-size="11.00">next func</text>
</g>
<!-- _Exit -->
<g id="node10" class="node"><title>_Exit</title>
<ellipse fill="lightgrey" stroke="black" cx="1437" cy="-704" rx="91.1053" ry="18"/>
<text text-anchor="middle" x="1437" y="-701.2" font-family="Monospace" font-size="11.00">_Exit(int exit_code)</text>
</g>
<!-- at_quick_exit_func&#45;&gt;_Exit -->
<g id="edge44" class="edge"><title>at_quick_exit_func&#45;&gt;_Exit</title>
<path fill="none" stroke="black" d="M1169.47,-799.023C1179.29,-781.235 1197.23,-753.975 1221,-740 1242.02,-727.637 1296.3,-718.871 1345.18,-713.203"/>
<polygon fill="black" stroke="black" points="1345.65,-716.673 1355.19,-712.076 1344.86,-709.717 1345.65,-716.673"/>
</g>
<!-- at_quick_exit -->
<g id="node9" class="node"><title>at_quick_exit</title>
<ellipse fill="none" stroke="black" cx="1108" cy="-946" rx="91.1053" ry="18"/>
<text text-anchor="middle" x="1108" y="-943.2" font-family="Monospace" font-size="11.00">std::at_quick_exit()</text>
</g>
<!-- at_quick_exit&#45;&gt;at_quick_exit_func -->
<g id="edge36" class="edge"><title>at_quick_exit&#45;&gt;at_quick_exit_func</title>
<path fill="none" stroke="black" d="M1115.15,-927.872C1124.08,-906.474 1139.45,-869.628 1149.92,-844.559"/>
<polygon fill="black" stroke="black" points="1153.17,-845.839 1153.8,-835.262 1146.71,-843.143 1153.17,-845.839"/>
<text text-anchor="middle" x="1157" y="-873.2" font-family="Monospace" font-size="11.00">sets</text>
</g>
<!-- _Exit&#45;&gt;END -->
<g id="edge46" class="edge"><title>_Exit&#45;&gt;END</title>
<path fill="none" stroke="black" d="M1437,-685.881C1437,-661.643 1437,-615.938 1437,-577 1437,-577 1437,-577 1437,-107 1437,-30.3762 1160.16,-25.5732 1059.24,-26.3677"/>
<polygon fill="black" stroke="black" points="1059.18,-22.8682 1049.21,-26.4702 1059.25,-29.8678 1059.18,-22.8682"/>
</g>
<!-- terminate_handler&#45;&gt;abort -->
<g id="edge50" class="edge"><title>terminate_handler&#45;&gt;abort</title>
<path fill="none" stroke="black" d="M1038.84,-258.406C1054.4,-246.019 1075.83,-228.959 1092.9,-215.369"/>
<polygon fill="black" stroke="black" points="1095.24,-217.978 1100.89,-209.011 1090.88,-212.501 1095.24,-217.978"/>
<text text-anchor="middle" x="1099" y="-231.2" font-family="Monospace" font-size="11.00">Default</text>
</g>
<!-- user_terminate_handler -->
<g id="node20" class="node"><title>user_terminate_handler</title>
<polyline fill="none" stroke="black" points="1010.25,-126 869.75,-126 "/>
<path fill="none" stroke="black" d="M869.75,-126C863.75,-126 857.75,-120 857.75,-114"/>
<polyline fill="none" stroke="black" points="857.75,-114 857.75,-102 "/>
<path fill="none" stroke="black" d="M857.75,-102C857.75,-96 863.75,-90 869.75,-90"/>
<polyline fill="none" stroke="black" points="869.75,-90 1010.25,-90 "/>
<path fill="none" stroke="black" d="M1010.25,-90C1016.25,-90 1022.25,-96 1022.25,-102"/>
<polyline fill="none" stroke="black" points="1022.25,-102 1022.25,-114 "/>
<path fill="none" stroke="black" d="M1022.25,-114C1022.25,-120 1016.25,-126 1010.25,-126"/>
<text text-anchor="middle" x="940" y="-105.2" font-family="Monospace" font-size="11.00">User Terminate Handler</text>
</g>
<!-- terminate_handler&#45;&gt;user_terminate_handler -->
<g id="edge52" class="edge"><title>terminate_handler&#45;&gt;user_terminate_handler</title>
<path fill="none" stroke="black" d="M1009.95,-257.86C996.343,-228.909 968.719,-170.119 952.554,-135.718"/>
<polygon fill="black" stroke="black" points="955.547,-133.857 948.127,-126.295 949.212,-136.834 955.547,-133.857"/>
<text text-anchor="middle" x="1016.5" y="-189.2" font-family="Monospace" font-size="11.00">otherwise</text>
</g>
<!-- mainReturn -->
<g id="node12" class="node"><title>mainReturn</title>
<polyline fill="none" stroke="black" points="439,-964 325,-964 "/>
<path fill="none" stroke="black" d="M325,-964C319,-964 313,-958 313,-952"/>
<polyline fill="none" stroke="black" points="313,-952 313,-940 "/>
<path fill="none" stroke="black" d="M313,-940C313,-934 319,-928 325,-928"/>
<polyline fill="none" stroke="black" points="325,-928 439,-928 "/>
<path fill="none" stroke="black" d="M439,-928C445,-928 451,-934 451,-940"/>
<polyline fill="none" stroke="black" points="451,-940 451,-952 "/>
<path fill="none" stroke="black" d="M451,-952C451,-958 445,-964 439,-964"/>
<text text-anchor="middle" x="382" y="-943.2" font-family="Monospace" font-size="11.00">return from main()</text>
</g>
<!-- destroyLocal -->
<g id="node13" class="node"><title>destroyLocal</title>
<polygon fill="none" stroke="black" points="471,-835 313,-835 313,-799 471,-799 471,-835"/>
<text text-anchor="middle" x="392" y="-820.2" font-family="Monospace" font-size="11.00">Destroy local objects</text>
<text text-anchor="middle" x="392" y="-808.2" font-family="Monospace" font-size="11.00">and unwind stack.</text>
</g>
<!-- mainReturn&#45;&gt;destroyLocal -->
<g id="edge58" class="edge"><title>mainReturn&#45;&gt;destroyLocal</title>
<path fill="none" stroke="darkorange" stroke-width="2" d="M383.349,-927.872C385.011,-906.758 387.858,-870.604 389.83,-845.564"/>
<polygon fill="darkorange" stroke="darkorange" points="393.345,-845.506 390.641,-835.262 386.367,-844.956 393.345,-845.506"/>
</g>
<!-- destroyLocal&#45;&gt;exit -->
<g id="edge60" class="edge"><title>destroyLocal&#45;&gt;exit</title>
<path fill="none" stroke="darkorange" stroke-width="2" d="M392,-798.656C392,-780.898 392,-753.04 392,-732.317"/>
<polygon fill="darkorange" stroke="darkorange" points="395.5,-732.222 392,-722.222 388.5,-732.222 395.5,-732.222"/>
</g>
<!-- terminateCause -->
<g id="node14" class="node"><title>terminateCause</title>
<polyline fill="none" stroke="black" points="910.25,-980 755.75,-980 "/>
<path fill="none" stroke="black" d="M755.75,-980C749.75,-980 743.75,-974 743.75,-968"/>
<polyline fill="none" stroke="black" points="743.75,-968 743.75,-924 "/>
<path fill="none" stroke="black" d="M743.75,-924C743.75,-918 749.75,-912 755.75,-912"/>
<polyline fill="none" stroke="black" points="755.75,-912 910.25,-912 "/>
<path fill="none" stroke="black" d="M910.25,-912C916.25,-912 922.25,-918 922.25,-924"/>
<polyline fill="none" stroke="black" points="922.25,-924 922.25,-968 "/>
<path fill="none" stroke="black" d="M922.25,-968C922.25,-974 916.25,-980 910.25,-980"/>
<text text-anchor="middle" x="833" y="-967.2" font-family="Monospace" font-size="11.00">An exception is thrown</text>
<text text-anchor="middle" x="833" y="-955.2" font-family="Monospace" font-size="11.00">and not caught;</text>
<text text-anchor="middle" x="833" y="-943.2" font-family="Monospace" font-size="11.00">A noexcept specification</text>
<text text-anchor="middle" x="833" y="-931.2" font-family="Monospace" font-size="11.00">is violated;</text>
<text text-anchor="middle" x="833" y="-919.2" font-family="Monospace" font-size="11.00">...</text>
</g>
<!-- terminateCause&#45;&gt;terminate -->
<g id="edge56" class="edge"><title>terminateCause&#45;&gt;terminate</title>
<path fill="none" stroke="black" d="M853.078,-911.788C866.231,-886.885 881,-851.471 881,-818 881,-818 881,-818 881,-457 881,-429.81 887.132,-399.304 892.428,-378.025"/>
<polygon fill="black" stroke="black" points="895.882,-378.648 895.008,-368.09 889.107,-376.889 895.882,-378.648"/>
</g>
<!-- unexpectedCause -->
<g id="node15" class="node"><title>unexpectedCause</title>
<polyline fill="none" stroke="black" points="642.25,-968 481.75,-968 "/>
<path fill="none" stroke="black" d="M481.75,-968C475.75,-968 469.75,-962 469.75,-956"/>
<polyline fill="none" stroke="black" points="469.75,-956 469.75,-936 "/>
<path fill="none" stroke="black" d="M469.75,-936C469.75,-930 475.75,-924 481.75,-924"/>
<polyline fill="none" stroke="black" points="481.75,-924 642.25,-924 "/>
<path fill="none" stroke="black" d="M642.25,-924C648.25,-924 654.25,-930 654.25,-936"/>
<polyline fill="none" stroke="black" points="654.25,-936 654.25,-956 "/>
<path fill="none" stroke="black" d="M654.25,-956C654.25,-962 648.25,-968 642.25,-968"/>
<text text-anchor="middle" x="562" y="-955.2" font-family="Monospace" font-size="11.00">A dynamic exception</text>
<text text-anchor="middle" x="562" y="-943.2" font-family="Monospace" font-size="11.00">specification is violated</text>
<text text-anchor="middle" x="562" y="-931.2" font-family="Monospace" font-size="11.00">[DEPRECATED]</text>
</g>
<!-- unexpected -->
<g id="node16" class="node"><title>unexpected</title>
<ellipse fill="lightgrey" stroke="black" cx="661" cy="-817" rx="92.4462" ry="22.7556"/>
<text text-anchor="middle" x="661" y="-820.2" font-family="Monospace" font-size="11.00">std::unexpected()</text>
<text text-anchor="middle" x="661" y="-808.2" font-family="Monospace" font-size="11.00">[DEPRECATED]</text>
</g>
<!-- unexpectedCause&#45;&gt;unexpected -->
<g id="edge62" class="edge"><title>unexpectedCause&#45;&gt;unexpected</title>
<path fill="none" stroke="black" d="M606.869,-923.995C619.5,-916.165 632.183,-906.158 641,-894 650.281,-881.202 655.258,-864.418 657.926,-849.88"/>
<polygon fill="black" stroke="black" points="661.418,-850.197 659.488,-839.779 654.5,-849.126 661.418,-850.197"/>
</g>
<!-- unexpected_handler -->
<g id="node17" class="node"><title>unexpected_handler</title>
<ellipse fill="none" stroke="black" cx="644" cy="-645" rx="130.223" ry="22.7556"/>
<text text-anchor="middle" x="644" y="-648.2" font-family="Monospace" font-size="11.00">std::unexpected_handler()</text>
<text text-anchor="middle" x="644" y="-636.2" font-family="Monospace" font-size="11.00">[DEPRECATED]</text>
</g>
<!-- unexpected&#45;&gt;unexpected_handler -->
<g id="edge64" class="edge"><title>unexpected&#45;&gt;unexpected_handler</title>
<path fill="none" stroke="black" d="M658.812,-794.123C655.867,-764.669 650.605,-712.047 647.21,-678.104"/>
<polygon fill="black" stroke="black" points="650.657,-677.395 646.179,-667.793 643.692,-678.091 650.657,-677.395"/>
</g>
<!-- unexpected_handler&#45;&gt;terminate -->
<g id="edge66" class="edge"><title>unexpected_handler&#45;&gt;terminate</title>
<path fill="none" stroke="black" d="M648.344,-622.177C656.434,-581.854 673.322,-499.278 677,-494 720.069,-432.189 799.323,-390.932 850.822,-369.232"/>
<polygon fill="black" stroke="black" points="852.189,-372.454 860.1,-365.407 849.521,-365.982 852.189,-372.454"/>
<text text-anchor="middle" x="772" y="-509.2" font-family="Monospace" font-size="11.00">Default &amp; if handler throws.</text>
</g>
<!-- user_unexpected_handler -->
<g id="node18" class="node"><title>user_unexpected_handler</title>
<polyline fill="none" stroke="black" points="770,-126 622,-126 "/>
<path fill="none" stroke="black" d="M622,-126C616,-126 610,-120 610,-114"/>
<polyline fill="none" stroke="black" points="610,-114 610,-102 "/>
<path fill="none" stroke="black" d="M610,-102C610,-96 616,-90 622,-90"/>
<polyline fill="none" stroke="black" points="622,-90 770,-90 "/>
<path fill="none" stroke="black" d="M770,-90C776,-90 782,-96 782,-102"/>
<polyline fill="none" stroke="black" points="782,-102 782,-114 "/>
<path fill="none" stroke="black" d="M782,-114C782,-120 776,-126 770,-126"/>
<text text-anchor="middle" x="696" y="-105.2" font-family="Monospace" font-size="11.00">User Unexpected Handler</text>
</g>
<!-- unexpected_handler&#45;&gt;user_unexpected_handler -->
<g id="edge68" class="edge"><title>unexpected_handler&#45;&gt;user_unexpected_handler</title>
<path fill="none" stroke="black" d="M642.392,-622.226C640.615,-596.242 638,-551.476 638,-513 638,-513 638,-513 638,-191 638,-168.727 652.44,-148.265 666.91,-133.353"/>
<polygon fill="black" stroke="black" points="669.665,-135.557 674.403,-126.081 664.789,-130.534 669.665,-135.557"/>
<text text-anchor="middle" x="668.5" y="-347.2" font-family="Monospace" font-size="11.00">otherwise</text>
</g>
<!-- user_unexpected_handler&#45;&gt;END -->
<g id="edge72" class="edge"><title>user_unexpected_handler&#45;&gt;END</title>
<path fill="none" stroke="black" stroke-dasharray="5,2" d="M765.749,-89.9361C833.978,-73.244 935.105,-48.5034 987.947,-35.5756"/>
<polygon fill="black" stroke="black" points="988.966,-38.9296 997.848,-33.1534 987.303,-32.1302 988.966,-38.9296"/>
</g>
<!-- set_unexpected -->
<g id="node19" class="node"><title>set_unexpected</title>
<ellipse fill="none" stroke="black" cx="540" cy="-876" rx="95.0171" ry="18"/>
<text text-anchor="middle" x="540" y="-873.2" font-family="Monospace" font-size="11.00">std::set_unexpected()</text>
</g>
<!-- set_unexpected&#45;&gt;unexpected_handler -->
<g id="edge70" class="edge"><title>set_unexpected&#45;&gt;unexpected_handler</title>
<path fill="none" stroke="black" d="M542.538,-857.81C545.349,-841.108 550.623,-815.229 559,-794 576.053,-750.788 604.099,-704.994 623.277,-675.989"/>
<polygon fill="black" stroke="black" points="626.273,-677.806 628.923,-667.547 620.454,-673.914 626.273,-677.806"/>
<text text-anchor="middle" x="598" y="-755.2" font-family="Monospace" font-size="11.00">sets</text>
</g>
<!-- user_terminate_handler&#45;&gt;END -->
<g id="edge74" class="edge"><title>user_terminate_handler&#45;&gt;END</title>
<path fill="none" stroke="black" stroke-dasharray="5,2" d="M958.01,-89.6412C969.381,-78.6811 984.26,-64.3394 996.912,-52.1448"/>
<polygon fill="black" stroke="black" points="999.68,-54.3387 1004.45,-44.8789 994.822,-49.2986 999.68,-54.3387"/>
</g>
<!-- set_terminate -->
<g id="node21" class="node"><title>set_terminate</title>
<ellipse fill="none" stroke="black" cx="1063" cy="-512" rx="91.1053" ry="18"/>
<text text-anchor="middle" x="1063" y="-509.2" font-family="Monospace" font-size="11.00">std::set_terminate()</text>
</g>
<!-- set_terminate&#45;&gt;terminate_handler -->
<g id="edge54" class="edge"><title>set_terminate&#45;&gt;terminate_handler</title>
<path fill="none" stroke="black" d="M1059.69,-493.793C1051.95,-453.562 1032.63,-353.077 1023.26,-304.351"/>
<polygon fill="black" stroke="black" points="1026.64,-303.391 1021.31,-294.232 1019.77,-304.713 1026.64,-303.391"/>
<text text-anchor="middle" x="1059" y="-401.2" font-family="Monospace" font-size="11.00">sets</text>
</g>
<!-- signal -->
<g id="node22" class="node"><title>signal</title>
<ellipse fill="none" stroke="black" cx="1331" cy="-404" rx="91.1053" ry="18"/>
<text text-anchor="middle" x="1331" y="-401.2" font-family="Monospace" font-size="11.00">std::signal(SIGABRT)</text>
</g>
<!-- signal&#45;&gt;user_signal_handler -->
<g id="edge76" class="edge"><title>signal&#45;&gt;user_signal_handler</title>
<path fill="none" stroke="black" d="M1331,-385.938C1331,-368.023 1331,-339.031 1331,-314 1331,-314 1331,-314 1331,-191 1331,-164.212 1309.16,-144.383 1286.2,-130.94"/>
<polygon fill="black" stroke="black" points="1287.84,-127.848 1277.39,-126.099 1284.47,-133.983 1287.84,-127.848"/>
<text text-anchor="middle" x="1345" y="-273.2" font-family="Monospace" font-size="11.00">sets</text>
</g>
<!-- user_signal_handler&#45;&gt;END -->
<g id="edge80" class="edge"><title>user_signal_handler&#45;&gt;END</title>
<path fill="none" stroke="black" stroke-dasharray="5,2" d="M1188.99,-89.9361C1149.39,-74.9197 1092.6,-53.3896 1056.78,-39.806"/>
<polygon fill="black" stroke="black" points="1057.85,-36.47 1047.26,-36.1974 1055.37,-43.0154 1057.85,-36.47"/>
</g>
<!-- raise -->
<g id="node24" class="node"><title>raise</title>
<ellipse fill="lightgrey" stroke="black" cx="1317" cy="-758" rx="87.2912" ry="18"/>
<text text-anchor="middle" x="1317" y="-755.2" font-family="Monospace" font-size="11.00">std::raise(SIGABRT)</text>
</g>
<!-- raise&#45;&gt;user_signal_handler -->
<g id="edge82" class="edge"><title>raise&#45;&gt;user_signal_handler</title>
<path fill="none" stroke="black" d="M1290.39,-740.549C1263.22,-721.472 1225,-687.299 1225,-646 1225,-646 1225,-646 1225,-191 1225,-172.731 1227.23,-152.308 1229.48,-136.415"/>
<polygon fill="black" stroke="black" points="1232.98,-136.625 1231,-126.217 1226.06,-135.589 1232.98,-136.625"/>
</g>
<!-- PROGRAM -->
<g id="node25" class="node"><title>PROGRAM</title>
<ellipse fill="none" stroke="black" cx="833" cy="-1067" rx="38.2285" ry="38.4712"/>
<text text-anchor="middle" x="833" y="-1064.2" font-family="Monospace" font-size="11.00">PROGRAM</text>
</g>
<!-- PROGRAM&#45;&gt;exit -->
<g id="edge8" class="edge"><title>PROGRAM&#45;&gt;exit</title>
<path fill="none" stroke="black" d="M794.426,-1065.88C683.47,-1064.64 367.374,-1054.51 304,-980 250.441,-917.03 272.581,-870.463 304,-794 315.106,-766.973 338.825,-743.783 358.843,-727.855"/>
<polygon fill="black" stroke="black" points="361.065,-730.562 366.863,-721.695 356.801,-725.011 361.065,-730.562"/>
<text text-anchor="middle" x="297" y="-873.2" font-family="Monospace" font-size="11.00">calls</text>
</g>
<!-- PROGRAM&#45;&gt;terminate -->
<g id="edge16" class="edge"><title>PROGRAM&#45;&gt;terminate</title>
<path fill="none" stroke="black" d="M866.104,-1047.45C889.037,-1032.54 917.739,-1009.28 931,-980 956.044,-924.703 914.305,-491.966 902.807,-378.281"/>
<polygon fill="black" stroke="black" points="906.285,-377.893 901.791,-368.298 899.321,-378.601 906.285,-377.893"/>
<text text-anchor="middle" x="948" y="-701.2" font-family="Monospace" font-size="11.00">calls</text>
</g>
<!-- PROGRAM&#45;&gt;abort -->
<g id="edge14" class="edge"><title>PROGRAM&#45;&gt;abort</title>
<path fill="none" stroke="black" d="M869.97,-1055.7C916.101,-1040.33 989,-1006.61 989,-947 989,-947 989,-947 989,-644 989,-601.333 960.503,-579.754 989,-548 1013.78,-520.385 1127.65,-555.076 1155,-530 1178.71,-508.264 1169,-491.163 1169,-459 1169,-459 1169,-459 1169,-275 1169,-253.427 1156.47,-232.495 1144.22,-217.179"/>
<polygon fill="black" stroke="black" points="1146.66,-214.643 1137.52,-209.28 1141.32,-219.171 1146.66,-214.643"/>
<text text-anchor="middle" x="1006" y="-573.2" font-family="Monospace" font-size="11.00">calls</text>
</g>
<!-- PROGRAM&#45;&gt;quick_exit -->
<g id="edge10" class="edge"><title>PROGRAM&#45;&gt;quick_exit</title>
<path fill="none" stroke="black" d="M870.69,-1059.09C938.769,-1046.22 1086.47,-1016.55 1208,-980 1221.71,-975.879 1236.35,-970.708 1249.68,-965.69"/>
<polygon fill="black" stroke="black" points="1251.03,-968.921 1259.12,-962.081 1248.53,-962.382 1251.03,-968.921"/>
<text text-anchor="middle" x="1154" y="-1001.2" font-family="Monospace" font-size="11.00">calls</text>
</g>
<!-- PROGRAM&#45;&gt;_Exit -->
<g id="edge18" class="edge"><title>PROGRAM&#45;&gt;_Exit</title>
<path fill="none" stroke="black" d="M871.361,-1066.12C959.726,-1065.51 1183.78,-1058.82 1363,-1010 1394.09,-1001.53 1411.16,-1006.83 1429,-980 1480.33,-902.781 1458.41,-784.541 1444.82,-731.896"/>
<polygon fill="black" stroke="black" points="1448.13,-730.733 1442.15,-721.984 1441.37,-732.549 1448.13,-730.733"/>
<text text-anchor="middle" x="1478" y="-873.2" font-family="Monospace" font-size="11.00">calls</text>
</g>
<!-- PROGRAM&#45;&gt;mainReturn -->
<g id="edge2" class="edge"><title>PROGRAM&#45;&gt;mainReturn</title>
<path fill="none" stroke="darkorange" stroke-width="2" d="M795.358,-1059.56C727.398,-1047.45 580.115,-1018.93 460,-980 449.505,-976.599 438.462,-972.356 428.093,-968.058"/>
<polygon fill="darkorange" stroke="darkorange" points="429.368,-964.797 418.795,-964.118 426.637,-971.242 429.368,-964.797"/>
</g>
<!-- PROGRAM&#45;&gt;terminateCause -->
<g id="edge4" class="edge"><title>PROGRAM&#45;&gt;terminateCause</title>
<path fill="none" stroke="black" d="M833,-1028.35C833,-1016.33 833,-1002.92 833,-990.517"/>
<polygon fill="black" stroke="black" points="836.5,-990.386 833,-980.386 829.5,-990.386 836.5,-990.386"/>
</g>
<!-- PROGRAM&#45;&gt;unexpectedCause -->
<g id="edge6" class="edge"><title>PROGRAM&#45;&gt;unexpectedCause</title>
<path fill="none" stroke="black" d="M796.428,-1054.67C764.403,-1044.33 716.885,-1027.95 677,-1010 652.841,-999.127 626.882,-985.12 605.752,-973.076"/>
<polygon fill="black" stroke="black" points="607.425,-970.001 597.011,-968.049 603.935,-976.069 607.425,-970.001"/>
</g>
<!-- PROGRAM&#45;&gt;unexpected -->
<g id="edge12" class="edge"><title>PROGRAM&#45;&gt;unexpected</title>
<path fill="none" stroke="black" d="M797.548,-1052.11C767.081,-1038.34 724.325,-1014.32 700,-980 685.305,-959.265 672.41,-890.679 665.766,-849.694"/>
<polygon fill="black" stroke="black" points="669.2,-848.997 664.177,-839.669 662.286,-850.093 669.2,-848.997"/>
<text text-anchor="middle" x="717" y="-943.2" font-family="Monospace" font-size="11.00">calls</text>
</g>
<!-- PROGRAM&#45;&gt;raise -->
<g id="edge20" class="edge"><title>PROGRAM&#45;&gt;raise</title>
<path fill="none" stroke="black" d="M871.458,-1066.14C985.274,-1065.68 1316.63,-1057.56 1383,-980 1408.64,-950.045 1368.87,-808.801 1360,-794 1357.47,-789.784 1354.24,-785.858 1350.69,-782.273"/>
<polygon fill="black" stroke="black" points="1352.84,-779.502 1343.07,-775.411 1348.16,-784.704 1352.84,-779.502"/>
<text text-anchor="middle" x="1408" y="-943.2" font-family="Monospace" font-size="11.00">calls</text>
</g>
<!-- __fastfail -->
<g id="node27" class="node"><title>__fastfail</title>
<ellipse fill="#f0f0f0" stroke="gray" cx="121" cy="-26" rx="121.433" ry="22.7556"/>
<text text-anchor="middle" x="121" y="-29.2" font-family="Monospace" font-size="11.00" fill="#707070">__fastfail(FAST_FAIL_*)</text>
<text text-anchor="middle" x="121" y="-17.2" font-family="Monospace" font-size="11.00" fill="#707070">[Microsoft Specific]</text>
</g>
<!-- PROGRAM&#45;&gt;__fastfail -->
<g id="edge84" class="edge"><title>PROGRAM&#45;&gt;__fastfail</title>
<path fill="none" stroke="gray" d="M794.72,-1063.69C646.83,-1054.27 121,-1015.93 121,-947 121,-947 121,-947 121,-107 121,-91.1298 121,-73.4886 121,-58.8193"/>
<polygon fill="gray" stroke="gray" points="124.5,-58.7307 121,-48.7307 117.5,-58.7308 124.5,-58.7307"/>
<text text-anchor="middle" x="189" y="-461.2" font-family="Monospace" font-size="11.00">calls</text>
<text text-anchor="middle" x="189" y="-449.2" font-family="Monospace" font-size="11.00">[Microsoft Specific]</text>
</g>
<!-- __fastfail&#45;&gt;END -->
<g id="edge86" class="edge"><title>__fastfail&#45;&gt;END</title>
<path fill="none" stroke="gray" d="M242.559,-26C490.504,-26 738.45,-26 986.395,-26"/>
<polygon fill="gray" stroke="gray" points="986.706,-29.5001 996.706,-26 986.706,-22.5001 986.706,-29.5001"/>
</g>
</g>
</svg>
