<?xml version="1.0" encoding="UTF-8" standalone="no"?>
<!DOCTYPE svg PUBLIC "-//W3C//DTD SVG 1.1//EN"
 "http://www.w3.org/Graphics/SVG/1.1/DTD/svg11.dtd">
<!-- Generated by graphviz version 2.43.0 (0)
 -->
<!-- Title: g Pages: 1 -->
<svg width="1547pt" height="1340pt"
 viewBox="0.00 0.00 1547.00 1340.40" xmlns="http://www.w3.org/2000/svg" xmlns:xlink="http://www.w3.org/1999/xlink">
<g id="graph0" class="graph" transform="scale(1 1) rotate(0) translate(4 1336.4)">
<title>g</title>
<polygon fill="white" stroke="transparent" points="-4,4 -4,-1336.4 1543,-1336.4 1543,4 -4,4"/>
<!-- _Exit -->
<g id="node1" class="node">
<title>_Exit</title>
<ellipse fill="lightgrey" stroke="black" cx="472" cy="-768.95" rx="91.31" ry="18"/>
<text text-anchor="middle" x="472" y="-766.15" font-family="Monospace" font-size="11.00">_Exit(int exit_code)</text>
</g>
<!-- END -->
<g id="node28" class="node">
<title>END</title>
<ellipse fill="none" stroke="black" cx="954" cy="-26.25" rx="22.46" ry="22.46"/>
<ellipse fill="none" stroke="black" cx="954" cy="-26.25" rx="26.5" ry="26.5"/>
<text text-anchor="middle" x="954" y="-23.45" font-family="Monospace" font-size="11.00">END</text>
</g>
<!-- _Exit&#45;&gt;END -->
<g id="edge6" class="edge">
<title>_Exit&#45;&gt;END</title>
<path fill="none" stroke="black" d="M486.22,-751.13C498.4,-734.96 514,-709.3 514,-683.84 514,-683.84 514,-683.84 514,-110.5 514,-28.67 811.55,-25.13 917.27,-26.45"/>
<polygon fill="black" stroke="black" points="917.42,-29.95 927.47,-26.6 917.52,-22.95 917.42,-29.95"/>
</g>
<!-- atexit_func -->
<g id="node2" class="node">
<title>atexit_func</title>
<ellipse fill="none" stroke="black" cx="317" cy="-572.61" rx="83.38" ry="22.76"/>
<text text-anchor="middle" x="317" y="-575.81" font-family="Monospace" font-size="11.00">User&#45;specified</text>
<text text-anchor="middle" x="317" y="-563.81" font-family="Monospace" font-size="11.00">exit handler(s)</text>
</g>
<!-- atexit_func&#45;&gt;atexit_func -->
<g id="edge14" class="edge">
<title>atexit_func&#45;&gt;atexit_func</title>
<path fill="none" stroke="black" d="M392.65,-582.32C407.7,-581.23 418.44,-577.99 418.44,-572.61 418.44,-568.54 412.27,-565.69 402.73,-564.08"/>
<polygon fill="black" stroke="black" points="402.98,-560.58 392.65,-562.9 402.18,-567.53 402.98,-560.58"/>
<text text-anchor="middle" x="452.44" y="-575.81" font-family="Monospace" font-size="11.00">in reverse</text>
<text text-anchor="middle" x="452.44" y="-563.81" font-family="Monospace" font-size="11.00">order</text>
</g>
<!-- terminate -->
<g id="node5" class="node">
<title>terminate</title>
<ellipse fill="lightgrey" stroke="black" cx="818" cy="-451.5" rx="75.33" ry="18"/>
<text text-anchor="middle" x="818" y="-448.7" font-family="Monospace" font-size="11.00">std::terminate()</text>
</g>
<!-- atexit_func&#45;&gt;terminate -->
<g id="edge15" class="edge">
<title>atexit_func&#45;&gt;terminate</title>
<path fill="none" stroke="black" d="M352.57,-551.94C390.56,-531.96 453.13,-501.97 511,-487.5 607.03,-463.49 634.97,-483.23 733,-469.5 739.81,-468.55 746.9,-467.39 753.94,-466.14"/>
<polygon fill="black" stroke="black" points="755.01,-469.5 764.2,-464.24 753.73,-462.62 755.01,-469.5"/>
<text text-anchor="middle" x="558.5" y="-502.7" font-family="Monospace" font-size="11.00">if func throws</text>
</g>
<!-- atexit_func&#45;&gt;END -->
<g id="edge16" class="edge">
<title>atexit_func&#45;&gt;END</title>
<path fill="none" stroke="darkorange" stroke-width="2" d="M321.12,-549.75C325.25,-525.93 331,-486.65 331,-452.5 331,-452.5 331,-452.5 331,-110.5 331,-50.94 784.17,-32.42 917.51,-28.26"/>
<polygon fill="darkorange" stroke="darkorange" stroke-width="2" points="917.74,-31.75 927.63,-27.95 917.53,-24.76 917.74,-31.75"/>
</g>
<!-- atexit -->
<g id="node3" class="node">
<title>atexit</title>
<ellipse fill="pink" stroke="black" cx="343" cy="-682.84" rx="62.58" ry="18"/>
<text text-anchor="middle" x="343" y="-680.04" font-family="Monospace" font-size="11.00">std::atexit()</text>
</g>
<!-- atexit&#45;&gt;atexit_func -->
<g id="edge13" class="edge">
<title>atexit&#45;&gt;atexit_func</title>
<path fill="none" stroke="pink" d="M338.82,-664.45C335,-648.55 329.26,-624.63 324.62,-605.33"/>
<polygon fill="pink" stroke="pink" points="327.98,-604.35 322.24,-595.44 321.18,-605.98 327.98,-604.35"/>
<text text-anchor="middle" x="360.5" y="-624.92" font-family="Monospace" font-size="11.00" fill="hotpink">registers</text>
</g>
<!-- set_terminate -->
<g id="node4" class="node">
<title>set_terminate</title>
<ellipse fill="pink" stroke="black" cx="633" cy="-451.5" rx="91.31" ry="18"/>
<text text-anchor="middle" x="633" y="-448.7" font-family="Monospace" font-size="11.00">std::set_terminate()</text>
</g>
<!-- terminate_handler -->
<g id="node6" class="node">
<title>terminate_handler</title>
<ellipse fill="none" stroke="black" cx="794" cy="-367.5" rx="99.44" ry="18"/>
<text text-anchor="middle" x="794" y="-364.7" font-family="Monospace" font-size="11.00">std::terminate_handler</text>
</g>
<!-- set_terminate&#45;&gt;terminate_handler -->
<g id="edge28" class="edge">
<title>set_terminate&#45;&gt;terminate_handler</title>
<path fill="none" stroke="pink" d="M664.42,-434.49C689.83,-421.55 725.78,-403.24 753.37,-389.19"/>
<polygon fill="pink" stroke="pink" points="755.06,-392.26 762.38,-384.6 751.88,-386.02 755.06,-392.26"/>
<text text-anchor="middle" x="737" y="-406.7" font-family="Monospace" font-size="11.00" fill="hotpink">sets</text>
</g>
<!-- terminate&#45;&gt;terminate_handler -->
<g id="edge25" class="edge">
<title>terminate&#45;&gt;terminate_handler</title>
<path fill="none" stroke="black" d="M813.03,-433.51C809.83,-422.59 805.61,-408.16 801.95,-395.67"/>
<polygon fill="black" stroke="black" points="805.22,-394.36 799.05,-385.75 798.5,-396.33 805.22,-394.36"/>
</g>
<!-- user_terminate_handler -->
<g id="node8" class="node">
<title>user_terminate_handler</title>
<path fill="none" stroke="black" d="M854.5,-129.5C854.5,-129.5 747.5,-129.5 747.5,-129.5 741.5,-129.5 735.5,-123.5 735.5,-117.5 735.5,-117.5 735.5,-105.5 735.5,-105.5 735.5,-99.5 741.5,-93.5 747.5,-93.5 747.5,-93.5 854.5,-93.5 854.5,-93.5 860.5,-93.5 866.5,-99.5 866.5,-105.5 866.5,-105.5 866.5,-117.5 866.5,-117.5 866.5,-123.5 860.5,-129.5 854.5,-129.5"/>
<text text-anchor="middle" x="801" y="-114.7" font-family="Monospace" font-size="11.00">User&#45;Specified</text>
<text text-anchor="middle" x="801" y="-102.7" font-family="Monospace" font-size="11.00">Terminate Handler</text>
</g>
<!-- terminate_handler&#45;&gt;user_terminate_handler -->
<g id="edge27" class="edge">
<title>terminate_handler&#45;&gt;user_terminate_handler</title>
<path fill="none" stroke="black" stroke-dasharray="1,5" d="M794.47,-349.44C795.66,-306.34 798.79,-192.79 800.24,-140.09"/>
<polygon fill="black" stroke="black" points="803.75,-139.91 800.52,-129.82 796.75,-139.72 803.75,-139.91"/>
<text text-anchor="middle" x="854.5" y="-238.7" font-family="monospace italic" font-size="11.00">if user&#45;specified</text>
</g>
<!-- abort -->
<g id="node21" class="node">
<title>abort</title>
<ellipse fill="lightgrey" stroke="black" cx="921" cy="-283.5" rx="58.86" ry="18"/>
<text text-anchor="middle" x="921" y="-280.7" font-family="Monospace" font-size="11.00">std::abort()</text>
</g>
<!-- terminate_handler&#45;&gt;abort -->
<g id="edge26" class="edge">
<title>terminate_handler&#45;&gt;abort</title>
<path fill="none" stroke="black" d="M819.7,-349.91C839.58,-337.07 867.22,-319.22 888.61,-305.41"/>
<polygon fill="black" stroke="black" points="890.55,-308.32 897.06,-299.96 886.76,-302.44 890.55,-308.32"/>
</g>
<!-- terminateCause -->
<g id="node7" class="node">
<title>terminateCause</title>
<path fill="none" stroke="black" d="M857.5,-1195.43C857.5,-1195.43 696.5,-1195.43 696.5,-1195.43 690.5,-1195.43 684.5,-1189.43 684.5,-1183.43 684.5,-1183.43 684.5,-979.43 684.5,-979.43 684.5,-973.43 690.5,-967.43 696.5,-967.43 696.5,-967.43 857.5,-967.43 857.5,-967.43 863.5,-967.43 869.5,-973.43 869.5,-979.43 869.5,-979.43 869.5,-1183.43 869.5,-1183.43 869.5,-1189.43 863.5,-1195.43 857.5,-1195.43"/>
<text text-anchor="middle" x="777" y="-1182.63" font-family="Monospace" font-size="11.00">An exception is thrown</text>
<text text-anchor="middle" x="777" y="-1170.63" font-family="Monospace" font-size="11.00">and not caught;</text>
<text text-anchor="middle" x="777" y="-1145.63" font-family="Monospace" font-size="11.00">An exception is thrown</text>
<text text-anchor="middle" x="777" y="-1133.63" font-family="Monospace" font-size="11.00">(e.g., from a destructor)</text>
<text text-anchor="middle" x="777" y="-1121.63" font-family="Monospace" font-size="11.00">during the handling of</text>
<text text-anchor="middle" x="777" y="-1109.63" font-family="Monospace" font-size="11.00">another exception;</text>
<text text-anchor="middle" x="777" y="-1084.63" font-family="Monospace" font-size="11.00">A noexcept specification</text>
<text text-anchor="middle" x="777" y="-1072.63" font-family="Monospace" font-size="11.00">is violated;</text>
<text text-anchor="middle" x="777" y="-1047.63" font-family="Monospace" font-size="11.00">Uncaught exception</text>
<text text-anchor="middle" x="777" y="-1035.63" font-family="Monospace" font-size="11.00">during the execution</text>
<text text-anchor="middle" x="777" y="-1023.63" font-family="Monospace" font-size="11.00">of a parallel</text>
<text text-anchor="middle" x="777" y="-1011.63" font-family="Monospace" font-size="11.00">algorithm element</text>
<text text-anchor="middle" x="777" y="-999.63" font-family="Monospace" font-size="11.00">access [C++17];</text>
<text text-anchor="middle" x="777" y="-974.63" font-family="Monospace" font-size="11.00">...</text>
</g>
<!-- terminateCause&#45;&gt;terminate -->
<g id="edge29" class="edge">
<title>terminateCause&#45;&gt;terminate</title>
<path fill="none" stroke="black" d="M801.59,-967.4C807.43,-931.94 812,-892.53 812,-856.06 812,-856.06 812,-856.06 812,-571.61 812,-540.19 814.11,-504.16 815.83,-480.03"/>
<polygon fill="black" stroke="black" points="819.33,-480.08 816.58,-469.84 812.35,-479.56 819.33,-480.08"/>
</g>
<!-- user_terminate_handler&#45;&gt;END -->
<g id="edge30" class="edge">
<title>user_terminate_handler&#45;&gt;END</title>
<path fill="none" stroke="black" stroke-dasharray="5,2" d="M832.33,-93.45C858.61,-79.15 895.96,-58.83 922.33,-44.48"/>
<polygon fill="black" stroke="black" points="924.06,-47.53 931.17,-39.67 920.71,-41.38 924.06,-47.53"/>
</g>
<!-- mainReturn -->
<g id="node9" class="node">
<title>mainReturn</title>
<path fill="none" stroke="black" d="M144.5,-1109.93C144.5,-1109.93 23.5,-1109.93 23.5,-1109.93 17.5,-1109.93 11.5,-1103.93 11.5,-1097.93 11.5,-1097.93 11.5,-1064.93 11.5,-1064.93 11.5,-1058.93 17.5,-1052.93 23.5,-1052.93 23.5,-1052.93 144.5,-1052.93 144.5,-1052.93 150.5,-1052.93 156.5,-1058.93 156.5,-1064.93 156.5,-1064.93 156.5,-1097.93 156.5,-1097.93 156.5,-1103.93 150.5,-1109.93 144.5,-1109.93"/>
<text text-anchor="middle" x="84" y="-1097.13" font-family="Monospace" font-size="11.00">return from main();</text>
<text text-anchor="middle" x="84" y="-1072.13" font-family="Monospace" font-size="11.00">the return value</text>
<text text-anchor="middle" x="84" y="-1060.13" font-family="Monospace" font-size="11.00">is the exit_code</text>
</g>
<!-- destroyLocal -->
<g id="node11" class="node">
<title>destroyLocal</title>
<polygon fill="none" stroke="black" points="158,-873.06 0,-873.06 0,-837.06 158,-837.06 158,-873.06"/>
<text text-anchor="middle" x="79" y="-858.26" font-family="Monospace" font-size="11.00">Destroy local objects</text>
<text text-anchor="middle" x="79" y="-846.26" font-family="Monospace" font-size="11.00">and unwind stack.</text>
</g>
<!-- mainReturn&#45;&gt;destroyLocal -->
<g id="edge8" class="edge">
<title>mainReturn&#45;&gt;destroyLocal</title>
<path fill="none" stroke="darkorange" stroke-width="2" d="M83.39,-1052.92C82.42,-1009.66 80.56,-926.25 79.61,-883.21"/>
<polygon fill="darkorange" stroke="darkorange" stroke-width="2" points="83.1,-883.11 79.38,-873.19 76.11,-883.27 83.1,-883.11"/>
</g>
<!-- Cleanup -->
<g id="node10" class="node">
<title>Cleanup</title>
<polygon fill="none" stroke="black" points="262,-710.84 56,-710.84 56,-654.84 262,-654.84 262,-710.84"/>
<text text-anchor="middle" x="159" y="-698.04" font-family="Monospace" font-size="11.00">Normal Program Termination:</text>
<text text-anchor="middle" x="159" y="-686.04" font-family="Monospace" font-size="11.00">destroys all static objects;</text>
<text text-anchor="middle" x="159" y="-674.04" font-family="Monospace" font-size="11.00"> flushes all buffers;</text>
<text text-anchor="middle" x="159" y="-662.04" font-family="Monospace" font-size="11.00"> closes all I/O channels</text>
</g>
<!-- Cleanup&#45;&gt;atexit_func -->
<g id="edge12" class="edge">
<title>Cleanup&#45;&gt;atexit_func</title>
<path fill="none" stroke="darkorange" stroke-width="2" d="M198.46,-654.81C223.15,-637.89 254.79,-616.22 279.17,-599.53"/>
<polygon fill="darkorange" stroke="darkorange" stroke-width="2" points="281.19,-602.38 287.47,-593.84 277.24,-596.61 281.19,-602.38"/>
</g>
<!-- exit -->
<g id="node12" class="node">
<title>exit</title>
<ellipse fill="lightgrey" stroke="black" cx="159" cy="-768.95" rx="107.78" ry="18"/>
<text text-anchor="middle" x="159" y="-766.15" font-family="Monospace" font-size="11.00">std::exit(int exit_code)</text>
</g>
<!-- destroyLocal&#45;&gt;exit -->
<g id="edge9" class="edge">
<title>destroyLocal&#45;&gt;exit</title>
<path fill="none" stroke="darkorange" stroke-width="2" d="M95.19,-837.04C106.9,-824.73 122.89,-807.91 135.94,-794.2"/>
<polygon fill="darkorange" stroke="darkorange" stroke-width="2" points="138.48,-796.6 142.83,-786.95 133.41,-791.78 138.48,-796.6"/>
</g>
<!-- exit&#45;&gt;Cleanup -->
<g id="edge11" class="edge">
<title>exit&#45;&gt;Cleanup</title>
<path fill="none" stroke="darkorange" stroke-width="2" d="M159,-750.93C159,-742.36 159,-731.61 159,-721.24"/>
<polygon fill="darkorange" stroke="darkorange" stroke-width="2" points="162.5,-721.1 159,-711.1 155.5,-721.1 162.5,-721.1"/>
</g>
<!-- quick_exit -->
<g id="node13" class="node">
<title>quick_exit</title>
<ellipse fill="lightgrey" stroke="black" cx="588" cy="-1081.43" rx="78.55" ry="18"/>
<text text-anchor="middle" x="588" y="-1078.63" font-family="Monospace" font-size="11.00">std::quick_exit()</text>
</g>
<!-- at_quick_exit_func -->
<g id="node14" class="node">
<title>at_quick_exit_func</title>
<ellipse fill="none" stroke="black" cx="579" cy="-855.06" rx="111.95" ry="22.76"/>
<text text-anchor="middle" x="579" y="-858.26" font-family="Monospace" font-size="11.00">User&#45;specified</text>
<text text-anchor="middle" x="579" y="-846.26" font-family="Monospace" font-size="11.00">quick_exit handler(s)</text>
</g>
<!-- quick_exit&#45;&gt;at_quick_exit_func -->
<g id="edge19" class="edge">
<title>quick_exit&#45;&gt;at_quick_exit_func</title>
<path fill="none" stroke="black" d="M587.31,-1063.2C585.8,-1025.7 582.22,-936.24 580.28,-888.07"/>
<polygon fill="black" stroke="black" points="583.77,-887.75 579.88,-877.89 576.78,-888.03 583.77,-887.75"/>
</g>
<!-- at_quick_exit_func&#45;&gt;_Exit -->
<g id="edge22" class="edge">
<title>at_quick_exit_func&#45;&gt;_Exit</title>
<path fill="none" stroke="black" d="M552.28,-833.05C536.67,-820.79 516.98,-805.31 501,-792.75"/>
<polygon fill="black" stroke="black" points="503.05,-789.91 493.02,-786.48 498.72,-795.41 503.05,-789.91"/>
</g>
<!-- at_quick_exit_func&#45;&gt;terminate -->
<g id="edge21" class="edge">
<title>at_quick_exit_func&#45;&gt;terminate</title>
<path fill="none" stroke="black" d="M596.15,-832.6C607.39,-816.37 620,-793.02 620,-769.95 620,-769.95 620,-769.95 620,-571.61 620,-536.84 710.79,-494.54 769.41,-470.86"/>
<polygon fill="black" stroke="black" points="770.89,-474.03 778.88,-467.08 768.3,-467.53 770.89,-474.03"/>
<text text-anchor="middle" x="667.5" y="-680.04" font-family="Monospace" font-size="11.00">if func throws</text>
</g>
<!-- at_quick_exit_func&#45;&gt;at_quick_exit_func -->
<g id="edge20" class="edge">
<title>at_quick_exit_func&#45;&gt;at_quick_exit_func</title>
<path fill="none" stroke="black" d="M683.33,-863.18C698.5,-861.89 708.72,-859.19 708.72,-855.06 708.72,-851.94 702.85,-849.62 693.41,-848.13"/>
<polygon fill="black" stroke="black" points="693.68,-844.63 683.33,-846.94 692.86,-851.59 693.68,-844.63"/>
<text text-anchor="middle" x="742.72" y="-858.26" font-family="Monospace" font-size="11.00">in reverse</text>
<text text-anchor="middle" x="742.72" y="-846.26" font-family="Monospace" font-size="11.00">order</text>
</g>
<!-- at_quick_exit -->
<g id="node15" class="node">
<title>at_quick_exit</title>
<ellipse fill="pink" stroke="black" cx="400" cy="-1081.43" rx="91.31" ry="18"/>
<text text-anchor="middle" x="400" y="-1078.63" font-family="Monospace" font-size="11.00">std::at_quick_exit()</text>
</g>
<!-- at_quick_exit&#45;&gt;at_quick_exit_func -->
<g id="edge18" class="edge">
<title>at_quick_exit&#45;&gt;at_quick_exit_func</title>
<path fill="none" stroke="pink" d="M408.58,-1063.27C425.71,-1030.08 466.7,-955.8 515,-904.18 522.05,-896.64 530.4,-889.43 538.69,-882.98"/>
<polygon fill="pink" stroke="pink" points="541.02,-885.61 546.92,-876.82 536.82,-880.01 541.02,-885.61"/>
<text text-anchor="middle" x="545.5" y="-924" font-family="Monospace" font-size="11.00" fill="hotpink">registers</text>
</g>
<!-- unexpected -->
<g id="node16" class="node">
<title>unexpected</title>
<ellipse fill="#f5f5f5" stroke="gray" cx="1123" cy="-855.06" rx="111.95" ry="31.23"/>
<text text-anchor="middle" x="1123" y="-864.26" font-family="Monospace" font-size="11.00" fill="#424242">std::unexpected()</text>
<text text-anchor="middle" x="1123" y="-852.26" font-family="Monospace" font-size="11.00" fill="#424242">[DEPRECATED IN C++11]</text>
<text text-anchor="middle" x="1123" y="-840.26" font-family="Monospace" font-size="11.00" fill="#424242">[REMOVED &#160;&#160;&#160;IN C++17]</text>
</g>
<!-- unexpected_handler -->
<g id="node17" class="node">
<title>unexpected_handler</title>
<ellipse fill="none" stroke="gray" cx="1088" cy="-572.61" rx="130.63" ry="31.23"/>
<text text-anchor="middle" x="1088" y="-581.81" font-family="Monospace" font-size="11.00" fill="#424242">std::unexpected_handler()</text>
<text text-anchor="middle" x="1088" y="-569.81" font-family="Monospace" font-size="11.00" fill="#424242">[DEPRECATED IN C++11]</text>
<text text-anchor="middle" x="1088" y="-557.81" font-family="Monospace" font-size="11.00" fill="#424242">[REMOVED &#160;&#160;&#160;IN C++17]</text>
</g>
<!-- unexpected&#45;&gt;unexpected_handler -->
<g id="edge36" class="edge">
<title>unexpected&#45;&gt;unexpected_handler</title>
<path fill="none" stroke="#c2c2c2" d="M1151.22,-824.72C1186.25,-784.57 1237.72,-710.76 1206,-651.72 1195.66,-632.47 1178.26,-617.17 1159.95,-605.4"/>
<polygon fill="#c2c2c2" stroke="#c2c2c2" points="1161.28,-602.11 1150.92,-599.9 1157.64,-608.09 1161.28,-602.11"/>
</g>
<!-- unexpected_handler&#45;&gt;terminate -->
<g id="edge37" class="edge">
<title>unexpected_handler&#45;&gt;terminate</title>
<path fill="none" stroke="#c2c2c2" d="M1013.75,-546.83C994.41,-539.81 973.75,-531.8 955,-523.5 923.73,-509.65 917.36,-503.23 887,-487.5 877.6,-482.63 867.45,-477.44 857.9,-472.59"/>
<polygon fill="#c2c2c2" stroke="#c2c2c2" points="859.47,-469.46 848.97,-468.06 856.31,-475.71 859.47,-469.46"/>
<text text-anchor="middle" x="1016" y="-514.7" font-family="Monospace" font-size="11.00" fill="#424242">default or if</text>
<text text-anchor="middle" x="1016" y="-502.7" font-family="Monospace" font-size="11.00" fill="#424242">unexpected_handler</text>
<text text-anchor="middle" x="1016" y="-490.7" font-family="Monospace" font-size="11.00" fill="#424242">throws</text>
</g>
<!-- user_unexpected_handler -->
<g id="node19" class="node">
<title>user_unexpected_handler</title>
<path fill="none" stroke="gray" d="M1011,-129.5C1011,-129.5 897,-129.5 897,-129.5 891,-129.5 885,-123.5 885,-117.5 885,-117.5 885,-105.5 885,-105.5 885,-99.5 891,-93.5 897,-93.5 897,-93.5 1011,-93.5 1011,-93.5 1017,-93.5 1023,-99.5 1023,-105.5 1023,-105.5 1023,-117.5 1023,-117.5 1023,-123.5 1017,-129.5 1011,-129.5"/>
<text text-anchor="middle" x="954" y="-114.7" font-family="Monospace" font-size="11.00" fill="#424242">User&#45;specified</text>
<text text-anchor="middle" x="954" y="-102.7" font-family="Monospace" font-size="11.00" fill="#424242">Unexpected Handler</text>
</g>
<!-- unexpected_handler&#45;&gt;user_unexpected_handler -->
<g id="edge38" class="edge">
<title>unexpected_handler&#45;&gt;user_unexpected_handler</title>
<path fill="none" stroke="#c2c2c2" stroke-dasharray="1,5" d="M1085.74,-541.32C1084.12,-525.17 1081.4,-505.07 1077,-487.5 1045.81,-363.07 1010.36,-340.81 975,-217.5 967.55,-191.51 961.78,-161.16 958.2,-139.8"/>
<polygon fill="#c2c2c2" stroke="#c2c2c2" points="961.63,-139.11 956.57,-129.8 954.72,-140.23 961.63,-139.11"/>
<text text-anchor="middle" x="1074.5" y="-322.7" font-family="monospace italic" font-size="11.00" fill="#424242">if user&#45;specified</text>
</g>
<!-- unexpectedCause -->
<g id="node18" class="node">
<title>unexpectedCause</title>
<path fill="none" stroke="gray" d="M1206.5,-1109.43C1206.5,-1109.43 1045.5,-1109.43 1045.5,-1109.43 1039.5,-1109.43 1033.5,-1103.43 1033.5,-1097.43 1033.5,-1097.43 1033.5,-1065.43 1033.5,-1065.43 1033.5,-1059.43 1039.5,-1053.43 1045.5,-1053.43 1045.5,-1053.43 1206.5,-1053.43 1206.5,-1053.43 1212.5,-1053.43 1218.5,-1059.43 1218.5,-1065.43 1218.5,-1065.43 1218.5,-1097.43 1218.5,-1097.43 1218.5,-1103.43 1212.5,-1109.43 1206.5,-1109.43"/>
<text text-anchor="middle" x="1126" y="-1096.63" font-family="Monospace" font-size="11.00" fill="#424242">A dynamic exception</text>
<text text-anchor="middle" x="1126" y="-1084.63" font-family="Monospace" font-size="11.00" fill="#424242">specification is violated</text>
<text text-anchor="middle" x="1126" y="-1072.63" font-family="Monospace" font-size="11.00" fill="#424242">[DEPRECATED IN C++11]</text>
<text text-anchor="middle" x="1126" y="-1060.63" font-family="Monospace" font-size="11.00" fill="#424242">[REMOVED &#160;&#160;&#160;IN C++17]</text>
</g>
<!-- unexpectedCause&#45;&gt;unexpected -->
<g id="edge35" class="edge">
<title>unexpectedCause&#45;&gt;unexpected</title>
<path fill="none" stroke="#c2c2c2" d="M1125.64,-1053.37C1125.12,-1014.33 1124.15,-941.94 1123.54,-896.54"/>
<polygon fill="#c2c2c2" stroke="#c2c2c2" points="1127.04,-896.4 1123.41,-886.44 1120.04,-896.49 1127.04,-896.4"/>
</g>
<!-- user_unexpected_handler&#45;&gt;END -->
<g id="edge40" class="edge">
<title>user_unexpected_handler&#45;&gt;END</title>
<path fill="none" stroke="#c2c2c2" stroke-dasharray="5,2" d="M954,-93.25C954,-84.46 954,-73.44 954,-62.93"/>
<polygon fill="#c2c2c2" stroke="#c2c2c2" points="957.5,-62.7 954,-52.7 950.5,-62.7 957.5,-62.7"/>
</g>
<!-- set_unexpected -->
<g id="node20" class="node">
<title>set_unexpected</title>
<ellipse fill="lightpink" stroke="gray" cx="1085" cy="-682.84" rx="111.95" ry="31.23"/>
<text text-anchor="middle" x="1085" y="-692.04" font-family="Monospace" font-size="11.00" fill="#424242">std::set_unexpected()</text>
<text text-anchor="middle" x="1085" y="-680.04" font-family="Monospace" font-size="11.00" fill="#424242">[DEPRECATED IN C++11]</text>
<text text-anchor="middle" x="1085" y="-668.04" font-family="Monospace" font-size="11.00" fill="#424242">[REMOVED &#160;&#160;&#160;IN C++17]</text>
</g>
<!-- set_unexpected&#45;&gt;unexpected_handler -->
<g id="edge39" class="edge">
<title>set_unexpected&#45;&gt;unexpected_handler</title>
<path fill="none" stroke="pink" d="M1085.84,-651.69C1086.16,-640.06 1086.53,-626.58 1086.88,-614.13"/>
<polygon fill="pink" stroke="pink" points="1090.38,-614.07 1087.16,-603.97 1083.38,-613.87 1090.38,-614.07"/>
<text text-anchor="middle" x="1100" y="-624.92" font-family="Monospace" font-size="11.00" fill="hotpink">sets</text>
</g>
<!-- raise -->
<g id="node22" class="node">
<title>raise</title>
<ellipse fill="lightgrey" stroke="black" cx="1272" cy="-199.5" rx="87.39" ry="18"/>
<text text-anchor="middle" x="1272" y="-196.7" font-family="Monospace" font-size="11.00">std::raise(SIGABRT)</text>
</g>
<!-- abort&#45;&gt;raise -->
<g id="edge32" class="edge">
<title>abort&#45;&gt;raise</title>
<path fill="none" stroke="black" d="M966.53,-271.86C1027.61,-257.59 1136.49,-232.16 1206.41,-215.82"/>
<polygon fill="black" stroke="black" points="1207.49,-219.16 1216.43,-213.48 1205.9,-212.35 1207.49,-219.16"/>
</g>
<!-- user_signal_handler -->
<g id="node24" class="node">
<title>user_signal_handler</title>
<path fill="none" stroke="black" d="M1140.5,-133.5C1140.5,-133.5 1053.5,-133.5 1053.5,-133.5 1047.5,-133.5 1041.5,-127.5 1041.5,-121.5 1041.5,-121.5 1041.5,-101.5 1041.5,-101.5 1041.5,-95.5 1047.5,-89.5 1053.5,-89.5 1053.5,-89.5 1140.5,-89.5 1140.5,-89.5 1146.5,-89.5 1152.5,-95.5 1152.5,-101.5 1152.5,-101.5 1152.5,-121.5 1152.5,-121.5 1152.5,-127.5 1146.5,-133.5 1140.5,-133.5"/>
<text text-anchor="middle" x="1097" y="-120.7" font-family="Monospace" font-size="11.00">User&#45;specified</text>
<text text-anchor="middle" x="1097" y="-108.7" font-family="Monospace" font-size="11.00">Signal Handler</text>
<text text-anchor="middle" x="1097" y="-96.7" font-family="Monospace" font-size="11.00">for SIGABRT</text>
</g>
<!-- raise&#45;&gt;user_signal_handler -->
<g id="edge44" class="edge">
<title>raise&#45;&gt;user_signal_handler</title>
<path fill="none" stroke="black" stroke-dasharray="1,5" d="M1201.99,-188.65C1180.61,-183.45 1157.8,-175.54 1139,-163.5 1130.16,-157.84 1122.28,-149.71 1115.79,-141.6"/>
<polygon fill="black" stroke="black" points="1118.59,-139.49 1109.79,-133.59 1112.98,-143.69 1118.59,-139.49"/>
<text text-anchor="middle" x="1196.5" y="-154.7" font-family="monospace italic" font-size="11.00">if user&#45;specified</text>
</g>
<!-- raise&#45;&gt;END -->
<g id="edge42" class="edge">
<title>raise&#45;&gt;END</title>
<path fill="none" stroke="black" d="M1268.09,-181.11C1265.32,-171.64 1260.85,-160.12 1254,-151.5 1223.31,-112.91 1206.57,-110.59 1162,-89.5 1104.24,-62.17 1031.77,-43.74 989.4,-34.41"/>
<polygon fill="black" stroke="black" points="990.07,-30.97 979.55,-32.28 988.59,-37.81 990.07,-30.97"/>
</g>
<!-- signal -->
<g id="node23" class="node">
<title>signal</title>
<ellipse fill="pink" stroke="black" cx="1075" cy="-199.5" rx="91.31" ry="18"/>
<text text-anchor="middle" x="1075" y="-196.7" font-family="Monospace" font-size="11.00">std::signal(SIGABRT)</text>
</g>
<!-- signal&#45;&gt;user_signal_handler -->
<g id="edge43" class="edge">
<title>signal&#45;&gt;user_signal_handler</title>
<path fill="none" stroke="pink" d="M1077.71,-181.41C1079.27,-172.44 1081.44,-161.31 1084,-151.5 1084.69,-148.87 1085.46,-146.16 1086.27,-143.45"/>
<polygon fill="pink" stroke="pink" points="1089.64,-144.39 1089.33,-133.8 1082.97,-142.28 1089.64,-144.39"/>
<text text-anchor="middle" x="1098" y="-154.7" font-family="Monospace" font-size="11.00" fill="hotpink">sets</text>
</g>
<!-- user_signal_handler&#45;&gt;END -->
<g id="edge45" class="edge">
<title>user_signal_handler&#45;&gt;END</title>
<path fill="none" stroke="black" stroke-dasharray="5,2" d="M1060.92,-89.49C1037.64,-75.94 1007.68,-58.5 985.39,-45.53"/>
<polygon fill="black" stroke="black" points="987.06,-42.45 976.66,-40.44 983.54,-48.5 987.06,-42.45"/>
</g>
<!-- _exit -->
<g id="node25" class="node">
<title>_exit</title>
<ellipse fill="#f0f0f0" stroke="gray" cx="375" cy="-926.8" rx="92.76" ry="22.76"/>
<text text-anchor="middle" x="375" y="-930" font-family="Monospace" font-size="11.00" fill="#707070">_exit(int status)</text>
<text text-anchor="middle" x="375" y="-918" font-family="Monospace" font-size="11.00" fill="#707070">[POSIX&#45;specific]</text>
</g>
<!-- _exit&#45;&gt;_Exit -->
<g id="edge5" class="edge">
<title>_exit&#45;&gt;_Exit</title>
<path fill="none" stroke="gray" d="M373.28,-904.16C372.59,-882.25 374.54,-848.22 390,-823.95 398.79,-810.15 412.52,-799.11 426.24,-790.7"/>
<polygon fill="gray" stroke="gray" points="428.28,-793.56 435.21,-785.55 424.79,-787.49 428.28,-793.56"/>
<text text-anchor="middle" x="424" y="-852.26" font-family="Monospace" font-size="11.00" fill="#707070">is same as</text>
</g>
<!-- __fastfail -->
<g id="node26" class="node">
<title>__fastfail</title>
<ellipse fill="#f0f0f0" stroke="gray" cx="1413" cy="-855.06" rx="121.74" ry="22.76"/>
<text text-anchor="middle" x="1413" y="-858.26" font-family="Monospace" font-size="11.00" fill="#707070">__fastfail(FAST_FAIL_*)</text>
<text text-anchor="middle" x="1413" y="-846.26" font-family="Monospace" font-size="11.00" fill="#707070">[Microsoft&#45;specific]</text>
</g>
<!-- __fastfail&#45;&gt;END -->
<g id="edge4" class="edge">
<title>__fastfail&#45;&gt;END</title>
<path fill="none" stroke="gray" d="M1409.39,-832.35C1406.89,-815.4 1404,-791.24 1404,-769.95 1404,-769.95 1404,-769.95 1404,-110.5 1404,-68.5 1096.97,-39.08 990.13,-30.12"/>
<polygon fill="gray" stroke="gray" points="990.39,-26.63 980.14,-29.29 989.82,-33.6 990.39,-26.63"/>
</g>
<!-- PROGRAM -->
<g id="node27" class="node">
<title>PROGRAM</title>
<ellipse fill="none" stroke="black" cx="867" cy="-1293.92" rx="38.47" ry="38.47"/>
<text text-anchor="middle" x="867" y="-1291.12" font-family="Monospace" font-size="11.00">PROGRAM</text>
</g>
<!-- PROGRAM&#45;&gt;_Exit -->
<g id="edge2" class="edge">
<title>PROGRAM&#45;&gt;_Exit</title>
<path fill="none" stroke="black" d="M828.36,-1292.18C719.14,-1289.62 410.22,-1278.81 319,-1237.43 294.09,-1226.13 286.65,-1219.69 274,-1195.43 243.86,-1137.63 207.24,-961.1 239,-904.18 274.25,-841.01 352.18,-805.13 408.22,-786.65"/>
<polygon fill="black" stroke="black" points="409.6,-789.89 418.06,-783.51 407.47,-783.22 409.6,-789.89"/>
<text text-anchor="middle" x="256" y="-924" font-family="Monospace" font-size="11.00">calls</text>
</g>
<!-- PROGRAM&#45;&gt;terminate -->
<g id="edge24" class="edge">
<title>PROGRAM&#45;&gt;terminate</title>
<path fill="none" stroke="black" d="M872.69,-1255.52C875.17,-1237.42 877.78,-1215.34 879,-1195.43 891.58,-990.25 873,-938.51 873,-732.95 873,-732.95 873,-732.95 873,-571.61 873,-536.67 853.25,-500.83 837.42,-477.72"/>
<polygon fill="black" stroke="black" points="840.24,-475.64 831.6,-469.52 834.53,-479.7 840.24,-475.64"/>
<text text-anchor="middle" x="890" y="-766.15" font-family="Monospace" font-size="11.00">calls</text>
</g>
<!-- PROGRAM&#45;&gt;terminateCause -->
<g id="edge23" class="edge">
<title>PROGRAM&#45;&gt;terminateCause</title>
<path fill="none" stroke="black" d="M852.14,-1258.16C845.67,-1243.04 837.67,-1224.33 829.33,-1204.8"/>
<polygon fill="black" stroke="black" points="832.49,-1203.3 825.34,-1195.48 826.05,-1206.05 832.49,-1203.3"/>
</g>
<!-- PROGRAM&#45;&gt;mainReturn -->
<g id="edge7" class="edge">
<title>PROGRAM&#45;&gt;mainReturn</title>
<path fill="none" stroke="darkorange" stroke-width="2" d="M828.34,-1291.93C690.37,-1288.12 227.52,-1272.78 172,-1237.43 130.13,-1210.77 106.18,-1156.66 94.13,-1119.97"/>
<polygon fill="darkorange" stroke="darkorange" stroke-width="2" points="97.37,-1118.61 91.04,-1110.12 90.7,-1120.71 97.37,-1118.61"/>
</g>
<!-- PROGRAM&#45;&gt;exit -->
<g id="edge10" class="edge">
<title>PROGRAM&#45;&gt;exit</title>
<path fill="none" stroke="black" d="M828.48,-1291.86C714.87,-1288.33 382.86,-1275 282,-1237.43 251.84,-1226.19 239.84,-1222.86 223,-1195.43 222.34,-1194.35 177.05,-890.98 163.07,-797.23"/>
<polygon fill="black" stroke="black" points="166.49,-796.48 161.56,-787.11 159.57,-797.51 166.49,-796.48"/>
<text text-anchor="middle" x="203" y="-924" font-family="Monospace" font-size="11.00">calls</text>
</g>
<!-- PROGRAM&#45;&gt;quick_exit -->
<g id="edge17" class="edge">
<title>PROGRAM&#45;&gt;quick_exit</title>
<path fill="none" stroke="black" d="M830.81,-1279.98C790.21,-1264.27 723.79,-1234.91 676,-1195.43 645.61,-1170.32 619.11,-1132.98 603.34,-1108.18"/>
<polygon fill="black" stroke="black" points="606.29,-1106.29 598.03,-1099.66 600.35,-1109.99 606.29,-1106.29"/>
<text text-anchor="middle" x="751" y="-1222.63" font-family="Monospace" font-size="11.00">calls</text>
</g>
<!-- PROGRAM&#45;&gt;unexpected -->
<g id="edge34" class="edge">
<title>PROGRAM&#45;&gt;unexpected</title>
<path fill="none" stroke="#c2c2c2" d="M902.07,-1277.55C918.93,-1268.35 937.86,-1255 949,-1237.43 1014.03,-1134.87 931.49,-1073.29 991,-967.43 1009.04,-935.34 1040.15,-908.41 1067.63,-889.07"/>
<polygon fill="#c2c2c2" stroke="#c2c2c2" points="1069.76,-891.86 1076.03,-883.32 1065.8,-886.08 1069.76,-891.86"/>
<text text-anchor="middle" x="1008" y="-1078.63" font-family="Monospace" font-size="11.00" fill="#424242">calls</text>
</g>
<!-- PROGRAM&#45;&gt;unexpectedCause -->
<g id="edge33" class="edge">
<title>PROGRAM&#45;&gt;unexpectedCause</title>
<path fill="none" stroke="#c2c2c2" d="M903.84,-1282.01C930.78,-1272.88 967.3,-1258.02 995,-1237.43 1039.97,-1204.01 1079.62,-1152.3 1103.21,-1117.92"/>
<polygon fill="#c2c2c2" stroke="#c2c2c2" points="1106.15,-1119.82 1108.85,-1109.57 1100.35,-1115.9 1106.15,-1119.82"/>
</g>
<!-- PROGRAM&#45;&gt;abort -->
<g id="edge31" class="edge">
<title>PROGRAM&#45;&gt;abort</title>
<path fill="none" stroke="black" d="M884.87,-1259.72C905.01,-1219.11 935,-1147.71 935,-1082.43 935,-1082.43 935,-1082.43 935,-804.95 935,-726.38 921,-707.29 921,-628.72 921,-628.72 921,-628.72 921,-366.5 921,-348.34 921,-327.92 921,-312"/>
<polygon fill="black" stroke="black" points="924.5,-311.78 921,-301.78 917.5,-311.78 924.5,-311.78"/>
<text text-anchor="middle" x="944" y="-680.04" font-family="Monospace" font-size="11.00">calls</text>
</g>
<!-- PROGRAM&#45;&gt;raise -->
<g id="edge41" class="edge">
<title>PROGRAM&#45;&gt;raise</title>
<path fill="none" stroke="black" d="M905.72,-1293.91C978.83,-1293.61 1137.91,-1282.28 1228,-1195.43 1265.85,-1158.94 1263,-1135.01 1263,-1082.43 1263,-1082.43 1263,-1082.43 1263,-282.5 1263,-264.23 1265.23,-243.81 1267.48,-227.91"/>
<polygon fill="black" stroke="black" points="1270.98,-228.12 1269,-217.72 1264.06,-227.09 1270.98,-228.12"/>
<text text-anchor="middle" x="1280" y="-624.92" font-family="Monospace" font-size="11.00">calls</text>
</g>
<!-- PROGRAM&#45;&gt;_exit -->
<g id="edge3" class="edge">
<title>PROGRAM&#45;&gt;_exit</title>
<path fill="none" stroke="gray" d="M828.14,-1292.43C711.49,-1290.08 368.15,-1276.29 300,-1195.43 267.35,-1156.69 273.85,-1010.83 300,-967.43 303.76,-961.19 308.87,-955.88 314.67,-951.37"/>
<polygon fill="gray" stroke="gray" points="316.66,-954.25 322.94,-945.71 312.71,-948.47 316.66,-954.25"/>
<text text-anchor="middle" x="419.5" y="-1228.63" font-family="Monospace" font-size="11.00" fill="#707070">calls</text>
<text text-anchor="middle" x="419.5" y="-1216.63" font-family="Monospace" font-size="11.00" fill="#707070">[POSIX&#45;specific]</text>
</g>
<!-- PROGRAM&#45;&gt;__fastfail -->
<g id="edge1" class="edge">
<title>PROGRAM&#45;&gt;__fastfail</title>
<path fill="none" stroke="gray" d="M905.5,-1292.67C996.3,-1291.31 1220.44,-1283.29 1277,-1237.43 1387.06,-1148.18 1408.12,-963.01 1412.1,-888.33"/>
<polygon fill="gray" stroke="gray" points="1415.6,-888.29 1412.57,-878.14 1408.61,-887.97 1415.6,-888.29"/>
<text text-anchor="middle" x="1471" y="-1084.63" font-family="Monospace" font-size="11.00" fill="#707070">calls</text>
<text text-anchor="middle" x="1471" y="-1072.63" font-family="Monospace" font-size="11.00" fill="#707070">[Microsoft&#45;specific]</text>
</g>
</g>
</svg>
