<?xml version="1.0" encoding="UTF-8" standalone="no"?>
<!DOCTYPE svg PUBLIC "-//W3C//DTD SVG 1.1//EN"
 "http://www.w3.org/Graphics/SVG/1.1/DTD/svg11.dtd">
<!-- Generated by graphviz version 2.43.0 (0)
 -->
<!-- Title: g Pages: 1 -->
<svg width="1546pt" height="1089pt"
 viewBox="0.00 0.00 1545.82 1088.98" xmlns="http://www.w3.org/2000/svg" xmlns:xlink="http://www.w3.org/1999/xlink">
<g id="graph0" class="graph" transform="scale(1 1) rotate(0) translate(4 1084.98)">
<title>g</title>
<polygon fill="white" stroke="transparent" points="-4,4 -4,-1084.98 1541.82,-1084.98 1541.82,4 -4,4"/>
<!-- exit -->
<g id="node1" class="node">
<title>exit</title>
<ellipse fill="lightgrey" stroke="black" cx="751.62" cy="-629.75" rx="107.78" ry="18"/>
<text text-anchor="middle" x="751.62" y="-626.95" font-family="Monospace" font-size="11.00">std::exit(int exit_code)</text>
</g>
<!-- Cleanup -->
<g id="node2" class="node">
<title>Cleanup</title>
<polygon fill="none" stroke="black" points="818.62,-574.75 612.62,-574.75 612.62,-518.75 818.62,-518.75 818.62,-574.75"/>
<text text-anchor="middle" x="715.62" y="-561.95" font-family="Monospace" font-size="11.00">Normal Program Termination:</text>
<text text-anchor="middle" x="715.62" y="-549.95" font-family="Monospace" font-size="11.00">destroys all static objects;</text>
<text text-anchor="middle" x="715.62" y="-537.95" font-family="Monospace" font-size="11.00"> flushes all buffers;</text>
<text text-anchor="middle" x="715.62" y="-525.95" font-family="Monospace" font-size="11.00"> closes all I/O channels</text>
</g>
<!-- exit&#45;&gt;Cleanup -->
<g id="edge11" class="edge">
<title>exit&#45;&gt;Cleanup</title>
<path fill="none" stroke="darkorange" stroke-width="2" d="M743.99,-611.58C740.43,-603.57 736.05,-593.71 731.8,-584.16"/>
<polygon fill="darkorange" stroke="darkorange" stroke-width="2" points="734.9,-582.51 727.64,-574.79 728.5,-585.35 734.9,-582.51"/>
</g>
<!-- atexit_func -->
<g id="node3" class="node">
<title>atexit_func</title>
<ellipse fill="none" stroke="black" cx="752.62" cy="-448.13" rx="82.97" ry="18"/>
<text text-anchor="middle" x="752.62" y="-445.33" font-family="Monospace" font-size="11.00">std::atexit() func</text>
</g>
<!-- Cleanup&#45;&gt;atexit_func -->
<g id="edge12" class="edge">
<title>Cleanup&#45;&gt;atexit_func</title>
<path fill="none" stroke="darkorange" stroke-width="2" d="M726.03,-518.58C731.17,-505.15 737.36,-489 742.47,-475.65"/>
<polygon fill="darkorange" stroke="darkorange" stroke-width="2" points="745.82,-476.68 746.13,-466.09 739.28,-474.17 745.82,-476.68"/>
</g>
<!-- atexit_func&#45;&gt;atexit_func -->
<g id="edge14" class="edge">
<title>atexit_func&#45;&gt;atexit_func</title>
<path fill="none" stroke="black" d="M826.15,-456.5C842.06,-455.68 853.61,-452.89 853.61,-448.13 853.61,-444.44 846.7,-441.94 836.21,-440.62"/>
<polygon fill="black" stroke="black" points="836.41,-437.12 826.15,-439.76 835.81,-444.1 836.41,-437.12"/>
<text text-anchor="middle" x="884.11" y="-445.33" font-family="Monospace" font-size="11.00">next func</text>
</g>
<!-- terminate -->
<g id="node5" class="node">
<title>terminate</title>
<ellipse fill="lightgrey" stroke="black" cx="773.62" cy="-359.5" rx="75.33" ry="18"/>
<text text-anchor="middle" x="773.62" y="-356.7" font-family="Monospace" font-size="11.00">std::terminate()</text>
</g>
<!-- atexit_func&#45;&gt;terminate -->
<g id="edge15" class="edge">
<title>atexit_func&#45;&gt;terminate</title>
<path fill="none" stroke="black" d="M756.77,-430.01C759.71,-417.91 763.7,-401.44 767.06,-387.56"/>
<polygon fill="black" stroke="black" points="770.53,-388.12 769.48,-377.58 763.72,-386.47 770.53,-388.12"/>
<text text-anchor="middle" x="813.12" y="-398.7" font-family="Monospace" font-size="11.00">if func throws</text>
</g>
<!-- END -->
<g id="node26" class="node">
<title>END</title>
<ellipse fill="none" stroke="black" cx="704.62" cy="-26.25" rx="22.46" ry="22.46"/>
<ellipse fill="none" stroke="black" cx="704.62" cy="-26.25" rx="26.5" ry="26.5"/>
<text text-anchor="middle" x="704.62" y="-23.45" font-family="Monospace" font-size="11.00">END</text>
</g>
<!-- atexit_func&#45;&gt;END -->
<g id="edge16" class="edge">
<title>atexit_func&#45;&gt;END</title>
<path fill="none" stroke="darkorange" stroke-width="2" d="M722.55,-431.14C699.15,-416.29 670.62,-391.77 670.62,-360.5 670.62,-360.5 670.62,-360.5 670.62,-106.5 670.62,-89.31 677.46,-71.59 685.01,-57.28"/>
<polygon fill="darkorange" stroke="darkorange" stroke-width="2" points="688.15,-58.84 690.01,-48.41 682.05,-55.4 688.15,-58.84"/>
<text text-anchor="middle" x="701.12" y="-230.7" font-family="Monospace" font-size="11.00">otherwise</text>
</g>
<!-- atexit -->
<g id="node4" class="node">
<title>atexit</title>
<ellipse fill="none" stroke="black" cx="899.62" cy="-546.75" rx="62.58" ry="18"/>
<text text-anchor="middle" x="899.62" y="-543.95" font-family="Monospace" font-size="11.00">std::atexit()</text>
</g>
<!-- atexit&#45;&gt;atexit_func -->
<g id="edge13" class="edge">
<title>atexit&#45;&gt;atexit_func</title>
<path fill="none" stroke="black" d="M875.68,-530.01C851.3,-513.99 813.32,-489.03 786.01,-471.07"/>
<polygon fill="black" stroke="black" points="787.82,-468.07 777.54,-465.51 783.97,-473.92 787.82,-468.07"/>
<text text-anchor="middle" x="844.62" y="-491.95" font-family="Monospace" font-size="11.00">sets</text>
</g>
<!-- terminate_handler -->
<g id="node11" class="node">
<title>terminate_handler</title>
<ellipse fill="none" stroke="black" cx="841.62" cy="-275.5" rx="87.39" ry="18"/>
<text text-anchor="middle" x="841.62" y="-272.7" font-family="Monospace" font-size="11.00">terminate_handler()</text>
</g>
<!-- terminate&#45;&gt;terminate_handler -->
<g id="edge24" class="edge">
<title>terminate&#45;&gt;terminate_handler</title>
<path fill="none" stroke="black" d="M787.71,-341.51C797.38,-329.85 810.36,-314.2 821.16,-301.18"/>
<polygon fill="black" stroke="black" points="823.86,-303.4 827.55,-293.47 818.47,-298.93 823.86,-303.4"/>
</g>
<!-- abort -->
<g id="node6" class="node">
<title>abort</title>
<ellipse fill="lightgrey" stroke="black" cx="916.62" cy="-191.5" rx="58.86" ry="18"/>
<text text-anchor="middle" x="916.62" y="-188.7" font-family="Monospace" font-size="11.00">std::abort()</text>
</g>
<!-- user_signal_handler -->
<g id="node23" class="node">
<title>user_signal_handler</title>
<path fill="none" stroke="black" d="M1162.62,-125.5C1162.62,-125.5 994.62,-125.5 994.62,-125.5 988.62,-125.5 982.62,-119.5 982.62,-113.5 982.62,-113.5 982.62,-101.5 982.62,-101.5 982.62,-95.5 988.62,-89.5 994.62,-89.5 994.62,-89.5 1162.62,-89.5 1162.62,-89.5 1168.62,-89.5 1174.62,-95.5 1174.62,-101.5 1174.62,-101.5 1174.62,-113.5 1174.62,-113.5 1174.62,-119.5 1168.62,-125.5 1162.62,-125.5"/>
<text text-anchor="middle" x="1078.62" y="-104.7" font-family="Monospace" font-size="11.00">User ABRT signal handler()</text>
</g>
<!-- abort&#45;&gt;user_signal_handler -->
<g id="edge39" class="edge">
<title>abort&#45;&gt;user_signal_handler</title>
<path fill="none" stroke="black" d="M945.96,-175.65C971.03,-162.96 1007.42,-144.54 1035.76,-130.2"/>
<polygon fill="black" stroke="black" points="1037.69,-133.14 1045.03,-125.5 1034.52,-126.9 1037.69,-133.14"/>
<text text-anchor="middle" x="1027.12" y="-146.7" font-family="Monospace" font-size="11.00">if set</text>
</g>
<!-- abort&#45;&gt;END -->
<g id="edge17" class="edge">
<title>abort&#45;&gt;END</title>
<path fill="none" stroke="black" d="M913.5,-173.47C908.57,-151.25 896.94,-112.49 872.62,-89.5 835.85,-54.73 777.96,-39.01 740.65,-32.17"/>
<polygon fill="black" stroke="black" points="741.15,-28.71 730.7,-30.47 739.97,-35.61 741.15,-28.71"/>
<text text-anchor="middle" x="928.12" y="-104.7" font-family="Monospace" font-size="11.00">otherwise</text>
</g>
<!-- quick_exit -->
<g id="node7" class="node">
<title>quick_exit</title>
<ellipse fill="lightgrey" stroke="black" cx="1003.62" cy="-879.01" rx="78.55" ry="18"/>
<text text-anchor="middle" x="1003.62" y="-876.21" font-family="Monospace" font-size="11.00">std::quick_exit()</text>
</g>
<!-- at_quick_exit_func -->
<g id="node8" class="node">
<title>at_quick_exit_func</title>
<ellipse fill="none" stroke="black" cx="1077.62" cy="-707.38" rx="111.5" ry="18"/>
<text text-anchor="middle" x="1077.62" y="-704.58" font-family="Monospace" font-size="11.00">std::at_quick_exit() func</text>
</g>
<!-- quick_exit&#45;&gt;at_quick_exit_func -->
<g id="edge19" class="edge">
<title>quick_exit&#45;&gt;at_quick_exit_func</title>
<path fill="none" stroke="black" d="M1011.13,-860.81C1024.07,-831.14 1050.67,-770.15 1066.02,-734.98"/>
<polygon fill="black" stroke="black" points="1069.42,-735.94 1070.21,-725.37 1063,-733.14 1069.42,-735.94"/>
</g>
<!-- at_quick_exit_func&#45;&gt;terminate -->
<g id="edge21" class="edge">
<title>at_quick_exit_func&#45;&gt;terminate</title>
<path fill="none" stroke="black" d="M1068.09,-689.23C1060.67,-674.26 1051.62,-651.72 1051.62,-630.75 1051.62,-630.75 1051.62,-630.75 1051.62,-447.13 1051.62,-355.94 948.65,-392.03 858.62,-377.5 851.93,-376.42 844.97,-375.19 838.03,-373.91"/>
<polygon fill="black" stroke="black" points="838.4,-370.41 827.93,-371.99 837.1,-377.29 838.4,-370.41"/>
<text text-anchor="middle" x="1099.12" y="-543.95" font-family="Monospace" font-size="11.00">if func throws</text>
</g>
<!-- at_quick_exit_func&#45;&gt;at_quick_exit_func -->
<g id="edge20" class="edge">
<title>at_quick_exit_func&#45;&gt;at_quick_exit_func</title>
<path fill="none" stroke="black" d="M1180.54,-714.22C1196.22,-713.18 1206.87,-710.9 1206.87,-707.38 1206.87,-704.69 1200.63,-702.72 1190.66,-701.48"/>
<polygon fill="black" stroke="black" points="1190.82,-697.98 1180.54,-700.54 1190.17,-704.95 1190.82,-697.98"/>
<text text-anchor="middle" x="1237.37" y="-704.58" font-family="Monospace" font-size="11.00">next func</text>
</g>
<!-- _Exit -->
<g id="node10" class="node">
<title>_Exit</title>
<ellipse fill="lightgrey" stroke="black" cx="1203.62" cy="-629.75" rx="91.31" ry="18"/>
<text text-anchor="middle" x="1203.62" y="-626.95" font-family="Monospace" font-size="11.00">_Exit(int exit_code)</text>
</g>
<!-- at_quick_exit_func&#45;&gt;_Exit -->
<g id="edge22" class="edge">
<title>at_quick_exit_func&#45;&gt;_Exit</title>
<path fill="none" stroke="black" d="M1105.27,-689.78C1123.62,-678.77 1147.87,-664.22 1167.7,-652.31"/>
<polygon fill="black" stroke="black" points="1169.7,-655.2 1176.47,-647.05 1166.09,-649.2 1169.7,-655.2"/>
</g>
<!-- at_quick_exit -->
<g id="node9" class="node">
<title>at_quick_exit</title>
<ellipse fill="none" stroke="black" cx="1191.62" cy="-879.01" rx="91.31" ry="18"/>
<text text-anchor="middle" x="1191.62" y="-876.21" font-family="Monospace" font-size="11.00">std::at_quick_exit()</text>
</g>
<!-- at_quick_exit&#45;&gt;at_quick_exit_func -->
<g id="edge18" class="edge">
<title>at_quick_exit&#45;&gt;at_quick_exit_func</title>
<path fill="none" stroke="black" d="M1180.27,-861.12C1160.27,-831.35 1118.6,-769.36 1094.97,-734.19"/>
<polygon fill="black" stroke="black" points="1097.58,-731.8 1089.09,-725.45 1091.77,-735.7 1097.58,-731.8"/>
<text text-anchor="middle" x="1141.62" y="-763.21" font-family="Monospace" font-size="11.00">sets</text>
</g>
<!-- _Exit&#45;&gt;END -->
<g id="edge23" class="edge">
<title>_Exit&#45;&gt;END</title>
<path fill="none" stroke="black" d="M1203.62,-611.69C1203.62,-595.3 1203.62,-569.83 1203.62,-547.75 1203.62,-547.75 1203.62,-547.75 1203.62,-106.5 1203.62,-59.66 856.29,-35.81 741.18,-29.2"/>
<polygon fill="black" stroke="black" points="741.28,-25.7 731.1,-28.63 740.89,-32.69 741.28,-25.7"/>
</g>
<!-- terminate_handler&#45;&gt;abort -->
<g id="edge25" class="edge">
<title>terminate_handler&#45;&gt;abort</title>
<path fill="none" stroke="black" d="M857.16,-257.51C868.07,-245.59 882.79,-229.48 894.86,-216.29"/>
<polygon fill="black" stroke="black" points="897.45,-218.65 901.61,-208.91 892.28,-213.92 897.45,-218.65"/>
<text text-anchor="middle" x="907.62" y="-230.7" font-family="Monospace" font-size="11.00">Default</text>
</g>
<!-- user_terminate_handler -->
<g id="node20" class="node">
<title>user_terminate_handler</title>
<path fill="none" stroke="black" d="M852.12,-125.5C852.12,-125.5 711.12,-125.5 711.12,-125.5 705.12,-125.5 699.12,-119.5 699.12,-113.5 699.12,-113.5 699.12,-101.5 699.12,-101.5 699.12,-95.5 705.12,-89.5 711.12,-89.5 711.12,-89.5 852.12,-89.5 852.12,-89.5 858.12,-89.5 864.12,-95.5 864.12,-101.5 864.12,-101.5 864.12,-113.5 864.12,-113.5 864.12,-119.5 858.12,-125.5 852.12,-125.5"/>
<text text-anchor="middle" x="781.62" y="-104.7" font-family="Monospace" font-size="11.00">User Terminate Handler</text>
</g>
<!-- terminate_handler&#45;&gt;user_terminate_handler -->
<g id="edge26" class="edge">
<title>terminate_handler&#45;&gt;user_terminate_handler</title>
<path fill="none" stroke="black" d="M822.52,-257.8C810.17,-245.75 795.06,-228.33 787.62,-209.5 778.28,-185.85 777.58,-156.65 778.74,-135.74"/>
<polygon fill="black" stroke="black" points="782.24,-135.86 779.48,-125.63 775.26,-135.35 782.24,-135.86"/>
<text text-anchor="middle" x="818.12" y="-188.7" font-family="Monospace" font-size="11.00">otherwise</text>
</g>
<!-- mainReturn -->
<g id="node12" class="node">
<title>mainReturn</title>
<path fill="none" stroke="black" d="M818.62,-897.01C818.62,-897.01 704.62,-897.01 704.62,-897.01 698.62,-897.01 692.62,-891.01 692.62,-885.01 692.62,-885.01 692.62,-873.01 692.62,-873.01 692.62,-867.01 698.62,-861.01 704.62,-861.01 704.62,-861.01 818.62,-861.01 818.62,-861.01 824.62,-861.01 830.62,-867.01 830.62,-873.01 830.62,-873.01 830.62,-885.01 830.62,-885.01 830.62,-891.01 824.62,-897.01 818.62,-897.01"/>
<text text-anchor="middle" x="761.62" y="-876.21" font-family="Monospace" font-size="11.00">return from main()</text>
</g>
<!-- destroyLocal -->
<g id="node13" class="node">
<title>destroyLocal</title>
<polygon fill="none" stroke="black" points="830.62,-725.38 672.62,-725.38 672.62,-689.38 830.62,-689.38 830.62,-725.38"/>
<text text-anchor="middle" x="751.62" y="-710.58" font-family="Monospace" font-size="11.00">Destroy local objects</text>
<text text-anchor="middle" x="751.62" y="-698.58" font-family="Monospace" font-size="11.00">and unwind stack.</text>
</g>
<!-- mainReturn&#45;&gt;destroyLocal -->
<g id="edge29" class="edge">
<title>mainReturn&#45;&gt;destroyLocal</title>
<path fill="none" stroke="darkorange" stroke-width="2" d="M760.61,-860.81C758.87,-831.35 755.31,-770.99 753.23,-735.71"/>
<polygon fill="darkorange" stroke="darkorange" stroke-width="2" points="756.72,-735.4 752.64,-725.63 749.73,-735.81 756.72,-735.4"/>
</g>
<!-- destroyLocal&#45;&gt;exit -->
<g id="edge30" class="edge">
<title>destroyLocal&#45;&gt;exit</title>
<path fill="none" stroke="darkorange" stroke-width="2" d="M751.62,-689.22C751.62,-680.03 751.62,-668.5 751.62,-658.11"/>
<polygon fill="darkorange" stroke="darkorange" stroke-width="2" points="755.12,-657.85 751.62,-647.85 748.12,-657.85 755.12,-657.85"/>
</g>
<!-- terminateCause -->
<g id="node14" class="node">
<title>terminateCause</title>
<path fill="none" stroke="black" d="M662.12,-956.01C662.12,-956.01 507.12,-956.01 507.12,-956.01 501.12,-956.01 495.12,-950.01 495.12,-944.01 495.12,-944.01 495.12,-814.01 495.12,-814.01 495.12,-808.01 501.12,-802.01 507.12,-802.01 507.12,-802.01 662.12,-802.01 662.12,-802.01 668.12,-802.01 674.12,-808.01 674.12,-814.01 674.12,-814.01 674.12,-944.01 674.12,-944.01 674.12,-950.01 668.12,-956.01 662.12,-956.01"/>
<text text-anchor="middle" x="584.62" y="-943.21" font-family="Monospace" font-size="11.00">An exception is thrown</text>
<text text-anchor="middle" x="584.62" y="-931.21" font-family="Monospace" font-size="11.00">and not caught;</text>
<text text-anchor="middle" x="584.62" y="-906.21" font-family="Monospace" font-size="11.00">A noexcept specification</text>
<text text-anchor="middle" x="584.62" y="-894.21" font-family="Monospace" font-size="11.00">is violated;</text>
<text text-anchor="middle" x="584.62" y="-869.21" font-family="Monospace" font-size="11.00">Uncaught exception</text>
<text text-anchor="middle" x="584.62" y="-857.21" font-family="Monospace" font-size="11.00">during the execution</text>
<text text-anchor="middle" x="584.62" y="-845.21" font-family="Monospace" font-size="11.00">of a parallel</text>
<text text-anchor="middle" x="584.62" y="-833.21" font-family="Monospace" font-size="11.00">algorithm element</text>
<text text-anchor="middle" x="584.62" y="-821.21" font-family="Monospace" font-size="11.00">access [C++17];</text>
<text text-anchor="middle" x="584.62" y="-809.21" font-family="Monospace" font-size="11.00">...</text>
</g>
<!-- terminateCause&#45;&gt;terminate -->
<g id="edge28" class="edge">
<title>terminateCause&#45;&gt;terminate</title>
<path fill="none" stroke="black" d="M584.62,-801.59C584.62,-772.42 584.62,-738.86 584.62,-708.38 584.62,-708.38 584.62,-708.38 584.62,-592.75 584.62,-511.1 602.12,-482.46 660.62,-425.5 680.13,-406.5 706.26,-391.01 728.48,-379.91"/>
<polygon fill="black" stroke="black" points="730.26,-382.94 737.73,-375.43 727.21,-376.64 730.26,-382.94"/>
</g>
<!-- unexpectedCause -->
<g id="node15" class="node">
<title>unexpectedCause</title>
<path fill="none" stroke="black" d="M394.12,-901.01C394.12,-901.01 233.12,-901.01 233.12,-901.01 227.12,-901.01 221.12,-895.01 221.12,-889.01 221.12,-889.01 221.12,-869.01 221.12,-869.01 221.12,-863.01 227.12,-857.01 233.12,-857.01 233.12,-857.01 394.12,-857.01 394.12,-857.01 400.12,-857.01 406.12,-863.01 406.12,-869.01 406.12,-869.01 406.12,-889.01 406.12,-889.01 406.12,-895.01 400.12,-901.01 394.12,-901.01"/>
<text text-anchor="middle" x="313.62" y="-888.21" font-family="Monospace" font-size="11.00">A dynamic exception</text>
<text text-anchor="middle" x="313.62" y="-876.21" font-family="Monospace" font-size="11.00">specification is violated</text>
<text text-anchor="middle" x="313.62" y="-864.21" font-family="Monospace" font-size="11.00">[DEPRECATED]</text>
</g>
<!-- unexpected -->
<g id="node16" class="node">
<title>unexpected</title>
<ellipse fill="lightgrey" stroke="black" cx="333.62" cy="-707.38" rx="92.76" ry="22.76"/>
<text text-anchor="middle" x="333.62" y="-710.58" font-family="Monospace" font-size="11.00">std::unexpected()</text>
<text text-anchor="middle" x="333.62" y="-698.58" font-family="Monospace" font-size="11.00">[DEPRECATED]</text>
</g>
<!-- unexpectedCause&#45;&gt;unexpected -->
<g id="edge31" class="edge">
<title>unexpectedCause&#45;&gt;unexpected</title>
<path fill="none" stroke="black" d="M316.11,-856.87C319.56,-827.62 325.82,-774.56 329.84,-740.42"/>
<polygon fill="black" stroke="black" points="333.37,-740.4 331.07,-730.06 326.42,-739.58 333.37,-740.4"/>
</g>
<!-- unexpected_handler -->
<g id="node17" class="node">
<title>unexpected_handler</title>
<ellipse fill="none" stroke="black" cx="451.62" cy="-448.13" rx="130.63" ry="22.76"/>
<text text-anchor="middle" x="451.62" y="-451.33" font-family="Monospace" font-size="11.00">std::unexpected_handler()</text>
<text text-anchor="middle" x="451.62" y="-439.33" font-family="Monospace" font-size="11.00">[DEPRECATED]</text>
</g>
<!-- unexpected&#45;&gt;unexpected_handler -->
<g id="edge32" class="edge">
<title>unexpected&#45;&gt;unexpected_handler</title>
<path fill="none" stroke="black" d="M330.32,-684.65C325.84,-647.76 321.62,-571.74 352.62,-518.75 363.24,-500.61 380.68,-486.01 397.99,-474.96"/>
<polygon fill="black" stroke="black" points="400.26,-477.68 406.99,-469.5 396.63,-471.69 400.26,-477.68"/>
</g>
<!-- unexpected_handler&#45;&gt;terminate -->
<g id="edge33" class="edge">
<title>unexpected_handler&#45;&gt;terminate</title>
<path fill="none" stroke="black" d="M439.85,-425.53C436,-415.3 434.35,-403.57 441.62,-395.5 457.95,-377.36 596.52,-367.94 689.4,-363.62"/>
<polygon fill="black" stroke="black" points="689.81,-367.1 699.64,-363.15 689.49,-360.11 689.81,-367.1"/>
<text text-anchor="middle" x="536.62" y="-398.7" font-family="Monospace" font-size="11.00">Default &amp; if handler throws.</text>
</g>
<!-- user_unexpected_handler -->
<g id="node18" class="node">
<title>user_unexpected_handler</title>
<path fill="none" stroke="black" d="M556.62,-125.5C556.62,-125.5 408.62,-125.5 408.62,-125.5 402.62,-125.5 396.62,-119.5 396.62,-113.5 396.62,-113.5 396.62,-101.5 396.62,-101.5 396.62,-95.5 402.62,-89.5 408.62,-89.5 408.62,-89.5 556.62,-89.5 556.62,-89.5 562.62,-89.5 568.62,-95.5 568.62,-101.5 568.62,-101.5 568.62,-113.5 568.62,-113.5 568.62,-119.5 562.62,-125.5 556.62,-125.5"/>
<text text-anchor="middle" x="482.62" y="-104.7" font-family="Monospace" font-size="11.00">User Unexpected Handler</text>
</g>
<!-- unexpected_handler&#45;&gt;user_unexpected_handler -->
<g id="edge34" class="edge">
<title>unexpected_handler&#45;&gt;user_unexpected_handler</title>
<path fill="none" stroke="black" d="M433.47,-425.49C421.35,-408.82 407.62,-384.62 407.62,-360.5 407.62,-360.5 407.62,-360.5 407.62,-190.5 407.62,-166.24 425.72,-146.03 444.13,-131.74"/>
<polygon fill="black" stroke="black" points="446.53,-134.32 452.55,-125.6 442.41,-128.67 446.53,-134.32"/>
<text text-anchor="middle" x="438.12" y="-272.7" font-family="Monospace" font-size="11.00">otherwise</text>
</g>
<!-- user_unexpected_handler&#45;&gt;END -->
<g id="edge36" class="edge">
<title>user_unexpected_handler&#45;&gt;END</title>
<path fill="none" stroke="black" stroke-dasharray="5,2" d="M530.25,-89.5C572.47,-74.43 633.08,-52.79 670.6,-39.4"/>
<polygon fill="black" stroke="black" points="671.83,-42.67 680.07,-36.01 669.47,-36.08 671.83,-42.67"/>
</g>
<!-- set_unexpected -->
<g id="node19" class="node">
<title>set_unexpected</title>
<ellipse fill="none" stroke="black" cx="456.62" cy="-546.75" rx="95.02" ry="18"/>
<text text-anchor="middle" x="456.62" y="-543.95" font-family="Monospace" font-size="11.00">std::set_unexpected()</text>
</g>
<!-- set_unexpected&#45;&gt;unexpected_handler -->
<g id="edge35" class="edge">
<title>set_unexpected&#45;&gt;unexpected_handler</title>
<path fill="none" stroke="black" d="M455.73,-528.48C455.05,-515.42 454.11,-497.12 453.29,-481.39"/>
<polygon fill="black" stroke="black" points="456.77,-480.81 452.75,-471 449.78,-481.17 456.77,-480.81"/>
<text text-anchor="middle" x="468.62" y="-491.95" font-family="Monospace" font-size="11.00">sets</text>
</g>
<!-- user_terminate_handler&#45;&gt;END -->
<g id="edge37" class="edge">
<title>user_terminate_handler&#45;&gt;END</title>
<path fill="none" stroke="black" stroke-dasharray="5,2" d="M764.91,-89.3C754.68,-78.77 741.39,-65.09 729.89,-53.25"/>
<polygon fill="black" stroke="black" points="732.12,-50.53 722.64,-45.79 727.1,-55.41 732.12,-50.53"/>
</g>
<!-- set_terminate -->
<g id="node21" class="node">
<title>set_terminate</title>
<ellipse fill="none" stroke="black" cx="958.62" cy="-359.5" rx="91.31" ry="18"/>
<text text-anchor="middle" x="958.62" y="-356.7" font-family="Monospace" font-size="11.00">std::set_terminate()</text>
</g>
<!-- set_terminate&#45;&gt;terminate_handler -->
<g id="edge27" class="edge">
<title>set_terminate&#45;&gt;terminate_handler</title>
<path fill="none" stroke="black" d="M934.95,-341.91C917.26,-329.51 892.91,-312.44 873.51,-298.85"/>
<polygon fill="black" stroke="black" points="875.46,-295.94 865.26,-293.07 871.44,-301.67 875.46,-295.94"/>
<text text-anchor="middle" x="920.62" y="-314.7" font-family="Monospace" font-size="11.00">sets</text>
</g>
<!-- signal -->
<g id="node22" class="node">
<title>signal</title>
<ellipse fill="none" stroke="black" cx="1084.62" cy="-191.5" rx="91.31" ry="18"/>
<text text-anchor="middle" x="1084.62" y="-188.7" font-family="Monospace" font-size="11.00">std::signal(SIGABRT)</text>
</g>
<!-- signal&#45;&gt;user_signal_handler -->
<g id="edge38" class="edge">
<title>signal&#45;&gt;user_signal_handler</title>
<path fill="none" stroke="black" d="M1083.35,-173.11C1082.56,-162.27 1081.52,-148.1 1080.62,-135.79"/>
<polygon fill="black" stroke="black" points="1084.09,-135.3 1079.87,-125.58 1077.11,-135.81 1084.09,-135.3"/>
<text text-anchor="middle" x="1095.62" y="-146.7" font-family="Monospace" font-size="11.00">sets</text>
</g>
<!-- user_signal_handler&#45;&gt;END -->
<g id="edge40" class="edge">
<title>user_signal_handler&#45;&gt;END</title>
<path fill="none" stroke="black" stroke-dasharray="5,2" d="M1002.38,-89.41C975.04,-83.35 943.97,-76.53 915.62,-70.5 854.09,-57.4 782.3,-42.84 740.32,-34.39"/>
<polygon fill="black" stroke="black" points="740.8,-30.92 730.31,-32.38 739.42,-37.78 740.8,-30.92"/>
</g>
<!-- raise -->
<g id="node24" class="node">
<title>raise</title>
<ellipse fill="lightgrey" stroke="black" cx="1450.62" cy="-766.01" rx="87.39" ry="18"/>
<text text-anchor="middle" x="1450.62" y="-763.21" font-family="Monospace" font-size="11.00">std::raise(SIGABRT)</text>
</g>
<!-- raise&#45;&gt;user_signal_handler -->
<g id="edge41" class="edge">
<title>raise&#45;&gt;user_signal_handler</title>
<path fill="none" stroke="black" d="M1444.94,-747.83C1439.03,-728.39 1430.62,-695.65 1430.62,-666.75 1430.62,-666.75 1430.62,-666.75 1430.62,-190.5 1430.62,-139.49 1288.64,-120.2 1185.02,-112.91"/>
<polygon fill="black" stroke="black" points="1185.02,-109.4 1174.81,-112.22 1184.55,-116.39 1185.02,-109.4"/>
</g>
<!-- PROGRAM -->
<g id="node25" class="node">
<title>PROGRAM</title>
<ellipse fill="none" stroke="black" cx="833.62" cy="-1042.49" rx="38.47" ry="38.47"/>
<text text-anchor="middle" x="833.62" y="-1039.69" font-family="Monospace" font-size="11.00">PROGRAM</text>
</g>
<!-- PROGRAM&#45;&gt;exit -->
<g id="edge4" class="edge">
<title>PROGRAM&#45;&gt;exit</title>
<path fill="none" stroke="black" d="M838.86,-1004.31C849.4,-924.27 869.72,-738.54 839.62,-684.75 831.58,-670.38 817.96,-659.36 803.82,-651.15"/>
<polygon fill="black" stroke="black" points="805.45,-648.05 794.98,-646.39 802.13,-654.21 805.45,-648.05"/>
<text text-anchor="middle" x="872.62" y="-763.21" font-family="Monospace" font-size="11.00">calls</text>
</g>
<!-- PROGRAM&#45;&gt;terminate -->
<g id="edge8" class="edge">
<title>PROGRAM&#45;&gt;terminate</title>
<path fill="none" stroke="black" d="M848.75,-1006.81C851.52,-999.97 854.27,-992.81 856.62,-986.01 887.63,-896.32 958.72,-668.77 971.62,-574.75 975.01,-550.1 977.48,-542.94 971.62,-518.75 960.65,-473.45 956.67,-458.38 923.62,-425.5 899.58,-401.58 865.3,-385.83 835.58,-375.83"/>
<polygon fill="black" stroke="black" points="836.29,-372.38 825.7,-372.66 834.15,-379.05 836.29,-372.38"/>
<text text-anchor="middle" x="981.62" y="-626.95" font-family="Monospace" font-size="11.00">calls</text>
</g>
<!-- PROGRAM&#45;&gt;abort -->
<g id="edge7" class="edge">
<title>PROGRAM&#45;&gt;abort</title>
<path fill="none" stroke="black" d="M872.26,-1039.26C965.35,-1033.44 1199.7,-1016.17 1271.62,-986.01 1325.32,-963.49 1348.62,-938.24 1348.62,-880.01 1348.62,-880.01 1348.62,-880.01 1348.62,-274.5 1348.62,-192.33 1064.97,-226.7 984.62,-209.5 979.89,-208.49 974.98,-207.38 970.08,-206.23"/>
<polygon fill="black" stroke="black" points="970.59,-202.75 960.05,-203.83 968.96,-209.56 970.59,-202.75"/>
<text text-anchor="middle" x="1365.62" y="-543.95" font-family="Monospace" font-size="11.00">calls</text>
</g>
<!-- PROGRAM&#45;&gt;quick_exit -->
<g id="edge5" class="edge">
<title>PROGRAM&#45;&gt;quick_exit</title>
<path fill="none" stroke="black" d="M865.58,-1020.88C879.93,-1011.02 896.72,-998.64 910.62,-986.01 938.58,-960.61 966.62,-927.32 984.49,-904.88"/>
<polygon fill="black" stroke="black" points="987.37,-906.87 990.81,-896.85 981.88,-902.54 987.37,-906.87"/>
<text text-anchor="middle" x="938.62" y="-977.21" font-family="Monospace" font-size="11.00">calls</text>
</g>
<!-- PROGRAM&#45;&gt;_Exit -->
<g id="edge9" class="edge">
<title>PROGRAM&#45;&gt;_Exit</title>
<path fill="none" stroke="black" d="M872.39,-1040.35C972.98,-1036.48 1238.26,-1020.25 1291.62,-956.01 1310.91,-932.79 1291.9,-710.79 1276.62,-684.75 1268.91,-671.61 1256.61,-660.69 1244.29,-652.19"/>
<polygon fill="black" stroke="black" points="1246.1,-649.2 1235.81,-646.69 1242.3,-655.07 1246.1,-649.2"/>
<text text-anchor="middle" x="1310.62" y="-763.21" font-family="Monospace" font-size="11.00">calls</text>
</g>
<!-- PROGRAM&#45;&gt;mainReturn -->
<g id="edge1" class="edge">
<title>PROGRAM&#45;&gt;mainReturn</title>
<path fill="none" stroke="darkorange" stroke-width="2" d="M818.18,-1006.85C804.78,-976.81 785.68,-933.96 773.46,-906.56"/>
<polygon fill="darkorange" stroke="darkorange" stroke-width="2" points="776.57,-904.93 769.3,-897.22 770.17,-907.78 776.57,-904.93"/>
</g>
<!-- PROGRAM&#45;&gt;terminateCause -->
<g id="edge2" class="edge">
<title>PROGRAM&#45;&gt;terminateCause</title>
<path fill="none" stroke="black" d="M799.77,-1023.92C768.85,-1007.46 722.2,-981.63 683.62,-956.01 683.33,-955.82 683.05,-955.63 682.76,-955.43"/>
<polygon fill="black" stroke="black" points="684.59,-952.44 674.35,-949.72 680.65,-958.23 684.59,-952.44"/>
</g>
<!-- PROGRAM&#45;&gt;unexpectedCause -->
<g id="edge3" class="edge">
<title>PROGRAM&#45;&gt;unexpectedCause</title>
<path fill="none" stroke="black" d="M795.17,-1039.17C707.08,-1033.36 493.3,-1016.49 428.62,-986.01 391.11,-968.33 357.42,-934.01 336.35,-909.21"/>
<polygon fill="black" stroke="black" points="338.78,-906.65 329.7,-901.2 333.4,-911.13 338.78,-906.65"/>
</g>
<!-- PROGRAM&#45;&gt;unexpected -->
<g id="edge6" class="edge">
<title>PROGRAM&#45;&gt;unexpected</title>
<path fill="none" stroke="black" d="M795.37,-1038.02C708.54,-1029.36 500.35,-1003.98 451.62,-956.01 401.46,-906.62 446.78,-864.62 414.62,-802.01 401.99,-777.42 381.6,-753.9 364.44,-736.59"/>
<polygon fill="black" stroke="black" points="366.9,-734.09 357.32,-729.56 361.98,-739.08 366.9,-734.09"/>
<text text-anchor="middle" x="468.62" y="-876.21" font-family="Monospace" font-size="11.00">calls</text>
</g>
<!-- PROGRAM&#45;&gt;raise -->
<g id="edge10" class="edge">
<title>PROGRAM&#45;&gt;raise</title>
<path fill="none" stroke="black" d="M872.08,-1039.73C987.21,-1034.15 1323.61,-1015.46 1362.62,-986.01 1424.52,-939.29 1442.99,-841.95 1448.42,-794.38"/>
<polygon fill="black" stroke="black" points="1451.92,-794.52 1449.46,-784.21 1444.96,-793.8 1451.92,-794.52"/>
<text text-anchor="middle" x="1392.62" y="-977.21" font-family="Monospace" font-size="11.00">calls</text>
</g>
<!-- __fastfail -->
<g id="node27" class="node">
<title>__fastfail</title>
<ellipse fill="#f0f0f0" stroke="gray" cx="121.62" cy="-26.25" rx="121.74" ry="22.76"/>
<text text-anchor="middle" x="121.62" y="-29.45" font-family="Monospace" font-size="11.00" fill="#707070">__fastfail(FAST_FAIL_*)</text>
<text text-anchor="middle" x="121.62" y="-17.45" font-family="Monospace" font-size="11.00" fill="#707070">[Microsoft&#45;specific]</text>
</g>
<!-- PROGRAM&#45;&gt;__fastfail -->
<g id="edge42" class="edge">
<title>PROGRAM&#45;&gt;__fastfail</title>
<path fill="none" stroke="gray" d="M795,-1042.14C633.63,-1043.84 21.62,-1039.73 21.62,-880.01 21.62,-880.01 21.62,-880.01 21.62,-106.5 21.62,-82.36 39.75,-64.41 60.56,-51.75"/>
<polygon fill="gray" stroke="gray" points="62.3,-54.79 69.28,-46.82 58.85,-48.7 62.3,-54.79"/>
<text text-anchor="middle" x="89.62" y="-451.33" font-family="Monospace" font-size="11.00">calls</text>
<text text-anchor="middle" x="89.62" y="-439.33" font-family="Monospace" font-size="11.00">[Microsoft&#45;specific]</text>
</g>
<!-- _exit -->
<g id="node28" class="node">
<title>_exit</title>
<ellipse fill="#f0f0f0" stroke="gray" cx="484.62" cy="-26.25" rx="92.76" ry="22.76"/>
<text text-anchor="middle" x="484.62" y="-29.45" font-family="Monospace" font-size="11.00" fill="#707070">_exit(int status)</text>
<text text-anchor="middle" x="484.62" y="-17.45" font-family="Monospace" font-size="11.00" fill="#707070">[POSIX&#45;specific]</text>
</g>
<!-- PROGRAM&#45;&gt;_exit -->
<g id="edge44" class="edge">
<title>PROGRAM&#45;&gt;_exit</title>
<path fill="none" stroke="gray" d="M794.95,-1041.73C672.63,-1041.67 297.12,-1034.93 211.62,-956.01 186.12,-932.46 193.62,-914.72 193.62,-880.01 193.62,-880.01 193.62,-880.01 193.62,-106.5 193.62,-65.43 302.89,-44.93 387.52,-35.22"/>
<polygon fill="gray" stroke="gray" points="388.15,-38.67 397.71,-34.09 387.38,-31.71 388.15,-38.67"/>
<text text-anchor="middle" x="248.12" y="-451.33" font-family="Monospace" font-size="11.00">calls</text>
<text text-anchor="middle" x="248.12" y="-439.33" font-family="Monospace" font-size="11.00">[POSIX&#45;specific]</text>
</g>
<!-- __fastfail&#45;&gt;END -->
<g id="edge43" class="edge">
<title>__fastfail&#45;&gt;END</title>
<path fill="none" stroke="gray" d="M191.95,-44.72C281.88,-65.69 442.17,-94.16 577.62,-71 610.37,-65.4 645.91,-52.22 671.04,-41.61"/>
<polygon fill="gray" stroke="gray" points="672.67,-44.72 680.46,-37.54 669.89,-38.29 672.67,-44.72"/>
</g>
<!-- _exit&#45;&gt;END -->
<g id="edge45" class="edge">
<title>_exit&#45;&gt;END</title>
<path fill="none" stroke="gray" d="M577.43,-26.25C607.64,-26.25 637.84,-26.25 668.05,-26.25"/>
<polygon fill="gray" stroke="gray" points="668.29,-29.75 678.29,-26.25 668.29,-22.75 668.29,-29.75"/>
</g>
</g>
</svg>
