<?xml version="1.0" encoding="UTF-8" standalone="no"?>
<!DOCTYPE svg PUBLIC "-//W3C//DTD SVG 1.1//EN"
 "http://www.w3.org/Graphics/SVG/1.1/DTD/svg11.dtd">
<!-- Generated by graphviz version 2.28.0 (20110507.0327)
 -->
<!-- Title: g Pages: 1 -->
<svg width="1536pt" height="1200pt"
 viewBox="0.00 0.00 1536.00 1200.00" xmlns="http://www.w3.org/2000/svg" xmlns:xlink="http://www.w3.org/1999/xlink">
<g id="graph1" class="graph" transform="scale(1 1) rotate(0) translate(4 1196)">
<title>g</title>
<polygon fill="white" stroke="white" points="-4,5 -4,-1196 1533,-1196 1533,5 -4,5"/>
<!-- exit -->
<g id="node1" class="node"><title>exit</title>
<ellipse fill="lightgrey" stroke="black" cx="392" cy="-704" rx="107.459" ry="18"/>
<text text-anchor="middle" x="392" y="-701.2" font-family="Monospace" font-size="11.00">std::exit(int exit_code)</text>
</g>
<!-- Cleanup -->
<g id="node2" class="node"><title>Cleanup</title>
<polygon fill="none" stroke="black" points="516,-604 310,-604 310,-548 516,-548 516,-604"/>
<text text-anchor="middle" x="413" y="-591.2" font-family="Monospace" font-size="11.00">Normal Program Termination:</text>
<text text-anchor="middle" x="413" y="-579.2" font-family="Monospace" font-size="11.00">destroys all static objects;</text>
<text text-anchor="middle" x="413" y="-567.2" font-family="Monospace" font-size="11.00"> flushes all buffers;</text>
<text text-anchor="middle" x="413" y="-555.2" font-family="Monospace" font-size="11.00"> closes all I/O channels</text>
</g>
<!-- exit&#45;&gt;Cleanup -->
<g id="edge22" class="edge"><title>exit&#45;&gt;Cleanup</title>
<path fill="none" stroke="darkorange" stroke-width="2" d="M394.876,-685.744C397.929,-667.427 402.848,-637.915 406.791,-614.254"/>
<polygon fill="darkorange" stroke="darkorange" points="410.277,-614.629 408.468,-604.19 403.372,-613.478 410.277,-614.629"/>
</g>
<!-- atexit_func -->
<g id="node3" class="node"><title>atexit_func</title>
<ellipse fill="none" stroke="black" cx="444" cy="-458" rx="82.477" ry="18"/>
<text text-anchor="middle" x="444" y="-455.2" font-family="Monospace" font-size="11.00">std::atexit() func</text>
</g>
<!-- Cleanup&#45;&gt;atexit_func -->
<g id="edge24" class="edge"><title>Cleanup&#45;&gt;atexit_func</title>
<path fill="none" stroke="darkorange" stroke-width="2" d="M420.268,-547.803C425.228,-529.244 431.772,-504.757 436.732,-486.197"/>
<polygon fill="darkorange" stroke="darkorange" points="440.174,-486.873 439.374,-476.309 433.411,-485.066 440.174,-486.873"/>
</g>
<!-- atexit_func&#45;&gt;atexit_func -->
<g id="edge28" class="edge"><title>atexit_func&#45;&gt;atexit_func</title>
<path fill="none" stroke="black" d="M512.706,-468.021C530.547,-467.405 544,-464.064 544,-458 544,-453.167 535.457,-450.065 522.958,-448.692"/>
<polygon fill="black" stroke="black" points="522.924,-445.181 512.706,-447.979 522.439,-452.164 522.924,-445.181"/>
<text text-anchor="middle" x="574.5" y="-455.2" font-family="Monospace" font-size="11.00">next func</text>
</g>
<!-- terminate -->
<g id="node5" class="node"><title>terminate</title>
<ellipse fill="lightgrey" stroke="black" cx="900" cy="-350" rx="75.251" ry="18"/>
<text text-anchor="middle" x="900" y="-347.2" font-family="Monospace" font-size="11.00">std::terminate()</text>
</g>
<!-- atexit_func&#45;&gt;terminate -->
<g id="edge30" class="edge"><title>atexit_func&#45;&gt;terminate</title>
<path fill="none" stroke="black" d="M465.771,-440.614C489.363,-423.806 528.777,-398.418 567,-386 590.48,-378.372 729.439,-365.455 820.273,-357.628"/>
<polygon fill="black" stroke="black" points="820.613,-361.112 830.277,-356.77 820.015,-354.137 820.613,-361.112"/>
<text text-anchor="middle" x="614.5" y="-401.2" font-family="Monospace" font-size="11.00">if func throws</text>
</g>
<!-- END -->
<g id="node26" class="node"><title>END</title>
<ellipse fill="none" stroke="black" cx="1023" cy="-26" rx="22.3563" ry="22.463"/>
<ellipse fill="none" stroke="black" cx="1023" cy="-26" rx="26.3754" ry="26.5014"/>
<text text-anchor="middle" x="1023" y="-23.2" font-family="Monospace" font-size="11.00">END</text>
</g>
<!-- atexit_func&#45;&gt;END -->
<g id="edge32" class="edge"><title>atexit_func&#45;&gt;END</title>
<path fill="none" stroke="darkorange" stroke-width="2" d="M445.839,-439.765C447.913,-418.809 451,-382.353 451,-351 451,-351 451,-351 451,-107 451,-52.6815 860.8,-33.0013 986.671,-28.2376"/>
<polygon fill="darkorange" stroke="darkorange" points="987.072,-31.7253 996.936,-27.8586 986.814,-24.73 987.072,-31.7253"/>
<text text-anchor="middle" x="481.5" y="-231.2" font-family="Monospace" font-size="11.00">otherwise</text>
</g>
<!-- atexit -->
<g id="node4" class="node"><title>atexit</title>
<ellipse fill="none" stroke="black" cx="199" cy="-876" rx="62.3086" ry="18"/>
<text text-anchor="middle" x="199" y="-873.2" font-family="Monospace" font-size="11.00">std::atexit()</text>
</g>
<!-- atexit&#45;&gt;atexit_func -->
<g id="edge26" class="edge"><title>atexit&#45;&gt;atexit_func</title>
<path fill="none" stroke="black" d="M199,-857.705C199,-835.038 199,-794.042 199,-759 199,-759 199,-759 199,-575 199,-503.343 285.67,-475.89 355.912,-465.407"/>
<polygon fill="black" stroke="black" points="356.723,-468.828 366.144,-463.98 355.756,-461.895 356.723,-468.828"/>
<text text-anchor="middle" x="213" y="-701.2" font-family="Monospace" font-size="11.00">sets</text>
</g>
<!-- terminate_handler -->
<g id="node11" class="node"><title>terminate_handler</title>
<ellipse fill="none" stroke="black" cx="1018" cy="-276" rx="87.2912" ry="18"/>
<text text-anchor="middle" x="1018" y="-273.2" font-family="Monospace" font-size="11.00">terminate_handler()</text>
</g>
<!-- terminate&#45;&gt;terminate_handler -->
<g id="edge48" class="edge"><title>terminate&#45;&gt;terminate_handler</title>
<path fill="none" stroke="black" d="M926.188,-333.021C942.876,-322.838 964.699,-309.522 982.882,-298.428"/>
<polygon fill="black" stroke="black" points="984.764,-301.38 991.477,-293.183 981.118,-295.404 984.764,-301.38"/>
</g>
<!-- abort -->
<g id="node6" class="node"><title>abort</title>
<ellipse fill="lightgrey" stroke="black" cx="1121" cy="-192" rx="58.3973" ry="18"/>
<text text-anchor="middle" x="1121" y="-189.2" font-family="Monospace" font-size="11.00">std::abort()</text>
</g>
<!-- user_signal_handler -->
<g id="node23" class="node"><title>user_signal_handler</title>
<polyline fill="none" stroke="black" points="1318,-126 1150,-126 "/>
<path fill="none" stroke="black" d="M1150,-126C1144,-126 1138,-120 1138,-114"/>
<polyline fill="none" stroke="black" points="1138,-114 1138,-102 "/>
<path fill="none" stroke="black" d="M1138,-102C1138,-96 1144,-90 1150,-90"/>
<polyline fill="none" stroke="black" points="1150,-90 1318,-90 "/>
<path fill="none" stroke="black" d="M1318,-90C1324,-90 1330,-96 1330,-102"/>
<polyline fill="none" stroke="black" points="1330,-102 1330,-114 "/>
<path fill="none" stroke="black" d="M1330,-114C1330,-120 1324,-126 1318,-126"/>
<text text-anchor="middle" x="1234" y="-105.2" font-family="Monospace" font-size="11.00">User ABRT signal handler()</text>
</g>
<!-- abort&#45;&gt;user_signal_handler -->
<g id="edge78" class="edge"><title>abort&#45;&gt;user_signal_handler</title>
<path fill="none" stroke="black" d="M1136.37,-174.19C1145.58,-164.67 1157.83,-152.92 1170,-144 1176.11,-139.522 1182.86,-135.226 1189.61,-131.271"/>
<polygon fill="black" stroke="black" points="1191.78,-134.067 1198.77,-126.105 1188.34,-127.971 1191.78,-134.067"/>
<text text-anchor="middle" x="1190.5" y="-147.2" font-family="Monospace" font-size="11.00">if set</text>
</g>
<!-- abort&#45;&gt;END -->
<g id="edge34" class="edge"><title>abort&#45;&gt;END</title>
<path fill="none" stroke="black" d="M1105.55,-174.528C1094.23,-161.901 1078.98,-143.693 1068,-126 1055.14,-105.277 1043.8,-80.2605 1035.72,-60.5599"/>
<polygon fill="black" stroke="black" points="1038.89,-59.0522 1031.92,-51.0762 1032.39,-61.6603 1038.89,-59.0522"/>
<text text-anchor="middle" x="1098.5" y="-105.2" font-family="Monospace" font-size="11.00">otherwise</text>
</g>
<!-- quick_exit -->
<g id="node7" class="node"><title>quick_exit</title>
<ellipse fill="lightgrey" stroke="black" cx="1296" cy="-989" rx="78.1646" ry="18"/>
<text text-anchor="middle" x="1296" y="-986.2" font-family="Monospace" font-size="11.00">std::quick_exit()</text>
</g>
<!-- at_quick_exit_func -->
<g id="node8" class="node"><title>at_quick_exit_func</title>
<ellipse fill="none" stroke="black" cx="1161" cy="-817" rx="111.372" ry="18"/>
<text text-anchor="middle" x="1161" y="-814.2" font-family="Monospace" font-size="11.00">std::at_quick_exit() func</text>
</g>
<!-- quick_exit&#45;&gt;at_quick_exit_func -->
<g id="edge38" class="edge"><title>quick_exit&#45;&gt;at_quick_exit_func</title>
<path fill="none" stroke="black" d="M1282.56,-971.078C1258.67,-940.989 1208.69,-878.053 1180.83,-842.974"/>
<polygon fill="black" stroke="black" points="1183.54,-840.76 1174.58,-835.106 1178.06,-845.113 1183.54,-840.76"/>
</g>
<!-- at_quick_exit_func&#45;&gt;terminate -->
<g id="edge42" class="edge"><title>at_quick_exit_func&#45;&gt;terminate</title>
<path fill="none" stroke="black" d="M1157.29,-798.698C1146.26,-751.342 1109.12,-618.453 1027,-548 1007.16,-530.977 988.99,-548.969 971,-530 925.452,-481.972 965.14,-443.864 933,-386 930.947,-382.304 928.416,-378.701 925.675,-375.299"/>
<polygon fill="black" stroke="black" points="928.272,-372.952 919.028,-367.776 923.026,-377.587 928.272,-372.952"/>
<text text-anchor="middle" x="1122.5" y="-573.2" font-family="Monospace" font-size="11.00">if func throws</text>
</g>
<!-- at_quick_exit_func&#45;&gt;at_quick_exit_func -->
<g id="edge40" class="edge"><title>at_quick_exit_func&#45;&gt;at_quick_exit_func</title>
<path fill="none" stroke="black" d="M1250.23,-827.745C1272.95,-827.039 1290,-823.457 1290,-817 1290,-811.552 1277.86,-808.151 1260.42,-806.797"/>
<polygon fill="black" stroke="black" points="1260.4,-803.291 1250.23,-806.255 1260.03,-810.281 1260.4,-803.291"/>
<text text-anchor="middle" x="1320.5" y="-814.2" font-family="Monospace" font-size="11.00">next func</text>
</g>
<!-- _Exit -->
<g id="node10" class="node"><title>_Exit</title>
<ellipse fill="lightgrey" stroke="black" cx="1437" cy="-704" rx="91.1053" ry="18"/>
<text text-anchor="middle" x="1437" y="-701.2" font-family="Monospace" font-size="11.00">_Exit(int exit_code)</text>
</g>
<!-- at_quick_exit_func&#45;&gt;_Exit -->
<g id="edge44" class="edge"><title>at_quick_exit_func&#45;&gt;_Exit</title>
<path fill="none" stroke="black" d="M1169.47,-799.023C1179.29,-781.235 1197.23,-753.975 1221,-740 1242.02,-727.637 1296.3,-718.871 1345.18,-713.203"/>
<polygon fill="black" stroke="black" points="1345.65,-716.673 1355.19,-712.076 1344.86,-709.717 1345.65,-716.673"/>
</g>
<!-- at_quick_exit -->
<g id="node9" class="node"><title>at_quick_exit</title>
<ellipse fill="none" stroke="black" cx="1108" cy="-989" rx="91.1053" ry="18"/>
<text text-anchor="middle" x="1108" y="-986.2" font-family="Monospace" font-size="11.00">std::at_quick_exit()</text>
</g>
<!-- at_quick_exit&#45;&gt;at_quick_exit_func -->
<g id="edge36" class="edge"><title>at_quick_exit&#45;&gt;at_quick_exit_func</title>
<path fill="none" stroke="black" d="M1113.37,-970.764C1122.64,-941.031 1141.7,-879.909 1152.69,-844.657"/>
<polygon fill="black" stroke="black" points="1156.06,-845.617 1155.69,-835.029 1149.37,-843.534 1156.06,-845.617"/>
<text text-anchor="middle" x="1162" y="-873.2" font-family="Monospace" font-size="11.00">sets</text>
</g>
<!-- _Exit&#45;&gt;END -->
<g id="edge46" class="edge"><title>_Exit&#45;&gt;END</title>
<path fill="none" stroke="black" d="M1437,-685.881C1437,-661.643 1437,-615.938 1437,-577 1437,-577 1437,-577 1437,-107 1437,-30.3762 1160.16,-25.5732 1059.24,-26.3677"/>
<polygon fill="black" stroke="black" points="1059.18,-22.8682 1049.21,-26.4702 1059.25,-29.8678 1059.18,-22.8682"/>
</g>
<!-- terminate_handler&#45;&gt;abort -->
<g id="edge50" class="edge"><title>terminate_handler&#45;&gt;abort</title>
<path fill="none" stroke="black" d="M1038.84,-258.406C1054.4,-246.019 1075.83,-228.959 1092.9,-215.369"/>
<polygon fill="black" stroke="black" points="1095.24,-217.978 1100.89,-209.011 1090.88,-212.501 1095.24,-217.978"/>
<text text-anchor="middle" x="1099" y="-231.2" font-family="Monospace" font-size="11.00">Default</text>
</g>
<!-- user_terminate_handler -->
<g id="node20" class="node"><title>user_terminate_handler</title>
<polyline fill="none" stroke="black" points="1010.25,-126 869.75,-126 "/>
<path fill="none" stroke="black" d="M869.75,-126C863.75,-126 857.75,-120 857.75,-114"/>
<polyline fill="none" stroke="black" points="857.75,-114 857.75,-102 "/>
<path fill="none" stroke="black" d="M857.75,-102C857.75,-96 863.75,-90 869.75,-90"/>
<polyline fill="none" stroke="black" points="869.75,-90 1010.25,-90 "/>
<path fill="none" stroke="black" d="M1010.25,-90C1016.25,-90 1022.25,-96 1022.25,-102"/>
<polyline fill="none" stroke="black" points="1022.25,-102 1022.25,-114 "/>
<path fill="none" stroke="black" d="M1022.25,-114C1022.25,-120 1016.25,-126 1010.25,-126"/>
<text text-anchor="middle" x="940" y="-105.2" font-family="Monospace" font-size="11.00">User Terminate Handler</text>
</g>
<!-- terminate_handler&#45;&gt;user_terminate_handler -->
<g id="edge52" class="edge"><title>terminate_handler&#45;&gt;user_terminate_handler</title>
<path fill="none" stroke="black" d="M1009.95,-257.86C996.343,-228.909 968.719,-170.119 952.554,-135.718"/>
<polygon fill="black" stroke="black" points="955.547,-133.857 948.127,-126.295 949.212,-136.834 955.547,-133.857"/>
<text text-anchor="middle" x="1016.5" y="-189.2" font-family="Monospace" font-size="11.00">otherwise</text>
</g>
<!-- mainReturn -->
<g id="node12" class="node"><title>mainReturn</title>
<polyline fill="none" stroke="black" points="439,-1007 325,-1007 "/>
<path fill="none" stroke="black" d="M325,-1007C319,-1007 313,-1001 313,-995"/>
<polyline fill="none" stroke="black" points="313,-995 313,-983 "/>
<path fill="none" stroke="black" d="M313,-983C313,-977 319,-971 325,-971"/>
<polyline fill="none" stroke="black" points="325,-971 439,-971 "/>
<path fill="none" stroke="black" d="M439,-971C445,-971 451,-977 451,-983"/>
<polyline fill="none" stroke="black" points="451,-983 451,-995 "/>
<path fill="none" stroke="black" d="M451,-995C451,-1001 445,-1007 439,-1007"/>
<text text-anchor="middle" x="382" y="-986.2" font-family="Monospace" font-size="11.00">return from main()</text>
</g>
<!-- destroyLocal -->
<g id="node13" class="node"><title>destroyLocal</title>
<polygon fill="none" stroke="black" points="471,-835 313,-835 313,-799 471,-799 471,-835"/>
<text text-anchor="middle" x="392" y="-820.2" font-family="Monospace" font-size="11.00">Destroy local objects</text>
<text text-anchor="middle" x="392" y="-808.2" font-family="Monospace" font-size="11.00">and unwind stack.</text>
</g>
<!-- mainReturn&#45;&gt;destroyLocal -->
<g id="edge58" class="edge"><title>mainReturn&#45;&gt;destroyLocal</title>
<path fill="none" stroke="darkorange" stroke-width="2" d="M383.014,-970.764C384.755,-941.159 388.327,-880.433 390.405,-845.112"/>
<polygon fill="darkorange" stroke="darkorange" points="393.905,-845.217 390.998,-835.029 386.917,-844.806 393.905,-845.217"/>
</g>
<!-- destroyLocal&#45;&gt;exit -->
<g id="edge60" class="edge"><title>destroyLocal&#45;&gt;exit</title>
<path fill="none" stroke="darkorange" stroke-width="2" d="M392,-798.656C392,-780.898 392,-753.04 392,-732.317"/>
<polygon fill="darkorange" stroke="darkorange" points="395.5,-732.222 392,-722.222 388.5,-732.222 395.5,-732.222"/>
</g>
<!-- terminateCause -->
<g id="node14" class="node"><title>terminateCause</title>
<polyline fill="none" stroke="black" points="910.25,-1066 755.75,-1066 "/>
<path fill="none" stroke="black" d="M755.75,-1066C749.75,-1066 743.75,-1060 743.75,-1054"/>
<polyline fill="none" stroke="black" points="743.75,-1054 743.75,-924 "/>
<path fill="none" stroke="black" d="M743.75,-924C743.75,-918 749.75,-912 755.75,-912"/>
<polyline fill="none" stroke="black" points="755.75,-912 910.25,-912 "/>
<path fill="none" stroke="black" d="M910.25,-912C916.25,-912 922.25,-918 922.25,-924"/>
<polyline fill="none" stroke="black" points="922.25,-924 922.25,-1054 "/>
<path fill="none" stroke="black" d="M922.25,-1054C922.25,-1060 916.25,-1066 910.25,-1066"/>
<text text-anchor="middle" x="833" y="-1053.2" font-family="Monospace" font-size="11.00">An exception is thrown</text>
<text text-anchor="middle" x="833" y="-1041.2" font-family="Monospace" font-size="11.00">and not caught;</text>
<text text-anchor="middle" x="833" y="-1016.2" font-family="Monospace" font-size="11.00">A noexcept specification</text>
<text text-anchor="middle" x="833" y="-1004.2" font-family="Monospace" font-size="11.00">is violated;</text>
<text text-anchor="middle" x="833" y="-979.2" font-family="Monospace" font-size="11.00">Uncaught exception</text>
<text text-anchor="middle" x="833" y="-967.2" font-family="Monospace" font-size="11.00">during the execution</text>
<text text-anchor="middle" x="833" y="-955.2" font-family="Monospace" font-size="11.00">of a parallel</text>
<text text-anchor="middle" x="833" y="-943.2" font-family="Monospace" font-size="11.00">algorithm element</text>
<text text-anchor="middle" x="833" y="-931.2" font-family="Monospace" font-size="11.00">access [C++17];</text>
<text text-anchor="middle" x="833" y="-919.2" font-family="Monospace" font-size="11.00">...</text>
</g>
<!-- terminateCause&#45;&gt;terminate -->
<g id="edge56" class="edge"><title>terminateCause&#45;&gt;terminate</title>
<path fill="none" stroke="black" d="M864.077,-911.841C873.305,-882.95 881,-849.434 881,-818 881,-818 881,-818 881,-457 881,-429.81 887.132,-399.304 892.428,-378.025"/>
<polygon fill="black" stroke="black" points="895.882,-378.648 895.008,-368.09 889.107,-376.889 895.882,-378.648"/>
</g>
<!-- unexpectedCause -->
<g id="node15" class="node"><title>unexpectedCause</title>
<polyline fill="none" stroke="black" points="642.25,-1011 481.75,-1011 "/>
<path fill="none" stroke="black" d="M481.75,-1011C475.75,-1011 469.75,-1005 469.75,-999"/>
<polyline fill="none" stroke="black" points="469.75,-999 469.75,-979 "/>
<path fill="none" stroke="black" d="M469.75,-979C469.75,-973 475.75,-967 481.75,-967"/>
<polyline fill="none" stroke="black" points="481.75,-967 642.25,-967 "/>
<path fill="none" stroke="black" d="M642.25,-967C648.25,-967 654.25,-973 654.25,-979"/>
<polyline fill="none" stroke="black" points="654.25,-979 654.25,-999 "/>
<path fill="none" stroke="black" d="M654.25,-999C654.25,-1005 648.25,-1011 642.25,-1011"/>
<text text-anchor="middle" x="562" y="-998.2" font-family="Monospace" font-size="11.00">A dynamic exception</text>
<text text-anchor="middle" x="562" y="-986.2" font-family="Monospace" font-size="11.00">specification is violated</text>
<text text-anchor="middle" x="562" y="-974.2" font-family="Monospace" font-size="11.00">[DEPRECATED]</text>
</g>
<!-- unexpected -->
<g id="node16" class="node"><title>unexpected</title>
<ellipse fill="lightgrey" stroke="black" cx="661" cy="-817" rx="92.4462" ry="22.7556"/>
<text text-anchor="middle" x="661" y="-820.2" font-family="Monospace" font-size="11.00">std::unexpected()</text>
<text text-anchor="middle" x="661" y="-808.2" font-family="Monospace" font-size="11.00">[DEPRECATED]</text>
</g>
<!-- unexpectedCause&#45;&gt;unexpected -->
<g id="edge62" class="edge"><title>unexpectedCause&#45;&gt;unexpected</title>
<path fill="none" stroke="black" d="M584.567,-966.883C602.348,-949.053 626.484,-922.012 641,-894 648.053,-880.389 652.768,-864.086 655.838,-850.075"/>
<polygon fill="black" stroke="black" points="659.346,-850.383 657.877,-839.891 652.482,-849.009 659.346,-850.383"/>
</g>
<!-- unexpected_handler -->
<g id="node17" class="node"><title>unexpected_handler</title>
<ellipse fill="none" stroke="black" cx="644" cy="-645" rx="130.223" ry="22.7556"/>
<text text-anchor="middle" x="644" y="-648.2" font-family="Monospace" font-size="11.00">std::unexpected_handler()</text>
<text text-anchor="middle" x="644" y="-636.2" font-family="Monospace" font-size="11.00">[DEPRECATED]</text>
</g>
<!-- unexpected&#45;&gt;unexpected_handler -->
<g id="edge64" class="edge"><title>unexpected&#45;&gt;unexpected_handler</title>
<path fill="none" stroke="black" d="M658.812,-794.123C655.867,-764.669 650.605,-712.047 647.21,-678.104"/>
<polygon fill="black" stroke="black" points="650.657,-677.395 646.179,-667.793 643.692,-678.091 650.657,-677.395"/>
</g>
<!-- unexpected_handler&#45;&gt;terminate -->
<g id="edge66" class="edge"><title>unexpected_handler&#45;&gt;terminate</title>
<path fill="none" stroke="black" d="M648.344,-622.177C656.434,-581.854 673.322,-499.278 677,-494 720.069,-432.189 799.323,-390.932 850.822,-369.232"/>
<polygon fill="black" stroke="black" points="852.189,-372.454 860.1,-365.407 849.521,-365.982 852.189,-372.454"/>
<text text-anchor="middle" x="772" y="-509.2" font-family="Monospace" font-size="11.00">Default &amp; if handler throws.</text>
</g>
<!-- user_unexpected_handler -->
<g id="node18" class="node"><title>user_unexpected_handler</title>
<polyline fill="none" stroke="black" points="770,-126 622,-126 "/>
<path fill="none" stroke="black" d="M622,-126C616,-126 610,-120 610,-114"/>
<polyline fill="none" stroke="black" points="610,-114 610,-102 "/>
<path fill="none" stroke="black" d="M610,-102C610,-96 616,-90 622,-90"/>
<polyline fill="none" stroke="black" points="622,-90 770,-90 "/>
<path fill="none" stroke="black" d="M770,-90C776,-90 782,-96 782,-102"/>
<polyline fill="none" stroke="black" points="782,-102 782,-114 "/>
<path fill="none" stroke="black" d="M782,-114C782,-120 776,-126 770,-126"/>
<text text-anchor="middle" x="696" y="-105.2" font-family="Monospace" font-size="11.00">User Unexpected Handler</text>
</g>
<!-- unexpected_handler&#45;&gt;user_unexpected_handler -->
<g id="edge68" class="edge"><title>unexpected_handler&#45;&gt;user_unexpected_handler</title>
<path fill="none" stroke="black" d="M642.392,-622.226C640.615,-596.242 638,-551.476 638,-513 638,-513 638,-513 638,-191 638,-168.727 652.44,-148.265 666.91,-133.353"/>
<polygon fill="black" stroke="black" points="669.665,-135.557 674.403,-126.081 664.789,-130.534 669.665,-135.557"/>
<text text-anchor="middle" x="668.5" y="-347.2" font-family="Monospace" font-size="11.00">otherwise</text>
</g>
<!-- user_unexpected_handler&#45;&gt;END -->
<g id="edge72" class="edge"><title>user_unexpected_handler&#45;&gt;END</title>
<path fill="none" stroke="black" stroke-dasharray="5,2" d="M765.749,-89.9361C833.978,-73.244 935.105,-48.5034 987.947,-35.5756"/>
<polygon fill="black" stroke="black" points="988.966,-38.9296 997.848,-33.1534 987.303,-32.1302 988.966,-38.9296"/>
</g>
<!-- set_unexpected -->
<g id="node19" class="node"><title>set_unexpected</title>
<ellipse fill="none" stroke="black" cx="540" cy="-876" rx="95.0171" ry="18"/>
<text text-anchor="middle" x="540" y="-873.2" font-family="Monospace" font-size="11.00">std::set_unexpected()</text>
</g>
<!-- set_unexpected&#45;&gt;unexpected_handler -->
<g id="edge70" class="edge"><title>set_unexpected&#45;&gt;unexpected_handler</title>
<path fill="none" stroke="black" d="M542.538,-857.81C545.349,-841.108 550.623,-815.229 559,-794 576.053,-750.788 604.099,-704.994 623.277,-675.989"/>
<polygon fill="black" stroke="black" points="626.273,-677.806 628.923,-667.547 620.454,-673.914 626.273,-677.806"/>
<text text-anchor="middle" x="598" y="-755.2" font-family="Monospace" font-size="11.00">sets</text>
</g>
<!-- user_terminate_handler&#45;&gt;END -->
<g id="edge74" class="edge"><title>user_terminate_handler&#45;&gt;END</title>
<path fill="none" stroke="black" stroke-dasharray="5,2" d="M958.01,-89.6412C969.381,-78.6811 984.26,-64.3394 996.912,-52.1448"/>
<polygon fill="black" stroke="black" points="999.68,-54.3387 1004.45,-44.8789 994.822,-49.2986 999.68,-54.3387"/>
</g>
<!-- set_terminate -->
<g id="node21" class="node"><title>set_terminate</title>
<ellipse fill="none" stroke="black" cx="1063" cy="-512" rx="91.1053" ry="18"/>
<text text-anchor="middle" x="1063" y="-509.2" font-family="Monospace" font-size="11.00">std::set_terminate()</text>
</g>
<!-- set_terminate&#45;&gt;terminate_handler -->
<g id="edge54" class="edge"><title>set_terminate&#45;&gt;terminate_handler</title>
<path fill="none" stroke="black" d="M1059.69,-493.793C1051.95,-453.562 1032.63,-353.077 1023.26,-304.351"/>
<polygon fill="black" stroke="black" points="1026.64,-303.391 1021.31,-294.232 1019.77,-304.713 1026.64,-303.391"/>
<text text-anchor="middle" x="1059" y="-401.2" font-family="Monospace" font-size="11.00">sets</text>
</g>
<!-- signal -->
<g id="node22" class="node"><title>signal</title>
<ellipse fill="none" stroke="black" cx="1331" cy="-404" rx="91.1053" ry="18"/>
<text text-anchor="middle" x="1331" y="-401.2" font-family="Monospace" font-size="11.00">std::signal(SIGABRT)</text>
</g>
<!-- signal&#45;&gt;user_signal_handler -->
<g id="edge76" class="edge"><title>signal&#45;&gt;user_signal_handler</title>
<path fill="none" stroke="black" d="M1331,-385.938C1331,-368.023 1331,-339.031 1331,-314 1331,-314 1331,-314 1331,-191 1331,-164.212 1309.16,-144.383 1286.2,-130.94"/>
<polygon fill="black" stroke="black" points="1287.84,-127.848 1277.39,-126.099 1284.47,-133.983 1287.84,-127.848"/>
<text text-anchor="middle" x="1345" y="-273.2" font-family="Monospace" font-size="11.00">sets</text>
</g>
<!-- user_signal_handler&#45;&gt;END -->
<g id="edge80" class="edge"><title>user_signal_handler&#45;&gt;END</title>
<path fill="none" stroke="black" stroke-dasharray="5,2" d="M1188.99,-89.9361C1149.39,-74.9197 1092.6,-53.3896 1056.78,-39.806"/>
<polygon fill="black" stroke="black" points="1057.85,-36.47 1047.26,-36.1974 1055.37,-43.0154 1057.85,-36.47"/>
</g>
<!-- raise -->
<g id="node24" class="node"><title>raise</title>
<ellipse fill="lightgrey" stroke="black" cx="1317" cy="-758" rx="87.2912" ry="18"/>
<text text-anchor="middle" x="1317" y="-755.2" font-family="Monospace" font-size="11.00">std::raise(SIGABRT)</text>
</g>
<!-- raise&#45;&gt;user_signal_handler -->
<g id="edge82" class="edge"><title>raise&#45;&gt;user_signal_handler</title>
<path fill="none" stroke="black" d="M1290.39,-740.549C1263.22,-721.472 1225,-687.299 1225,-646 1225,-646 1225,-646 1225,-191 1225,-172.731 1227.23,-152.308 1229.48,-136.415"/>
<polygon fill="black" stroke="black" points="1232.98,-136.625 1231,-126.217 1226.06,-135.589 1232.98,-136.625"/>
</g>
<!-- PROGRAM -->
<g id="node25" class="node"><title>PROGRAM</title>
<ellipse fill="none" stroke="black" cx="833" cy="-1153" rx="38.2285" ry="38.4712"/>
<text text-anchor="middle" x="833" y="-1150.2" font-family="Monospace" font-size="11.00">PROGRAM</text>
</g>
<!-- PROGRAM&#45;&gt;exit -->
<g id="edge8" class="edge"><title>PROGRAM&#45;&gt;exit</title>
<path fill="none" stroke="black" d="M794.426,-1151.88C683.47,-1150.64 367.374,-1140.51 304,-1066 225.677,-973.915 258.054,-905.817 304,-794 315.106,-766.973 338.825,-743.783 358.843,-727.855"/>
<polygon fill="black" stroke="black" points="361.065,-730.562 366.863,-721.695 356.801,-725.011 361.065,-730.562"/>
<text text-anchor="middle" x="295" y="-873.2" font-family="Monospace" font-size="11.00">calls</text>
</g>
<!-- PROGRAM&#45;&gt;terminate -->
<g id="edge16" class="edge"><title>PROGRAM&#45;&gt;terminate</title>
<path fill="none" stroke="black" d="M866.104,-1133.45C889.037,-1118.54 917.739,-1095.28 931,-1066 959.735,-1002.55 914.348,-501.695 902.641,-378.367"/>
<polygon fill="black" stroke="black" points="906.11,-377.877 901.676,-368.254 899.142,-378.542 906.11,-377.877"/>
<text text-anchor="middle" x="947" y="-701.2" font-family="Monospace" font-size="11.00">calls</text>
</g>
<!-- PROGRAM&#45;&gt;abort -->
<g id="edge14" class="edge"><title>PROGRAM&#45;&gt;abort</title>
<path fill="none" stroke="black" d="M867.974,-1136.47C887.395,-1126.71 911.161,-1112.8 929,-1096 951.316,-1074.98 989,-995.354 989,-990 989,-990 989,-990 989,-644 989,-601.333 960.503,-579.754 989,-548 1013.78,-520.385 1127.65,-555.076 1155,-530 1178.71,-508.264 1169,-491.163 1169,-459 1169,-459 1169,-459 1169,-275 1169,-253.427 1156.47,-232.495 1144.22,-217.179"/>
<polygon fill="black" stroke="black" points="1146.66,-214.643 1137.52,-209.28 1141.32,-219.171 1146.66,-214.643"/>
<text text-anchor="middle" x="1006" y="-573.2" font-family="Monospace" font-size="11.00">calls</text>
</g>
<!-- PROGRAM&#45;&gt;quick_exit -->
<g id="edge10" class="edge"><title>PROGRAM&#45;&gt;quick_exit</title>
<path fill="none" stroke="black" d="M871.239,-1149.33C941.461,-1143.15 1094.19,-1123.65 1208,-1066 1233.45,-1053.11 1257.63,-1031.28 1274.18,-1014.32"/>
<polygon fill="black" stroke="black" points="1276.86,-1016.57 1281.22,-1006.92 1271.79,-1011.75 1276.86,-1016.57"/>
<text text-anchor="middle" x="1177" y="-1087.2" font-family="Monospace" font-size="11.00">calls</text>
</g>
<!-- PROGRAM&#45;&gt;_Exit -->
<g id="edge18" class="edge"><title>PROGRAM&#45;&gt;_Exit</title>
<path fill="none" stroke="black" d="M871.284,-1149.78C999.386,-1141.92 1406.8,-1113.33 1439,-1066 1510.47,-960.956 1467.5,-795.912 1446.51,-731.757"/>
<polygon fill="black" stroke="black" points="1449.74,-730.372 1443.24,-722.008 1443.1,-732.602 1449.74,-730.372"/>
<text text-anchor="middle" x="1494" y="-873.2" font-family="Monospace" font-size="11.00">calls</text>
</g>
<!-- PROGRAM&#45;&gt;mainReturn -->
<g id="edge2" class="edge"><title>PROGRAM&#45;&gt;mainReturn</title>
<path fill="none" stroke="darkorange" stroke-width="2" d="M794.621,-1149.94C724.214,-1144.75 571.422,-1126.8 460,-1066 436.894,-1053.39 415.851,-1032.02 401.461,-1015.15"/>
<polygon fill="darkorange" stroke="darkorange" points="404.024,-1012.75 394.951,-1007.28 398.631,-1017.22 404.024,-1012.75"/>
</g>
<!-- PROGRAM&#45;&gt;terminateCause -->
<g id="edge4" class="edge"><title>PROGRAM&#45;&gt;terminateCause</title>
<path fill="none" stroke="black" d="M833,-1114.43C833,-1102.96 833,-1089.84 833,-1076.52"/>
<polygon fill="black" stroke="black" points="836.5,-1076.32 833,-1066.32 829.5,-1076.32 836.5,-1076.32"/>
</g>
<!-- PROGRAM&#45;&gt;unexpectedCause -->
<g id="edge6" class="edge"><title>PROGRAM&#45;&gt;unexpectedCause</title>
<path fill="none" stroke="black" d="M795.848,-1143.18C763.023,-1134.36 714.656,-1118.81 677,-1096 642.155,-1074.89 608.652,-1042.11 586.887,-1018.6"/>
<polygon fill="black" stroke="black" points="589.294,-1016.04 579.971,-1011.01 584.119,-1020.76 589.294,-1016.04"/>
</g>
<!-- PROGRAM&#45;&gt;unexpected -->
<g id="edge12" class="edge"><title>PROGRAM&#45;&gt;unexpected</title>
<path fill="none" stroke="black" d="M797.172,-1138.7C766.238,-1125.26 723.003,-1101.39 700,-1066 677.191,-1030.91 666.656,-908.9 662.815,-850.129"/>
<polygon fill="black" stroke="black" points="666.295,-849.688 662.175,-839.927 659.308,-850.126 666.295,-849.688"/>
<text text-anchor="middle" x="717" y="-986.2" font-family="Monospace" font-size="11.00">calls</text>
</g>
<!-- PROGRAM&#45;&gt;raise -->
<g id="edge20" class="edge"><title>PROGRAM&#45;&gt;raise</title>
<path fill="none" stroke="black" d="M871.479,-1152.16C985.351,-1151.74 1316.85,-1143.75 1383,-1066 1422.31,-1019.8 1391.19,-846.027 1360,-794 1357.47,-789.784 1354.24,-785.858 1350.69,-782.273"/>
<polygon fill="black" stroke="black" points="1352.84,-779.502 1343.07,-775.411 1348.16,-784.704 1352.84,-779.502"/>
<text text-anchor="middle" x="1418" y="-986.2" font-family="Monospace" font-size="11.00">calls</text>
</g>
<!-- __fastfail -->
<g id="node27" class="node"><title>__fastfail</title>
<ellipse fill="#f0f0f0" stroke="gray" cx="121" cy="-26" rx="121.433" ry="22.7556"/>
<text text-anchor="middle" x="121" y="-29.2" font-family="Monospace" font-size="11.00" fill="#707070">__fastfail(FAST_FAIL_*)</text>
<text text-anchor="middle" x="121" y="-17.2" font-family="Monospace" font-size="11.00" fill="#707070">[Microsoft Specific]</text>
</g>
<!-- PROGRAM&#45;&gt;__fastfail -->
<g id="edge84" class="edge"><title>PROGRAM&#45;&gt;__fastfail</title>
<path fill="none" stroke="gray" d="M794.72,-1151.56C646.83,-1148.86 121,-1129.45 121,-990 121,-990 121,-990 121,-107 121,-91.1298 121,-73.4886 121,-58.8193"/>
<polygon fill="gray" stroke="gray" points="124.5,-58.7307 121,-48.7307 117.5,-58.7308 124.5,-58.7307"/>
<text text-anchor="middle" x="189" y="-461.2" font-family="Monospace" font-size="11.00">calls</text>
<text text-anchor="middle" x="189" y="-449.2" font-family="Monospace" font-size="11.00">[Microsoft Specific]</text>
</g>
<!-- __fastfail&#45;&gt;END -->
<g id="edge86" class="edge"><title>__fastfail&#45;&gt;END</title>
<path fill="none" stroke="gray" d="M242.559,-26C490.504,-26 738.45,-26 986.395,-26"/>
<polygon fill="gray" stroke="gray" points="986.706,-29.5001 996.706,-26 986.706,-22.5001 986.706,-29.5001"/>
</g>
</g>
</svg>
